{"glyphs":{"0":{"ha":802,"x_min":54,"x_max":747,"o":"m 258 323 q 295 117 258 188 q 404 47 332 47 q 511 113 478 47 q 544 315 544 178 q 507 517 544 453 q 397 582 469 582 q 292 522 326 582 q 258 323 258 462 m 747 329 q 650 74 747 166 q 393 -18 553 -18 q 144 68 235 -18 q 54 305 54 153 q 150 554 54 463 q 410 644 245 644 q 658 562 568 644 q 747 329 747 479 z "},"1":{"ha":507,"x_min":24,"x_max":487,"o":"m 28 566 l 24 600 q 359 644 199 621 l 365 639 q 357 394 357 519 l 357 227 q 357 146 357 182 q 358 83 357 111 q 377 58 359 63 l 485 31 l 487 -2 q 264 0 361 0 q 42 -2 167 0 l 39 31 l 150 58 q 168 80 168 64 q 169 138 169 108 q 170 202 170 168 l 170 311 q 169 439 170 379 q 167 552 168 499 l 28 566 z "},"2":{"ha":673,"x_min":27,"x_max":626,"o":"m 587 235 l 626 241 l 612 3 l 608 -2 q 318 0 475 0 q 32 -2 174 0 l 27 81 q 138 154 85 119 q 230 217 191 189 q 300 272 272 246 q 344 321 328 297 q 367 369 360 345 q 374 418 374 392 q 329 512 374 477 q 218 547 285 547 q 71 504 149 547 l 45 558 q 306 644 172 644 q 490 589 418 644 q 563 452 563 534 q 541 366 563 403 q 474 293 519 328 q 363 221 430 258 q 205 134 296 183 l 206 130 l 536 130 l 587 235 z "},"3":{"ha":634,"x_min":-3,"x_max":606,"o":"m 114 226 q 299 286 237 241 q 361 408 361 331 q 316 513 361 473 q 202 553 272 553 q 35 502 123 553 l 9 556 q 295 644 132 644 q 485 592 412 644 q 557 455 557 541 q 321 233 557 304 l 321 230 q 531 176 457 230 q 606 28 606 123 q 566 -111 606 -48 q 451 -217 527 -173 q 262 -287 374 -262 q 3 -312 149 -311 l -3 -252 q 187 -223 110 -245 q 312 -167 264 -201 q 381 -91 360 -134 q 402 0 402 -47 q 345 127 402 81 q 200 174 288 174 q 118 165 157 174 l 114 226 z "},"4":{"ha":727,"x_min":7,"x_max":726,"o":"m 122 91 l 387 91 l 387 430 q 319 348 354 391 q 251 262 285 306 q 184 176 217 219 q 122 91 151 132 m 574 -83 q 578 -271 574 -191 q 395 -292 478 -281 l 386 -288 q 387 -94 387 -206 l 387 -3 l 219 -3 q 12 -5 134 -3 l 7 58 q 120 197 62 124 q 237 343 178 269 q 353 492 296 418 q 463 637 410 566 l 578 644 q 574 361 574 492 l 574 91 l 723 91 l 726 -5 q 574 -3 657 -3 l 574 -83 z "},"5":{"ha":649,"x_min":41,"x_max":622,"o":"m 46 -312 l 41 -252 q 197 -232 127 -250 q 317 -182 268 -214 q 394 -108 367 -151 q 421 -12 421 -65 q 365 128 421 76 q 212 180 309 180 q 67 165 135 180 l 63 170 l 102 630 q 353 627 220 627 q 595 630 492 627 l 600 625 l 583 465 l 172 465 l 156 307 q 294 317 222 317 q 532 242 441 317 q 622 51 622 168 q 589 -90 622 -24 q 486 -204 556 -155 q 308 -282 416 -253 q 46 -312 199 -311 z "},"6":{"ha":762,"x_min":29,"x_max":720,"o":"m 653 883 q 239 491 283 825 l 239 490 q 451 578 317 578 q 641 503 562 578 q 720 300 720 428 q 621 71 720 159 q 379 -18 521 -18 q 127 89 225 -18 q 29 359 29 195 q 195 766 29 610 q 644 945 360 922 l 653 883 m 522 245 q 479 434 522 367 q 370 500 437 500 q 270 449 307 500 q 233 307 233 398 q 274 112 233 183 q 394 41 315 41 q 490 97 458 41 q 522 245 522 153 z "},"7":{"ha":656,"x_min":20,"x_max":654,"o":"m 109 -273 l 530 451 l 120 451 l 76 313 l 32 308 l 20 624 l 25 629 q 181 627 105 628 q 330 627 257 627 l 368 627 q 515 627 441 627 q 652 629 589 628 l 654 526 q 543 318 597 422 q 442 112 489 214 q 357 -86 395 11 q 293 -271 319 -182 l 113 -278 l 109 -273 z "},"8":{"ha":743,"x_min":41,"x_max":702,"o":"m 471 536 q 648 413 593 479 q 702 261 702 347 q 602 60 702 138 q 359 -18 503 -18 q 130 45 218 -18 q 41 217 41 109 q 90 346 41 292 q 244 453 139 401 q 85 688 85 541 q 170 863 85 795 q 384 930 256 930 q 574 878 498 930 q 650 737 650 825 q 603 628 650 675 q 471 536 556 581 m 300 420 q 217 224 217 328 q 260 96 217 146 q 372 45 302 45 q 477 88 437 45 q 518 201 518 131 q 474 311 518 264 q 300 420 431 358 m 416 566 q 479 720 479 652 q 446 829 479 790 q 356 867 412 867 q 278 835 310 867 q 247 751 247 803 q 283 659 247 699 q 416 566 319 619 z "},"9":{"ha":759,"x_min":41,"x_max":732,"o":"m 109 -250 q 523 136 480 -196 l 522 136 q 311 48 444 48 q 121 123 201 48 q 41 326 41 198 q 141 556 41 467 q 382 644 241 644 q 634 538 536 644 q 732 267 732 433 q 576 -130 732 25 q 117 -312 420 -285 l 109 -250 m 239 381 q 282 192 239 258 q 392 126 326 126 q 492 177 455 126 q 528 319 528 229 q 486 517 528 450 q 368 585 444 585 q 273 531 306 585 q 239 381 239 476 z "},"\u0000":{"ha":0,"x_min":0,"x_max":0,"o":""},"\r":{"ha":0,"x_min":0,"x_max":0,"o":""}," ":{"ha":332,"x_min":0,"x_max":0,"o":""},"A":{"ha":930,"x_min":-39,"x_max":941,"o":"m 258 301 l 210 174 q 188 114 195 137 q 180 79 180 92 q 186 62 180 68 q 205 52 192 56 l 270 33 l 272 -2 q 112 0 174 0 q -35 -2 47 0 l -39 32 l 34 54 q 72 78 60 61 q 99 131 84 96 l 437 954 l 510 964 l 802 140 q 833 76 819 92 q 873 52 847 59 l 939 32 l 941 -2 q 757 0 850 0 q 517 -2 634 0 l 514 32 l 581 52 q 601 62 595 56 q 607 80 607 68 q 600 116 607 94 q 581 174 593 138 l 536 301 l 258 301 m 404 690 q 378 617 392 655 l 285 372 l 511 372 l 428 616 q 404 690 415 655 z "},"B":{"ha":918,"x_min":59,"x_max":863,"o":"m 59 949 q 254 947 154 947 q 369 951 291 948 q 476 954 447 954 q 735 898 648 954 q 822 739 822 843 q 629 514 822 576 q 802 436 741 498 q 863 280 863 374 q 753 70 863 144 q 444 -4 644 -4 q 362 -2 405 -4 q 254 0 319 0 q 62 -2 155 0 l 59 32 l 150 57 q 168 78 167 62 q 169 139 169 105 q 170 213 170 172 l 170 753 q 169 815 170 787 q 168 866 169 843 q 152 888 168 884 l 61 915 l 59 949 m 372 469 l 372 64 q 452 58 410 58 q 593 112 545 58 q 641 268 641 165 q 592 420 641 370 q 434 470 543 470 q 372 469 402 470 m 372 530 q 437 530 406 530 q 566 571 524 530 q 608 713 608 613 q 565 847 608 806 q 440 888 522 888 q 410 887 427 888 q 372 883 393 886 l 372 530 z "},"C":{"ha":916,"x_min":67,"x_max":869,"o":"m 812 693 l 775 687 l 724 882 q 608 899 670 899 q 376 786 458 899 q 294 492 294 674 q 390 183 294 298 q 659 68 487 68 q 860 106 754 68 l 869 68 q 562 -24 733 -24 q 204 109 340 -24 q 67 461 67 243 q 217 829 67 694 q 608 965 367 965 q 852 937 728 965 l 857 930 l 812 693 z "},"D":{"ha":1097,"x_min":59,"x_max":1028,"o":"m 243 0 q 62 -2 155 0 l 59 32 l 150 57 q 168 78 168 62 q 169 139 169 105 q 170 213 170 172 l 170 753 q 169 815 170 787 q 168 866 169 843 q 152 888 168 884 l 61 915 l 59 949 q 241 947 154 947 q 381 950 314 947 q 520 954 448 954 q 901 845 773 954 q 1028 524 1028 737 q 887 135 1028 273 q 489 -4 745 -4 q 363 -2 418 -4 q 243 0 309 0 m 373 69 q 437 61 406 63 q 500 60 468 60 q 724 163 647 60 q 800 479 800 267 q 727 786 800 686 q 496 886 654 886 q 373 881 438 886 l 373 69 z "},"E":{"ha":836,"x_min":59,"x_max":772,"o":"m 239 947 l 411 947 q 753 949 576 947 l 758 944 l 715 718 l 679 713 l 635 878 l 373 878 l 373 517 l 410 517 q 536 519 469 517 q 559 537 554 519 l 584 630 l 629 632 q 627 485 627 534 q 629 340 627 437 l 584 336 l 559 432 q 538 451 553 450 q 409 452 469 452 l 373 452 l 373 220 q 374 72 373 145 l 646 72 l 731 250 l 772 256 l 756 3 l 751 -2 q 422 0 583 0 l 243 0 q 62 -2 155 0 l 59 32 l 150 57 q 168 78 167 62 q 169 139 169 105 q 170 213 170 172 l 170 753 q 169 815 170 787 q 168 866 169 843 q 152 888 168 884 l 61 915 l 59 949 q 239 947 154 947 z "},"F":{"ha":782,"x_min":59,"x_max":758,"o":"m 373 437 l 373 213 q 374 82 373 133 q 392 60 375 66 l 492 32 l 494 -2 q 274 0 389 0 q 62 -2 157 0 l 59 32 l 150 57 q 168 78 168 62 q 170 213 170 133 l 170 753 q 169 815 170 787 q 168 866 169 843 q 152 888 168 884 l 61 915 l 59 949 q 239 947 154 947 l 411 947 q 753 949 576 947 l 758 944 l 715 718 l 679 713 l 635 878 l 373 878 l 373 502 l 412 502 q 538 503 471 502 q 562 522 557 504 l 586 614 l 631 616 q 629 469 629 518 q 631 324 629 422 l 586 320 l 561 416 q 540 435 556 434 q 411 437 471 437 l 373 437 z "},"G":{"ha":1028,"x_min":67,"x_max":996,"o":"m 834 699 l 796 694 l 749 881 q 616 899 692 899 q 379 786 464 899 q 294 476 294 673 q 379 155 294 270 q 618 39 465 39 q 697 45 655 39 l 697 224 q 697 286 697 258 q 696 336 696 313 q 679 359 695 354 l 587 385 l 585 419 q 793 417 681 417 q 992 419 909 417 l 996 385 l 916 363 q 898 342 899 358 q 897 287 897 315 q 897 227 897 259 l 897 13 l 892 8 q 614 -25 746 -25 q 217 101 368 -25 q 67 453 67 227 q 217 829 67 693 q 627 965 368 965 q 873 937 752 965 l 878 931 l 834 699 z "},"H":{"ha":1149,"x_min":59,"x_max":1090,"o":"m 373 465 l 373 213 q 374 79 373 133 q 392 56 375 60 l 471 32 l 473 -2 q 274 0 389 0 q 62 -2 157 0 l 59 32 l 150 57 q 168 78 168 62 q 170 213 170 133 l 170 753 q 168 866 170 821 q 152 888 168 884 l 61 915 l 59 949 q 268 947 153 947 q 469 949 386 947 l 473 915 l 392 892 q 374 871 375 887 q 373 756 373 822 l 373 536 l 777 536 l 777 756 q 776 871 777 822 q 758 892 775 887 l 679 915 l 677 949 q 880 947 763 947 q 1087 949 995 947 l 1090 915 l 998 888 q 981 866 983 884 q 980 753 980 821 l 980 213 q 981 78 980 133 q 1000 57 983 62 l 1088 32 l 1090 -2 q 876 0 994 0 q 680 -2 762 0 l 677 32 l 758 56 q 776 79 775 60 q 777 213 777 133 l 777 465 l 373 465 z "},"I":{"ha":543,"x_min":59,"x_max":483,"o":"m 373 213 q 373 139 373 172 q 374 79 374 106 q 397 56 375 62 l 481 32 l 483 -2 q 274 0 389 0 q 62 -2 155 0 l 59 32 l 150 57 q 168 78 167 62 q 169 139 169 105 q 170 213 170 172 l 170 753 q 169 815 170 787 q 168 866 169 843 q 152 888 168 884 l 61 915 l 59 949 q 268 947 153 947 q 479 949 386 947 l 483 915 l 392 890 q 374 869 376 886 q 373 817 374 845 q 373 756 373 789 l 373 213 z "},"J":{"ha":505,"x_min":-28,"x_max":473,"o":"m 48 949 q 258 947 143 947 q 469 949 375 947 l 473 915 l 382 890 q 363 869 365 886 q 362 817 363 845 q 362 756 362 789 l 362 143 q 356 22 362 76 q 335 -75 350 -33 q 294 -152 320 -118 q 225 -212 267 -185 q 124 -258 184 -238 q -15 -294 65 -279 l -28 -254 q 75 -189 38 -224 q 130 -108 111 -153 q 154 -5 149 -62 q 159 123 159 52 l 159 753 q 159 815 159 787 q 158 866 159 843 q 142 888 157 884 l 50 915 l 48 949 z "},"K":{"ha":1015,"x_min":59,"x_max":1008,"o":"m 373 756 l 373 213 q 373 139 373 172 q 374 79 374 106 q 392 56 375 61 l 471 32 l 473 -2 q 274 0 389 0 q 62 -2 155 0 l 59 32 l 150 57 q 168 78 168 62 q 169 139 169 105 q 170 213 170 172 l 170 753 q 169 815 170 787 q 168 866 169 843 q 152 888 168 884 l 61 915 l 59 949 q 268 947 153 947 q 469 949 385 947 l 473 915 l 392 892 q 374 871 376 887 q 373 817 374 846 q 373 756 373 789 m 389 474 l 667 780 q 719 841 700 816 q 738 880 738 865 q 720 899 738 893 l 661 913 l 659 949 q 816 947 730 947 q 976 949 900 947 l 979 915 l 903 894 q 846 863 869 884 q 795 813 822 842 l 563 553 l 861 115 q 900 72 883 84 q 941 52 917 59 l 1006 32 l 1008 -2 q 853 0 933 0 q 692 -1 779 0 q 582 180 672 43 l 389 474 z "},"L":{"ha":801,"x_min":66,"x_max":774,"o":"m 373 756 l 373 220 q 374 72 373 145 l 640 72 l 732 264 l 774 271 l 757 3 l 752 -2 q 425 0 585 0 l 256 0 q 69 -2 155 0 l 66 32 l 150 57 q 168 78 167 62 q 169 139 169 105 q 170 213 170 172 l 170 753 q 169 815 170 787 q 168 866 169 843 q 152 888 168 884 l 68 915 l 66 949 q 268 947 153 947 q 473 949 386 947 l 476 915 l 392 890 q 374 869 376 886 q 373 800 374 845 q 373 756 373 755 z "},"M":{"ha":1299,"x_min":45,"x_max":1240,"o":"m 909 949 q 1078 947 1002 947 q 1236 949 1145 947 l 1240 915 l 1147 888 q 1131 866 1131 884 q 1129 753 1129 821 l 1129 213 q 1131 78 1129 133 q 1149 57 1131 62 l 1237 32 l 1240 -2 q 1025 0 1143 0 q 833 -2 910 0 l 829 32 l 907 56 q 924 80 924 60 q 926 213 926 133 l 926 647 q 928 782 926 682 q 880 661 905 724 l 610 0 l 549 -5 l 291 637 q 243 760 268 692 q 245 633 245 663 l 245 213 q 246 80 245 133 q 264 56 247 60 l 338 32 l 340 -2 q 201 0 260 0 q 49 -2 143 0 l 45 32 l 136 57 q 155 78 154 62 q 156 213 156 133 l 156 753 q 155 866 156 821 q 138 888 154 884 l 47 915 l 45 949 q 214 947 158 947 q 372 949 292 947 l 609 352 q 637 279 625 313 q 665 352 650 313 l 909 949 z "},"N":{"ha":1050,"x_min":42,"x_max":1018,"o":"m 243 81 q 260 57 243 61 l 347 33 l 349 -2 q 198 0 257 0 q 45 -2 140 0 l 42 32 l 133 57 q 151 78 151 62 q 153 213 153 133 l 153 753 q 151 866 153 821 q 135 888 151 884 l 44 915 l 42 949 q 188 947 137 947 q 314 949 254 947 l 765 385 q 821 313 792 351 q 819 403 819 359 l 819 756 q 818 869 819 822 q 800 890 817 885 l 713 913 l 711 949 q 863 947 805 947 q 1015 949 923 947 l 1018 915 l 926 888 q 909 866 910 884 q 907 753 907 821 l 907 0 l 829 -7 l 295 662 q 240 734 271 692 q 241 642 241 684 l 241 213 q 243 81 241 133 z "},"O":{"ha":1151,"x_min":67,"x_max":1084,"o":"m 295 486 q 368 154 295 269 q 583 39 441 39 q 790 144 723 39 q 857 472 857 248 q 786 795 857 682 q 568 908 715 908 q 360 803 425 908 q 295 486 295 699 m 1084 495 q 946 118 1084 260 q 561 -25 808 -25 q 196 107 325 -25 q 67 464 67 239 q 206 835 67 699 q 591 972 345 972 q 956 844 827 972 q 1084 495 1084 716 z "},"P":{"ha":891,"x_min":59,"x_max":852,"o":"m 373 463 q 450 455 412 455 q 585 510 538 455 q 631 675 631 564 q 587 834 631 782 q 448 887 543 887 q 373 882 411 887 l 373 463 m 373 213 q 373 140 373 172 q 374 82 374 108 q 392 60 375 66 l 492 32 l 494 -2 q 274 0 389 0 q 62 -2 155 0 l 59 32 l 150 57 q 168 78 168 62 q 169 139 169 105 q 170 213 170 172 l 170 753 q 169 815 170 787 q 168 866 169 843 q 152 888 168 884 l 61 915 l 59 949 q 247 947 154 947 q 371 949 311 947 q 480 952 431 952 q 758 889 663 952 q 852 701 852 825 q 754 472 852 553 q 477 390 656 390 q 373 397 429 390 l 373 213 z "},"Q":{"ha":1150,"x_min":67,"x_max":1114,"o":"m 1103 -117 l 1114 -154 q 885 -309 975 -309 q 684 -241 771 -309 q 547 -25 596 -173 q 194 110 320 -20 q 67 464 67 239 q 206 835 67 699 q 591 972 345 972 q 956 844 827 972 q 1084 495 1084 716 q 965 139 1084 276 q 649 -20 846 1 q 935 -151 714 -151 q 1103 -117 1029 -151 m 295 486 q 368 154 295 269 q 583 39 441 39 q 790 144 723 39 q 857 472 857 248 q 786 795 857 682 q 568 908 715 908 q 360 803 425 908 q 295 486 295 699 z "},"R":{"ha":979,"x_min":59,"x_max":993,"o":"m 371 213 q 371 140 371 172 q 372 81 372 108 q 388 55 373 60 l 458 32 l 460 -2 q 274 0 385 0 q 62 -2 155 0 l 59 32 l 150 57 q 168 78 167 62 q 169 139 169 105 q 170 213 170 172 l 170 753 q 169 815 170 787 q 168 866 169 843 q 152 888 168 884 l 61 915 l 59 949 q 254 947 154 947 q 306 948 275 947 q 382 950 337 949 q 450 952 422 951 q 493 953 477 953 q 754 895 667 953 q 842 724 842 836 q 788 561 842 623 q 632 466 735 499 q 720 330 689 382 q 782 227 751 277 q 839 138 813 176 q 886 77 864 99 q 910 59 899 66 q 933 46 921 52 q 959 37 945 41 q 990 30 973 33 l 993 -5 q 841 -14 926 -14 q 746 -5 773 -14 q 698 20 719 3 q 641 83 667 44 q 585 172 614 123 q 525 277 556 222 q 460 387 494 333 q 444 413 450 403 q 431 428 437 423 q 417 436 425 433 q 399 439 410 438 l 371 439 l 371 213 m 371 498 q 436 496 407 496 q 577 545 532 496 q 622 696 622 593 q 579 842 622 796 q 445 888 536 888 q 411 886 429 888 q 371 882 393 885 l 371 498 z "},"S":{"ha":732,"x_min":61,"x_max":685,"o":"m 524 885 q 429 902 480 902 q 308 860 357 902 q 258 751 258 818 q 274 683 258 711 q 317 632 290 654 q 379 592 345 610 q 452 557 414 574 q 535 514 493 537 q 610 458 577 490 q 664 381 644 426 q 685 273 685 336 q 581 56 685 135 q 307 -22 477 -22 q 65 16 184 -22 l 61 22 l 97 267 l 139 273 l 190 66 q 298 43 239 43 q 437 87 385 43 q 490 204 490 131 q 473 274 490 245 q 429 326 457 303 q 366 366 401 349 q 293 401 331 384 q 210 444 252 422 q 136 498 169 467 q 83 575 104 530 q 63 682 63 619 q 162 888 63 812 q 419 965 261 965 q 648 934 519 965 l 652 928 l 610 709 l 573 703 l 524 885 z "},"T":{"ha":863,"x_min":18,"x_max":857,"o":"m 435 0 q 207 -2 315 0 l 203 32 l 312 62 q 330 83 329 67 q 331 214 331 134 l 331 877 l 136 877 l 73 696 l 35 690 l 18 944 l 22 949 q 342 947 189 947 l 531 947 q 852 949 684 947 l 857 944 l 812 696 l 774 690 l 730 877 l 534 877 l 534 214 q 535 83 534 134 q 553 62 536 67 l 660 32 l 662 -2 q 435 0 549 0 z "},"U":{"ha":1065,"x_min":34,"x_max":1036,"o":"m 34 949 q 243 947 128 947 q 452 949 361 947 l 455 915 l 367 890 q 349 869 351 886 q 348 817 349 845 q 348 756 348 789 l 348 382 q 404 126 348 197 q 584 56 459 56 q 768 131 707 56 q 829 374 829 205 l 829 756 q 829 817 829 789 q 827 869 828 845 q 810 890 827 885 l 726 913 l 724 949 q 880 947 814 947 q 1033 949 941 947 l 1036 915 l 944 888 q 927 866 928 884 q 926 815 926 843 q 926 753 926 787 l 926 409 q 830 74 926 176 q 551 -27 734 -27 q 243 70 342 -27 q 144 379 144 166 l 144 753 q 144 815 144 787 q 143 866 144 843 q 127 888 142 884 l 36 915 l 34 949 z "},"V":{"ha":921,"x_min":-12,"x_max":960,"o":"m 499 338 q 523 263 512 299 q 549 337 535 299 l 712 772 q 733 833 726 810 q 741 868 741 855 q 735 886 741 880 q 715 895 728 892 l 651 913 l 649 949 q 809 947 747 947 q 956 949 873 947 l 960 915 l 886 894 q 849 869 861 886 q 822 816 837 852 l 489 -3 l 418 -10 l 127 808 q 96 871 110 854 q 56 896 82 888 l -9 915 l -12 949 q 172 947 80 947 q 412 949 295 947 l 415 915 l 349 896 q 329 886 335 892 q 323 867 323 880 q 330 832 323 854 q 349 773 336 810 l 499 338 z "},"W":{"ha":1362,"x_min":-7,"x_max":1391,"o":"m 966 368 q 985 296 978 332 q 1007 366 996 333 l 1148 772 q 1167 834 1162 812 q 1173 868 1173 855 q 1167 886 1173 880 q 1147 895 1160 892 l 1082 913 l 1080 949 q 1240 947 1179 947 q 1388 949 1305 947 l 1391 915 l 1318 894 q 1279 869 1293 886 q 1253 816 1266 852 l 961 0 l 887 -6 l 715 532 q 688 624 702 574 q 656 532 671 575 l 469 0 l 396 -6 l 132 808 q 101 871 116 854 q 61 896 87 888 l -5 915 l -7 949 q 178 947 85 947 q 416 949 300 947 l 420 915 l 353 896 q 334 886 340 892 q 328 867 328 880 q 333 832 328 854 q 349 773 338 810 l 475 368 q 494 296 486 332 q 515 366 505 333 l 716 950 l 785 956 l 966 368 z "},"X":{"ha":952,"x_min":-7,"x_max":974,"o":"m 974 -2 q 764 0 880 0 q 526 -2 656 0 l 522 32 l 582 48 q 602 59 596 52 q 608 75 608 65 q 596 113 608 91 q 570 158 584 135 l 422 391 l 289 182 q 252 123 268 151 q 235 76 235 95 q 240 60 235 66 q 259 50 245 54 l 317 33 l 319 -2 q 156 0 243 0 q -3 -2 77 0 l -7 32 l 71 54 q 115 78 96 62 q 154 126 133 94 l 378 460 l 146 828 q 108 877 124 863 q 71 897 92 891 l 0 915 l -3 949 q 218 947 93 947 q 446 949 326 947 l 450 915 l 390 899 q 370 889 376 895 q 363 872 363 882 q 376 834 363 856 q 403 789 389 812 l 519 604 l 623 765 q 661 825 645 796 q 677 871 677 854 q 650 897 677 889 l 591 913 l 589 949 q 751 947 664 947 q 909 949 835 947 l 913 915 l 838 894 q 795 869 811 886 q 752 813 779 853 l 562 535 l 820 127 q 862 70 848 83 q 902 51 877 57 l 972 32 l 974 -2 z "},"Y":{"ha":857,"x_min":-34,"x_max":891,"o":"m 505 513 l 635 772 q 664 830 653 806 q 675 869 675 854 q 644 897 675 889 l 583 913 l 581 949 q 739 947 656 947 q 888 949 814 947 l 891 915 l 819 894 q 782 870 795 886 q 755 829 768 854 l 541 433 l 541 213 q 541 139 541 172 q 542 79 541 106 q 566 56 543 62 l 642 32 l 644 -2 q 441 0 556 0 q 237 -2 323 0 l 233 32 l 317 57 q 336 78 334 62 q 337 139 336 105 q 338 213 338 172 l 338 416 l 117 811 q 76 870 92 852 q 34 897 60 888 l -31 915 l -34 949 q 157 947 33 947 q 414 949 292 947 l 417 915 l 348 898 q 325 888 332 895 q 317 871 317 882 q 327 837 317 857 q 353 789 336 817 l 505 513 z "},"Z":{"ha":819,"x_min":44,"x_max":771,"o":"m 47 -2 l 44 32 l 514 878 l 182 878 l 132 713 l 94 708 l 58 944 l 62 949 q 388 947 235 947 l 566 947 q 760 949 663 947 l 764 915 l 295 70 l 636 70 l 732 268 l 771 274 l 753 3 l 749 -2 q 407 0 556 0 l 225 0 q 47 -2 130 0 z "},"À":{"ha":930,"x_min":-39,"x_max":941,"o":"m 258 301 l 210 174 q 188 114 195 137 q 180 79 180 92 q 186 62 180 68 q 205 52 192 56 l 270 33 l 272 -2 q 112 0 174 0 q -35 -2 47 0 l -39 32 l 34 54 q 72 78 60 61 q 99 131 84 96 l 437 954 l 510 964 l 802 140 q 833 76 819 92 q 873 52 847 59 l 939 32 l 941 -2 q 757 0 850 0 q 517 -2 634 0 l 514 32 l 581 52 q 601 62 595 56 q 607 80 607 68 q 600 116 607 94 q 581 174 593 138 l 536 301 l 258 301 m 404 690 q 378 617 392 655 l 285 372 l 511 372 l 428 616 q 404 690 415 655 m 280 1127 l 386 1221 l 623 1034 l 602 999 l 280 1117 l 280 1127 m 186 949 z "},"Á":{"ha":930,"x_min":-39,"x_max":941,"o":"m 258 301 l 210 174 q 188 114 195 137 q 180 79 180 92 q 186 62 180 68 q 205 52 192 56 l 270 33 l 272 -2 q 112 0 174 0 q -35 -2 47 0 l -39 32 l 34 54 q 72 78 60 61 q 99 131 84 96 l 437 954 l 510 964 l 802 140 q 833 76 819 92 q 873 52 847 59 l 939 32 l 941 -2 q 757 0 850 0 q 517 -2 634 0 l 514 32 l 581 52 q 601 62 595 56 q 607 80 607 68 q 600 116 607 94 q 581 174 593 138 l 536 301 l 258 301 m 404 690 q 378 617 392 655 l 285 372 l 511 372 l 428 616 q 404 690 415 655 m 663 1117 l 340 999 l 319 1034 l 557 1221 l 663 1127 l 663 1117 m 186 949 z "},"Â":{"ha":930,"x_min":-39,"x_max":941,"o":"m 258 301 l 210 174 q 188 114 195 137 q 180 79 180 92 q 186 62 180 68 q 205 52 192 56 l 270 33 l 272 -2 q 112 0 174 0 q -35 -2 47 0 l -39 32 l 34 54 q 72 78 60 61 q 99 131 84 96 l 437 954 l 510 964 l 802 140 q 833 76 819 92 q 873 52 847 59 l 939 32 l 941 -2 q 757 0 850 0 q 517 -2 634 0 l 514 32 l 581 52 q 601 62 595 56 q 607 80 607 68 q 600 116 607 94 q 581 174 593 138 l 536 301 l 258 301 m 404 690 q 378 617 392 655 l 285 372 l 511 372 l 428 616 q 404 690 415 655 m 471 1099 l 252 999 l 230 1034 l 414 1204 l 528 1204 l 713 1034 l 691 999 l 471 1099 m 186 949 z "},"Ã":{"ha":930,"x_min":-39,"x_max":941,"o":"m 258 301 l 210 174 q 188 114 195 137 q 180 79 180 92 q 186 62 180 68 q 205 52 192 56 l 270 33 l 272 -2 q 112 0 174 0 q -35 -2 47 0 l -39 32 l 34 54 q 72 78 60 61 q 99 131 84 96 l 437 954 l 510 964 l 802 140 q 833 76 819 92 q 873 52 847 59 l 939 32 l 941 -2 q 757 0 850 0 q 517 -2 634 0 l 514 32 l 581 52 q 601 62 595 56 q 607 80 607 68 q 600 116 607 94 q 581 174 593 138 l 536 301 l 258 301 m 404 690 q 378 617 392 655 l 285 372 l 511 372 l 428 616 q 404 690 415 655 m 706 1177 q 551 1033 627 1033 q 504 1043 526 1033 q 455 1069 482 1053 q 433 1082 443 1076 q 415 1091 424 1087 q 398 1097 406 1095 q 382 1099 390 1099 q 345 1088 361 1099 q 288 1034 328 1077 l 254 1063 q 335 1172 302 1140 q 406 1203 369 1203 q 445 1196 427 1203 q 496 1170 463 1189 q 523 1155 511 1162 q 543 1145 534 1149 q 560 1139 552 1141 q 577 1137 568 1137 q 614 1147 599 1137 q 669 1202 629 1158 l 706 1177 m 186 949 z "},"Ä":{"ha":930,"x_min":-39,"x_max":941,"o":"m 258 301 l 210 174 q 188 114 195 137 q 180 79 180 92 q 186 62 180 68 q 205 52 192 56 l 270 33 l 272 -2 q 112 0 174 0 q -35 -2 47 0 l -39 32 l 34 54 q 72 78 60 61 q 99 131 84 96 l 437 954 l 510 964 l 802 140 q 833 76 819 92 q 873 52 847 59 l 939 32 l 941 -2 q 757 0 850 0 q 517 -2 634 0 l 514 32 l 581 52 q 601 62 595 56 q 607 80 607 68 q 600 116 607 94 q 581 174 593 138 l 536 301 l 258 301 m 404 690 q 378 617 392 655 l 285 372 l 511 372 l 428 616 q 404 690 415 655 m 419 1122 q 394 1056 419 1081 q 328 1031 368 1031 q 264 1055 288 1031 q 239 1116 239 1078 q 265 1181 239 1158 q 332 1204 291 1204 q 395 1183 371 1204 q 419 1122 419 1162 m 703 1122 q 677 1056 703 1081 q 611 1031 652 1031 q 548 1055 572 1031 q 524 1116 524 1078 q 549 1181 524 1158 q 616 1204 574 1204 q 679 1183 655 1204 q 703 1122 703 1162 m 186 949 z "},"Ā":{"ha":930,"x_min":-39,"x_max":941,"o":"m 258 301 l 210 174 q 188 114 195 137 q 180 79 180 92 q 186 62 180 68 q 205 52 192 56 l 270 33 l 272 -2 q 112 0 174 0 q -35 -2 47 0 l -39 32 l 34 54 q 72 78 60 61 q 99 131 84 96 l 437 954 l 510 964 l 802 140 q 833 76 819 92 q 873 52 847 59 l 939 32 l 941 -2 q 757 0 850 0 q 517 -2 634 0 l 514 32 l 581 52 q 601 62 595 56 q 607 80 607 68 q 600 116 607 94 q 581 174 593 138 l 536 301 l 258 301 m 404 690 q 378 617 392 655 l 285 372 l 511 372 l 428 616 q 404 690 415 655 m 281 1056 l 281 1139 l 661 1139 l 661 1056 l 281 1056 m 186 949 z "},"Ă":{"ha":930,"x_min":-39,"x_max":941,"o":"m 258 301 l 210 174 q 188 114 195 137 q 180 79 180 92 q 186 62 180 68 q 205 52 192 56 l 270 33 l 272 -2 q 112 0 174 0 q -35 -2 47 0 l -39 32 l 34 54 q 72 78 60 61 q 99 131 84 96 l 437 954 l 510 964 l 802 140 q 833 76 819 92 q 873 52 847 59 l 939 32 l 941 -2 q 757 0 850 0 q 517 -2 634 0 l 514 32 l 581 52 q 601 62 595 56 q 607 80 607 68 q 600 116 607 94 q 581 174 593 138 l 536 301 l 258 301 m 404 690 q 378 617 392 655 l 285 372 l 511 372 l 428 616 q 404 690 415 655 m 326 1236 q 374 1152 336 1181 q 473 1123 412 1123 q 571 1152 534 1123 q 622 1231 608 1180 l 670 1236 q 617 1078 670 1138 q 468 1019 564 1019 q 327 1072 378 1019 q 277 1231 277 1124 l 326 1236 m 186 949 z "},"Å":{"ha":930,"x_min":-39,"x_max":941,"o":"m 258 301 l 210 174 q 188 114 195 137 q 180 79 180 92 q 186 62 180 68 q 205 52 192 56 l 270 33 l 272 -2 q 112 0 174 0 q -35 -2 47 0 l -39 32 l 34 54 q 72 78 60 61 q 99 131 84 96 l 437 954 l 510 964 l 802 140 q 833 76 819 92 q 873 52 847 59 l 939 32 l 941 -2 q 757 0 850 0 q 517 -2 634 0 l 514 32 l 581 52 q 601 62 595 56 q 607 80 607 68 q 600 116 607 94 q 581 174 593 138 l 536 301 l 258 301 m 404 690 q 378 617 392 655 l 285 372 l 511 372 l 428 616 q 404 690 415 655 m 468 996 q 359 1026 399 996 q 318 1114 318 1057 q 364 1209 318 1173 q 475 1245 410 1245 q 582 1212 539 1245 q 625 1121 625 1178 q 581 1029 625 1063 q 468 996 536 996 m 471 1040 q 519 1059 500 1040 q 538 1116 538 1077 q 520 1178 538 1156 q 471 1200 501 1200 q 423 1181 441 1200 q 404 1123 404 1162 q 423 1062 404 1084 q 471 1040 441 1040 m 186 949 z "},"Ǻ":{"ha":930,"x_min":-39,"x_max":941,"o":"m 258 301 l 210 174 q 188 114 195 137 q 180 79 180 92 q 186 62 180 68 q 205 52 192 56 l 270 33 l 272 -2 q 112 0 174 0 q -35 -2 47 0 l -39 32 l 34 54 q 72 78 60 61 q 99 131 84 96 l 437 954 l 510 964 l 802 140 q 833 76 819 92 q 873 52 847 59 l 939 32 l 941 -2 q 757 0 850 0 q 517 -2 634 0 l 514 32 l 581 52 q 601 62 595 56 q 607 80 607 68 q 600 116 607 94 q 581 174 593 138 l 536 301 l 258 301 m 404 690 q 378 617 392 655 l 285 372 l 511 372 l 428 616 q 404 690 415 655 m 473 989 q 368 1019 407 989 q 329 1103 329 1048 q 373 1194 329 1160 q 479 1228 417 1228 q 581 1196 541 1228 q 622 1109 622 1164 q 580 1022 622 1055 q 473 989 538 989 m 475 1032 q 522 1050 504 1032 q 540 1105 540 1067 q 522 1164 540 1143 q 475 1185 504 1185 q 429 1167 447 1185 q 412 1112 412 1149 q 429 1053 412 1074 q 475 1032 447 1032 m 646 1337 l 356 1230 l 337 1262 l 551 1430 l 646 1345 l 646 1337 z "},"Ą":{"ha":930,"x_min":-39,"x_max":941,"o":"m 707 0 q 593 -40 628 0 q 557 -138 557 -81 q 600 -230 557 -199 q 711 -261 642 -261 q 740 -260 722 -261 l 745 -295 q 567 -332 636 -332 q 438 -295 481 -332 q 395 -197 395 -258 q 568 33 395 -73 q 607 77 607 57 q 600 116 607 94 q 581 174 593 138 l 536 301 l 258 301 l 210 174 q 188 114 195 137 q 180 79 180 92 q 186 62 180 68 q 205 52 192 56 l 270 33 l 272 -2 q 112 0 174 0 q -35 -2 47 0 l -39 32 l 34 54 q 72 78 60 61 q 99 131 84 96 l 437 954 l 510 964 l 802 140 q 833 76 819 92 q 873 52 847 59 l 939 32 l 941 -2 q 757 0 850 0 l 707 0 m 404 690 q 378 617 392 655 l 285 372 l 511 372 l 428 616 q 404 690 415 655 z "},"Æ":{"ha":1286,"x_min":-50,"x_max":1223,"o":"m 260 -2 q 98 0 159 0 q 26 0 66 0 q -47 -2 -14 -1 l -50 32 l 21 54 q 48 65 37 58 q 67 80 59 71 q 82 102 75 90 q 98 130 90 114 l 486 857 q 491 868 490 865 q 492 873 492 871 q 479 887 492 883 l 384 915 l 382 949 q 474 947 429 948 q 562 947 519 947 l 875 947 q 1032 947 951 947 q 1203 949 1114 948 l 1208 944 l 1166 718 l 1129 713 l 1086 878 l 837 878 l 837 504 l 860 504 q 921 504 890 504 q 987 505 952 505 q 1010 524 1004 506 l 1034 616 l 1079 618 q 1077 471 1077 519 q 1079 326 1077 424 l 1034 323 l 1009 418 q 988 437 1004 437 q 922 438 954 438 q 859 439 890 439 l 837 439 l 837 220 q 837 145 837 182 q 838 72 838 109 l 1096 72 l 1181 250 l 1223 256 l 1206 3 l 1202 -2 q 873 0 1033 0 l 707 0 q 526 -2 618 0 l 523 32 l 614 57 q 632 78 631 62 q 633 139 633 105 q 633 213 633 172 l 633 439 l 352 439 l 204 146 q 183 103 191 120 q 176 75 176 86 q 181 61 176 66 q 198 52 186 56 l 258 33 l 260 -2 m 633 878 l 574 878 l 385 504 l 633 504 l 633 878 z "},"Ǽ":{"ha":1286,"x_min":-50,"x_max":1223,"o":"m 260 -2 q 98 0 159 0 q 26 0 66 0 q -47 -2 -14 -1 l -50 32 l 21 54 q 48 65 37 58 q 67 80 59 71 q 82 102 75 90 q 98 130 90 114 l 486 857 q 491 868 490 865 q 492 873 492 871 q 479 887 492 883 l 384 915 l 382 949 q 474 947 429 948 q 562 947 519 947 l 875 947 q 1032 947 951 947 q 1203 949 1114 948 l 1208 944 l 1166 718 l 1129 713 l 1086 878 l 837 878 l 837 504 l 860 504 q 921 504 890 504 q 987 505 952 505 q 1010 524 1004 506 l 1034 616 l 1079 618 q 1077 471 1077 519 q 1079 326 1077 424 l 1034 323 l 1009 418 q 988 437 1004 437 q 922 438 954 438 q 859 439 890 439 l 837 439 l 837 220 q 837 145 837 182 q 838 72 838 109 l 1096 72 l 1181 250 l 1223 256 l 1206 3 l 1202 -2 q 873 0 1033 0 l 707 0 q 526 -2 618 0 l 523 32 l 614 57 q 632 78 631 62 q 633 139 633 105 q 633 213 633 172 l 633 439 l 352 439 l 204 146 q 183 103 191 120 q 176 75 176 86 q 181 61 176 66 q 198 52 186 56 l 258 33 l 260 -2 m 633 878 l 574 878 l 385 504 l 633 504 l 633 878 m 991 1117 l 669 999 l 648 1034 l 886 1221 l 991 1127 l 991 1117 m 515 949 z "},"Ć":{"ha":916,"x_min":67,"x_max":869,"o":"m 812 693 l 775 687 l 724 882 q 608 899 670 899 q 376 786 458 899 q 294 492 294 674 q 390 183 294 298 q 659 68 487 68 q 860 106 754 68 l 869 68 q 562 -24 733 -24 q 204 109 340 -24 q 67 461 67 243 q 217 829 67 694 q 608 965 367 965 q 852 937 728 965 l 857 930 l 812 693 m 764 1117 l 442 999 l 421 1034 l 659 1221 l 764 1127 l 764 1117 m 288 949 z "},"Ĉ":{"ha":916,"x_min":67,"x_max":869,"o":"m 812 693 l 775 687 l 724 882 q 608 899 670 899 q 376 786 458 899 q 294 492 294 674 q 390 183 294 298 q 659 68 487 68 q 860 106 754 68 l 869 68 q 562 -24 733 -24 q 204 109 340 -24 q 67 461 67 243 q 217 829 67 694 q 608 965 367 965 q 852 937 728 965 l 857 930 l 812 693 m 573 1099 l 353 999 l 332 1034 l 516 1204 l 630 1204 l 814 1034 l 793 999 l 573 1099 m 288 949 z "},"Č":{"ha":916,"x_min":67,"x_max":869,"o":"m 812 693 l 775 687 l 724 882 q 608 899 670 899 q 376 786 458 899 q 294 492 294 674 q 390 183 294 298 q 659 68 487 68 q 860 106 754 68 l 869 68 q 562 -24 733 -24 q 204 109 340 -24 q 67 461 67 243 q 217 829 67 694 q 608 965 367 965 q 852 937 728 965 l 857 930 l 812 693 m 573 1118 l 793 1217 l 814 1182 l 630 1012 l 516 1012 l 332 1182 l 353 1217 l 573 1118 m 288 949 z "},"Ċ":{"ha":916,"x_min":67,"x_max":869,"o":"m 812 693 l 775 687 l 724 882 q 608 899 670 899 q 376 786 458 899 q 294 492 294 674 q 390 183 294 298 q 659 68 487 68 q 860 106 754 68 l 869 68 q 562 -24 733 -24 q 204 109 340 -24 q 67 461 67 243 q 217 829 67 694 q 608 965 367 965 q 852 937 728 965 l 857 930 l 812 693 m 670 1126 q 642 1057 670 1084 q 570 1030 614 1030 q 502 1055 528 1030 q 475 1121 475 1080 q 503 1190 475 1164 q 576 1215 531 1215 q 644 1192 618 1215 q 670 1126 670 1168 m 288 949 z "},"Ç":{"ha":916,"x_min":67,"x_max":869,"o":"m 440 -130 l 522 -23 q 193 120 318 -11 q 67 461 67 251 q 217 829 67 694 q 608 965 367 965 q 852 937 728 965 l 857 930 l 812 693 l 775 687 l 724 882 q 608 899 670 899 q 376 786 458 899 q 294 492 294 674 q 390 183 294 298 q 659 68 487 68 q 860 106 754 68 l 869 68 q 585 -24 742 -18 l 549 -71 q 629 -162 629 -105 q 484 -335 629 -238 l 458 -307 q 525 -207 525 -253 q 443 -136 525 -157 l 440 -130 z "},"Ď":{"ha":1097,"x_min":59,"x_max":1028,"o":"m 243 0 q 62 -2 155 0 l 59 32 l 150 57 q 168 78 168 62 q 169 139 169 105 q 170 213 170 172 l 170 753 q 169 815 170 787 q 168 866 169 843 q 152 888 168 884 l 61 915 l 59 949 q 241 947 154 947 q 381 950 314 947 q 520 954 448 954 q 901 845 773 954 q 1028 524 1028 737 q 887 135 1028 273 q 489 -4 745 -4 q 363 -2 418 -4 q 243 0 309 0 m 373 69 q 437 61 406 63 q 500 60 468 60 q 724 163 647 60 q 800 479 800 267 q 727 786 800 686 q 496 886 654 886 q 373 881 438 886 l 373 69 m 513 1118 l 733 1217 l 755 1182 l 570 1012 l 456 1012 l 272 1182 l 294 1217 l 513 1118 m 229 949 z "},"Đ":{"ha":1097,"x_min":59,"x_max":1028,"o":"m 243 0 q 62 -2 155 0 l 59 32 l 150 57 q 168 78 168 62 q 169 139 169 105 q 170 213 170 172 l 170 465 l 61 465 l 61 536 l 170 536 l 170 753 q 169 815 170 787 q 168 866 169 843 q 152 888 168 884 l 61 915 l 59 949 q 241 947 154 947 q 381 950 314 947 q 520 954 448 954 q 901 845 773 954 q 1028 524 1028 737 q 887 135 1028 273 q 489 -4 745 -4 q 363 -2 418 -4 q 243 0 309 0 m 373 69 q 437 61 406 63 q 500 60 468 60 q 724 163 647 60 q 800 479 800 267 q 727 786 800 686 q 496 886 654 886 q 441 885 472 886 q 373 881 411 884 l 373 536 l 558 536 l 558 465 l 373 465 l 373 69 z "},"È":{"ha":836,"x_min":59,"x_max":772,"o":"m 239 947 l 411 947 q 753 949 576 947 l 758 944 l 715 718 l 679 713 l 635 878 l 373 878 l 373 517 l 410 517 q 536 519 469 517 q 559 537 554 519 l 584 630 l 629 632 q 627 485 627 534 q 629 340 627 437 l 584 336 l 559 432 q 538 451 553 450 q 409 452 469 452 l 373 452 l 373 220 q 374 72 373 145 l 646 72 l 731 250 l 772 256 l 756 3 l 751 -2 q 422 0 583 0 l 243 0 q 62 -2 155 0 l 59 32 l 150 57 q 168 78 167 62 q 169 139 169 105 q 170 213 170 172 l 170 753 q 169 815 170 787 q 168 866 169 843 q 152 888 168 884 l 61 915 l 59 949 q 239 947 154 947 m 241 1127 l 347 1221 l 584 1034 l 563 999 l 241 1117 l 241 1127 m 147 949 z "},"É":{"ha":836,"x_min":59,"x_max":772,"o":"m 239 947 l 411 947 q 753 949 576 947 l 758 944 l 715 718 l 679 713 l 635 878 l 373 878 l 373 517 l 410 517 q 536 519 469 517 q 559 537 554 519 l 584 630 l 629 632 q 627 485 627 534 q 629 340 627 437 l 584 336 l 559 432 q 538 451 553 450 q 409 452 469 452 l 373 452 l 373 220 q 374 72 373 145 l 646 72 l 731 250 l 772 256 l 756 3 l 751 -2 q 422 0 583 0 l 243 0 q 62 -2 155 0 l 59 32 l 150 57 q 168 78 167 62 q 169 139 169 105 q 170 213 170 172 l 170 753 q 169 815 170 787 q 168 866 169 843 q 152 888 168 884 l 61 915 l 59 949 q 239 947 154 947 m 623 1117 l 301 999 l 280 1034 l 517 1221 l 623 1127 l 623 1117 m 147 949 z "},"Ê":{"ha":836,"x_min":59,"x_max":772,"o":"m 239 947 l 411 947 q 753 949 576 947 l 758 944 l 715 718 l 679 713 l 635 878 l 373 878 l 373 517 l 410 517 q 536 519 469 517 q 559 537 554 519 l 584 630 l 629 632 q 627 485 627 534 q 629 340 627 437 l 584 336 l 559 432 q 538 451 553 450 q 409 452 469 452 l 373 452 l 373 220 q 374 72 373 145 l 646 72 l 731 250 l 772 256 l 756 3 l 751 -2 q 422 0 583 0 l 243 0 q 62 -2 155 0 l 59 32 l 150 57 q 168 78 167 62 q 169 139 169 105 q 170 213 170 172 l 170 753 q 169 815 170 787 q 168 866 169 843 q 152 888 168 884 l 61 915 l 59 949 q 239 947 154 947 m 432 1099 l 212 999 l 191 1034 l 375 1204 l 489 1204 l 673 1034 l 652 999 l 432 1099 m 147 949 z "},"Ě":{"ha":836,"x_min":59,"x_max":772,"o":"m 239 947 l 411 947 q 753 949 576 947 l 758 944 l 715 718 l 679 713 l 635 878 l 373 878 l 373 517 l 410 517 q 536 519 469 517 q 559 537 554 519 l 584 630 l 629 632 q 627 485 627 534 q 629 340 627 437 l 584 336 l 559 432 q 538 451 553 450 q 409 452 469 452 l 373 452 l 373 220 q 374 72 373 145 l 646 72 l 731 250 l 772 256 l 756 3 l 751 -2 q 422 0 583 0 l 243 0 q 62 -2 155 0 l 59 32 l 150 57 q 168 78 167 62 q 169 139 169 105 q 170 213 170 172 l 170 753 q 169 815 170 787 q 168 866 169 843 q 152 888 168 884 l 61 915 l 59 949 q 239 947 154 947 m 432 1118 l 652 1217 l 673 1182 l 489 1012 l 375 1012 l 191 1182 l 212 1217 l 432 1118 m 147 949 z "},"Ë":{"ha":836,"x_min":59,"x_max":772,"o":"m 239 947 l 411 947 q 753 949 576 947 l 758 944 l 715 718 l 679 713 l 635 878 l 373 878 l 373 517 l 410 517 q 536 519 469 517 q 559 537 554 519 l 584 630 l 629 632 q 627 485 627 534 q 629 340 627 437 l 584 336 l 559 432 q 538 451 553 450 q 409 452 469 452 l 373 452 l 373 220 q 374 72 373 145 l 646 72 l 731 250 l 772 256 l 756 3 l 751 -2 q 422 0 583 0 l 243 0 q 62 -2 155 0 l 59 32 l 150 57 q 168 78 167 62 q 169 139 169 105 q 170 213 170 172 l 170 753 q 169 815 170 787 q 168 866 169 843 q 152 888 168 884 l 61 915 l 59 949 q 239 947 154 947 m 380 1122 q 354 1056 380 1081 q 288 1031 329 1031 q 224 1055 249 1031 q 200 1116 200 1078 q 226 1181 200 1158 q 293 1204 252 1204 q 356 1183 332 1204 q 380 1122 380 1162 m 664 1122 q 638 1056 664 1081 q 572 1031 612 1031 q 509 1055 533 1031 q 484 1116 484 1078 q 510 1181 484 1158 q 576 1204 535 1204 q 640 1183 616 1204 q 664 1122 664 1162 m 147 949 z "},"Ē":{"ha":836,"x_min":59,"x_max":772,"o":"m 239 947 l 411 947 q 753 949 576 947 l 758 944 l 715 718 l 679 713 l 635 878 l 373 878 l 373 517 l 410 517 q 536 519 469 517 q 559 537 554 519 l 584 630 l 629 632 q 627 485 627 534 q 629 340 627 437 l 584 336 l 559 432 q 538 451 553 450 q 409 452 469 452 l 373 452 l 373 220 q 374 72 373 145 l 646 72 l 731 250 l 772 256 l 756 3 l 751 -2 q 422 0 583 0 l 243 0 q 62 -2 155 0 l 59 32 l 150 57 q 168 78 167 62 q 169 139 169 105 q 170 213 170 172 l 170 753 q 169 815 170 787 q 168 866 169 843 q 152 888 168 884 l 61 915 l 59 949 q 239 947 154 947 m 241 1056 l 241 1139 l 622 1139 l 622 1056 l 241 1056 m 147 949 z "},"Ĕ":{"ha":836,"x_min":59,"x_max":772,"o":"m 239 947 l 411 947 q 753 949 576 947 l 758 944 l 715 718 l 679 713 l 635 878 l 373 878 l 373 517 l 410 517 q 536 519 469 517 q 559 537 554 519 l 584 630 l 629 632 q 627 485 627 534 q 629 340 627 437 l 584 336 l 559 432 q 538 451 553 450 q 409 452 469 452 l 373 452 l 373 220 q 374 72 373 145 l 646 72 l 731 250 l 772 256 l 756 3 l 751 -2 q 422 0 583 0 l 243 0 q 62 -2 155 0 l 59 32 l 150 57 q 168 78 167 62 q 169 139 169 105 q 170 213 170 172 l 170 753 q 169 815 170 787 q 168 866 169 843 q 152 888 168 884 l 61 915 l 59 949 q 239 947 154 947 m 287 1236 q 335 1152 297 1181 q 433 1123 373 1123 q 532 1152 494 1123 q 583 1231 569 1180 l 631 1236 q 578 1078 631 1138 q 429 1019 525 1019 q 288 1072 338 1019 q 237 1231 237 1124 l 287 1236 m 147 949 z "},"Ė":{"ha":836,"x_min":59,"x_max":772,"o":"m 239 947 l 411 947 q 753 949 576 947 l 758 944 l 715 718 l 679 713 l 635 878 l 373 878 l 373 517 l 410 517 q 536 519 469 517 q 559 537 554 519 l 584 630 l 629 632 q 627 485 627 534 q 629 340 627 437 l 584 336 l 559 432 q 538 451 553 450 q 409 452 469 452 l 373 452 l 373 220 q 374 72 373 145 l 646 72 l 731 250 l 772 256 l 756 3 l 751 -2 q 422 0 583 0 l 243 0 q 62 -2 155 0 l 59 32 l 150 57 q 168 78 167 62 q 169 139 169 105 q 170 213 170 172 l 170 753 q 169 815 170 787 q 168 866 169 843 q 152 888 168 884 l 61 915 l 59 949 q 239 947 154 947 m 529 1126 q 501 1057 529 1084 q 429 1030 473 1030 q 361 1055 387 1030 q 334 1121 334 1080 q 362 1190 334 1164 q 435 1215 390 1215 q 503 1192 477 1215 q 529 1126 529 1168 m 147 949 z "},"Ę":{"ha":836,"x_min":59,"x_max":772,"o":"m 239 947 l 411 947 q 753 949 576 947 l 758 944 l 715 718 l 679 713 l 635 878 l 373 878 l 373 517 l 410 517 q 536 519 469 517 q 559 537 554 519 l 584 630 l 629 632 q 627 485 627 534 q 629 340 627 437 l 584 336 l 559 432 q 538 451 553 450 q 409 452 469 452 l 373 452 l 373 220 q 374 72 373 145 l 646 72 l 731 250 l 772 256 l 756 3 l 751 -2 l 717 -1 q 613 -41 652 -1 q 573 -138 573 -81 q 615 -230 573 -199 q 727 -261 658 -261 q 755 -260 736 -261 l 760 -295 q 582 -332 651 -332 q 453 -297 496 -332 q 410 -201 410 -261 q 576 0 410 -95 l 243 0 q 62 -2 155 0 l 59 32 l 150 57 q 168 78 167 62 q 169 139 169 105 q 170 213 170 172 l 170 753 q 169 815 170 787 q 168 866 169 843 q 152 888 168 884 l 61 915 l 59 949 q 239 947 154 947 z "},"Ĝ":{"ha":1028,"x_min":67,"x_max":996,"o":"m 834 699 l 796 694 l 749 881 q 616 899 692 899 q 379 786 464 899 q 294 476 294 673 q 379 155 294 270 q 618 39 465 39 q 697 45 655 39 l 697 224 q 697 286 697 258 q 696 336 696 313 q 679 359 695 354 l 587 385 l 585 419 q 793 417 681 417 q 992 419 909 417 l 996 385 l 916 363 q 898 342 899 358 q 897 287 897 315 q 897 227 897 259 l 897 13 l 892 8 q 614 -25 746 -25 q 217 101 368 -25 q 67 453 67 227 q 217 829 67 693 q 627 965 368 965 q 873 937 752 965 l 878 931 l 834 699 m 590 1099 l 370 999 l 349 1034 l 533 1204 l 647 1204 l 831 1034 l 810 999 l 590 1099 m 305 949 z "},"Ğ":{"ha":1028,"x_min":67,"x_max":996,"o":"m 834 699 l 796 694 l 749 881 q 616 899 692 899 q 379 786 464 899 q 294 476 294 673 q 379 155 294 270 q 618 39 465 39 q 697 45 655 39 l 697 224 q 697 286 697 258 q 696 336 696 313 q 679 359 695 354 l 587 385 l 585 419 q 793 417 681 417 q 992 419 909 417 l 996 385 l 916 363 q 898 342 899 358 q 897 287 897 315 q 897 227 897 259 l 897 13 l 892 8 q 614 -25 746 -25 q 217 101 368 -25 q 67 453 67 227 q 217 829 67 693 q 627 965 368 965 q 873 937 752 965 l 878 931 l 834 699 m 445 1236 q 493 1152 455 1181 q 591 1123 531 1123 q 690 1152 652 1123 q 741 1231 727 1180 l 789 1236 q 736 1078 789 1138 q 587 1019 683 1019 q 446 1072 496 1019 q 395 1231 395 1124 l 445 1236 m 305 949 z "},"Ġ":{"ha":1028,"x_min":67,"x_max":996,"o":"m 834 699 l 796 694 l 749 881 q 616 899 692 899 q 379 786 464 899 q 294 476 294 673 q 379 155 294 270 q 618 39 465 39 q 697 45 655 39 l 697 224 q 697 286 697 258 q 696 336 696 313 q 679 359 695 354 l 587 385 l 585 419 q 793 417 681 417 q 992 419 909 417 l 996 385 l 916 363 q 898 342 899 358 q 897 287 897 315 q 897 227 897 259 l 897 13 l 892 8 q 614 -25 746 -25 q 217 101 368 -25 q 67 453 67 227 q 217 829 67 693 q 627 965 368 965 q 873 937 752 965 l 878 931 l 834 699 m 687 1126 q 659 1057 687 1084 q 587 1030 631 1030 q 519 1055 545 1030 q 492 1121 492 1080 q 520 1190 492 1164 q 593 1215 548 1215 q 661 1192 635 1215 q 687 1126 687 1168 m 305 949 z "},"Ģ":{"ha":1028,"x_min":67,"x_max":996,"o":"m 834 699 l 796 694 l 749 881 q 616 899 692 899 q 379 786 464 899 q 294 476 294 673 q 379 155 294 270 q 618 39 465 39 q 697 45 655 39 l 697 224 q 697 286 697 258 q 696 336 696 313 q 679 359 695 354 l 587 385 l 585 419 q 793 417 681 417 q 992 419 909 417 l 996 385 l 916 363 q 898 342 899 358 q 897 287 897 315 q 897 227 897 259 l 897 13 l 892 8 q 614 -25 746 -25 q 217 101 368 -25 q 67 453 67 227 q 217 829 67 693 q 627 965 368 965 q 873 937 752 965 l 878 931 l 834 699 m 492 -315 q 558 -201 558 -260 q 500 -132 558 -151 q 506 -100 500 -115 q 523 -76 512 -86 q 548 -60 534 -66 q 579 -54 563 -54 q 641 -79 618 -54 q 665 -144 665 -103 q 519 -339 665 -248 l 492 -315 z "},"Ĥ":{"ha":1149,"x_min":59,"x_max":1090,"o":"m 373 465 l 373 213 q 374 79 373 133 q 392 56 375 60 l 471 32 l 473 -2 q 274 0 389 0 q 62 -2 157 0 l 59 32 l 150 57 q 168 78 168 62 q 170 213 170 133 l 170 753 q 168 866 170 821 q 152 888 168 884 l 61 915 l 59 949 q 268 947 153 947 q 469 949 386 947 l 473 915 l 392 892 q 374 871 375 887 q 373 756 373 822 l 373 536 l 777 536 l 777 756 q 776 871 777 822 q 758 892 775 887 l 679 915 l 677 949 q 880 947 763 947 q 1087 949 995 947 l 1090 915 l 998 888 q 981 866 983 884 q 980 753 980 821 l 980 213 q 981 78 980 133 q 1000 57 983 62 l 1088 32 l 1090 -2 q 876 0 994 0 q 680 -2 762 0 l 677 32 l 758 56 q 776 79 775 60 q 777 213 777 133 l 777 465 l 373 465 m 574 1099 l 355 999 l 333 1034 l 517 1204 l 631 1204 l 816 1034 l 794 999 l 574 1099 m 290 949 z "},"Ħ":{"ha":1149,"x_min":58,"x_max":1090,"o":"m 373 457 l 373 213 q 374 79 373 133 q 392 56 375 60 l 471 32 l 473 -2 q 274 0 389 0 q 62 -2 157 0 l 59 32 l 150 57 q 168 78 168 62 q 170 213 170 133 l 170 675 l 58 675 l 58 745 l 170 745 l 170 753 q 168 866 170 821 q 152 888 168 884 l 61 915 l 59 949 q 268 947 153 947 q 469 949 386 947 l 473 915 l 392 892 q 374 871 375 887 q 373 756 373 822 l 373 745 l 777 745 l 777 756 q 776 871 777 822 q 758 892 775 887 l 679 915 l 677 949 q 880 947 763 947 q 1087 949 995 947 l 1090 915 l 998 888 q 981 866 983 884 q 980 753 980 821 l 980 745 l 1090 745 l 1090 675 l 980 675 l 980 213 q 981 78 980 133 q 1000 57 983 62 l 1088 32 l 1090 -2 q 876 0 994 0 q 680 -2 762 0 l 677 32 l 758 56 q 776 79 775 60 q 777 213 777 133 l 777 457 l 373 457 m 777 529 l 777 675 l 373 675 l 373 529 l 777 529 z "},"Ì":{"ha":543,"x_min":-13,"x_max":483,"o":"m 373 213 q 373 139 373 172 q 374 79 374 106 q 397 56 375 62 l 481 32 l 483 -2 q 274 0 389 0 q 62 -2 155 0 l 59 32 l 150 57 q 168 78 167 62 q 169 139 169 105 q 170 213 170 172 l 170 753 q 169 815 170 787 q 168 866 169 843 q 152 888 168 884 l 61 915 l 59 949 q 268 947 153 947 q 479 949 386 947 l 483 915 l 392 890 q 374 869 376 886 q 373 817 374 845 q 373 756 373 789 l 373 213 m 81 1127 l 186 1221 l 424 1034 l 403 999 l 81 1117 l 81 1127 m -13 949 z "},"Í":{"ha":543,"x_min":-13,"x_max":483,"o":"m 373 213 q 373 139 373 172 q 374 79 374 106 q 397 56 375 62 l 481 32 l 483 -2 q 274 0 389 0 q 62 -2 155 0 l 59 32 l 150 57 q 168 78 167 62 q 169 139 169 105 q 170 213 170 172 l 170 753 q 169 815 170 787 q 168 866 169 843 q 152 888 168 884 l 61 915 l 59 949 q 268 947 153 947 q 479 949 386 947 l 483 915 l 392 890 q 374 869 376 886 q 373 817 374 845 q 373 756 373 789 l 373 213 m 463 1117 l 141 999 l 120 1034 l 357 1221 l 463 1127 l 463 1117 m -13 949 z "},"Î":{"ha":543,"x_min":-13,"x_max":513,"o":"m 373 213 q 373 139 373 172 q 374 79 374 106 q 397 56 375 62 l 481 32 l 483 -2 q 274 0 389 0 q 62 -2 155 0 l 59 32 l 150 57 q 168 78 167 62 q 169 139 169 105 q 170 213 170 172 l 170 753 q 169 815 170 787 q 168 866 169 843 q 152 888 168 884 l 61 915 l 59 949 q 268 947 153 947 q 479 949 386 947 l 483 915 l 392 890 q 374 869 376 886 q 373 817 374 845 q 373 756 373 789 l 373 213 m 272 1099 l 52 999 l 31 1034 l 215 1204 l 329 1204 l 513 1034 l 492 999 l 272 1099 m -13 949 z "},"Ĩ":{"ha":543,"x_min":-13,"x_max":507,"o":"m 373 213 q 373 139 373 172 q 374 79 374 106 q 397 56 375 62 l 481 32 l 483 -2 q 274 0 389 0 q 62 -2 155 0 l 59 32 l 150 57 q 168 78 167 62 q 169 139 169 105 q 170 213 170 172 l 170 753 q 169 815 170 787 q 168 866 169 843 q 152 888 168 884 l 61 915 l 59 949 q 268 947 153 947 q 479 949 386 947 l 483 915 l 392 890 q 374 869 376 886 q 373 817 374 845 q 373 756 373 789 l 373 213 m 507 1177 q 352 1033 428 1033 q 304 1043 326 1033 q 256 1069 283 1053 q 234 1082 243 1076 q 216 1091 224 1087 q 199 1097 207 1095 q 182 1099 191 1099 q 145 1088 162 1099 q 89 1034 129 1077 l 54 1063 q 136 1172 102 1140 q 207 1203 170 1203 q 245 1196 227 1203 q 297 1170 264 1189 q 323 1155 312 1162 q 343 1145 334 1149 q 361 1139 353 1141 q 378 1137 369 1137 q 415 1147 399 1137 q 470 1202 430 1158 l 507 1177 m -13 949 z "},"Ï":{"ha":543,"x_min":-13,"x_max":504,"o":"m 373 213 q 373 139 373 172 q 374 79 374 106 q 397 56 375 62 l 481 32 l 483 -2 q 274 0 389 0 q 62 -2 155 0 l 59 32 l 150 57 q 168 78 167 62 q 169 139 169 105 q 170 213 170 172 l 170 753 q 169 815 170 787 q 168 866 169 843 q 152 888 168 884 l 61 915 l 59 949 q 268 947 153 947 q 479 949 386 947 l 483 915 l 392 890 q 374 869 376 886 q 373 817 374 845 q 373 756 373 789 l 373 213 m 220 1122 q 194 1056 220 1081 q 128 1031 169 1031 q 64 1055 89 1031 q 40 1116 40 1078 q 66 1181 40 1158 q 133 1204 92 1204 q 196 1183 172 1204 q 220 1122 220 1162 m 504 1122 q 478 1056 504 1081 q 412 1031 452 1031 q 349 1055 373 1031 q 324 1116 324 1078 q 350 1181 324 1158 q 416 1204 375 1204 q 480 1183 456 1204 q 504 1122 504 1162 m -13 949 z "},"Ī":{"ha":543,"x_min":-13,"x_max":483,"o":"m 373 213 q 373 139 373 172 q 374 79 374 106 q 397 56 375 62 l 481 32 l 483 -2 q 274 0 389 0 q 62 -2 155 0 l 59 32 l 150 57 q 168 78 167 62 q 169 139 169 105 q 170 213 170 172 l 170 753 q 169 815 170 787 q 168 866 169 843 q 152 888 168 884 l 61 915 l 59 949 q 268 947 153 947 q 479 949 386 947 l 483 915 l 392 890 q 374 869 376 886 q 373 817 374 845 q 373 756 373 789 l 373 213 m 81 1056 l 81 1139 l 462 1139 l 462 1056 l 81 1056 m -13 949 z "},"Ĭ":{"ha":543,"x_min":-13,"x_max":483,"o":"m 373 213 q 373 139 373 172 q 374 79 374 106 q 397 56 375 62 l 481 32 l 483 -2 q 274 0 389 0 q 62 -2 155 0 l 59 32 l 150 57 q 168 78 167 62 q 169 139 169 105 q 170 213 170 172 l 170 753 q 169 815 170 787 q 168 866 169 843 q 152 888 168 884 l 61 915 l 59 949 q 268 947 153 947 q 479 949 386 947 l 483 915 l 392 890 q 374 869 376 886 q 373 817 374 845 q 373 756 373 789 l 373 213 m 127 1236 q 175 1152 137 1181 q 273 1123 213 1123 q 372 1152 334 1123 q 422 1231 409 1180 l 471 1236 q 418 1078 471 1138 q 269 1019 365 1019 q 128 1072 178 1019 q 77 1231 77 1124 l 127 1236 m -13 949 z "},"İ":{"ha":543,"x_min":-13,"x_max":483,"o":"m 373 213 q 373 139 373 172 q 374 79 374 106 q 397 56 375 62 l 481 32 l 483 -2 q 274 0 389 0 q 62 -2 155 0 l 59 32 l 150 57 q 168 78 167 62 q 169 139 169 105 q 170 213 170 172 l 170 753 q 169 815 170 787 q 168 866 169 843 q 152 888 168 884 l 61 915 l 59 949 q 268 947 153 947 q 479 949 386 947 l 483 915 l 392 890 q 374 869 376 886 q 373 817 374 845 q 373 756 373 789 l 373 213 m 369 1126 q 341 1057 369 1084 q 269 1030 313 1030 q 201 1055 227 1030 q 174 1121 174 1080 q 202 1190 174 1164 q 275 1215 230 1215 q 343 1192 317 1215 q 369 1126 369 1168 m -13 949 z "},"Į":{"ha":546,"x_min":59,"x_max":486,"o":"m 373 213 q 373 139 373 172 q 374 79 374 106 q 397 56 375 62 l 481 32 l 483 -2 l 442 -1 q 339 -41 380 -1 q 299 -138 299 -81 q 341 -230 299 -199 q 452 -261 383 -261 q 481 -260 463 -261 l 486 -295 q 308 -332 377 -332 q 179 -297 222 -332 q 136 -201 136 -261 q 303 0 136 -95 l 274 0 q 62 -2 155 0 l 59 32 l 150 57 q 168 78 167 62 q 169 139 169 105 q 170 213 170 172 l 170 753 q 169 815 170 787 q 168 866 169 843 q 152 888 168 884 l 61 915 l 59 949 q 268 947 153 947 q 479 949 386 947 l 483 915 l 392 890 q 374 869 376 886 q 373 817 374 845 q 373 756 373 789 l 373 213 z "},"Ĳ":{"ha":1010,"x_min":59,"x_max":978,"o":"m 373 213 q 373 139 373 172 q 374 79 374 106 q 397 56 375 62 l 481 32 l 483 -2 q 274 0 389 0 q 62 -2 155 0 l 59 32 l 150 57 q 168 78 167 62 q 169 139 169 105 q 170 213 170 172 l 170 753 q 169 815 170 787 q 168 866 169 843 q 152 888 168 884 l 61 915 l 59 949 q 268 947 153 947 q 479 949 386 947 l 483 915 l 392 890 q 374 869 376 886 q 373 817 374 845 q 373 756 373 789 l 373 213 m 553 949 q 763 947 648 947 q 975 949 880 947 l 978 915 l 887 890 q 869 869 870 886 q 868 817 868 845 q 867 756 867 789 l 867 143 q 861 22 867 76 q 840 -75 855 -33 q 799 -152 825 -118 q 731 -212 772 -185 q 630 -258 689 -238 q 490 -294 570 -279 l 477 -254 q 580 -189 543 -224 q 635 -108 616 -153 q 660 -5 654 -62 q 665 123 665 52 l 665 753 q 664 815 665 787 q 663 866 664 843 q 647 888 663 884 l 555 915 l 553 949 z "},"Ĵ":{"ha":505,"x_min":-28,"x_max":503,"o":"m 48 949 q 258 947 143 947 q 469 949 375 947 l 473 915 l 382 890 q 363 869 365 886 q 362 817 363 845 q 362 756 362 789 l 362 143 q 356 22 362 76 q 335 -75 350 -33 q 294 -152 320 -118 q 225 -212 267 -185 q 124 -258 184 -238 q -15 -294 65 -279 l -28 -254 q 75 -189 38 -224 q 130 -108 111 -153 q 154 -5 149 -62 q 159 123 159 52 l 159 753 q 159 815 159 787 q 158 866 159 843 q 142 888 157 884 l 50 915 l 48 949 m 262 1099 l 42 999 l 20 1034 l 205 1204 l 319 1204 l 503 1034 l 481 999 l 262 1099 m -23 949 z "},"Ķ":{"ha":1015,"x_min":59,"x_max":1008,"o":"m 373 756 l 373 213 q 373 139 373 172 q 374 79 374 106 q 392 56 375 61 l 471 32 l 473 -2 q 274 0 389 0 q 62 -2 155 0 l 59 32 l 150 57 q 168 78 168 62 q 169 139 169 105 q 170 213 170 172 l 170 753 q 169 815 170 787 q 168 866 169 843 q 152 888 168 884 l 61 915 l 59 949 q 268 947 153 947 q 469 949 385 947 l 473 915 l 392 892 q 374 871 376 887 q 373 817 374 846 q 373 756 373 789 m 389 474 l 667 780 q 719 841 700 816 q 738 880 738 865 q 720 899 738 893 l 661 913 l 659 949 q 816 947 730 947 q 976 949 900 947 l 979 915 l 903 894 q 846 863 869 884 q 795 813 822 842 l 563 553 l 861 115 q 900 72 883 84 q 941 52 917 59 l 1006 32 l 1008 -2 q 853 0 933 0 q 692 -1 779 0 q 582 180 672 43 l 389 474 m 444 -315 q 510 -201 510 -260 q 452 -132 510 -151 q 458 -100 452 -115 q 475 -76 464 -86 q 500 -60 486 -66 q 531 -54 515 -54 q 593 -79 570 -54 q 616 -144 616 -103 q 471 -339 616 -248 l 444 -315 z "},"Ĺ":{"ha":801,"x_min":-13,"x_max":774,"o":"m 373 756 l 373 220 q 374 72 373 145 l 640 72 l 732 264 l 774 271 l 757 3 l 752 -2 q 425 0 585 0 l 256 0 q 69 -2 155 0 l 66 32 l 150 57 q 168 78 167 62 q 169 139 169 105 q 170 213 170 172 l 170 753 q 169 815 170 787 q 168 866 169 843 q 152 888 168 884 l 68 915 l 66 949 q 268 947 153 947 q 473 949 386 947 l 476 915 l 392 890 q 374 869 376 886 q 373 800 374 845 q 373 756 373 755 m 463 1117 l 141 999 l 120 1034 l 357 1221 l 463 1127 l 463 1117 m -13 949 z "},"Ľ":{"ha":801,"x_min":66,"x_max":774,"o":"m 373 756 l 373 220 q 374 72 373 145 l 640 72 l 732 264 l 774 271 l 757 3 l 752 -2 q 425 0 585 0 l 256 0 q 69 -2 155 0 l 66 32 l 150 57 q 168 78 167 62 q 169 139 169 105 q 170 213 170 172 l 170 753 q 169 815 170 787 q 168 866 169 843 q 152 888 168 884 l 68 915 l 66 949 q 268 947 153 947 q 473 949 386 947 l 476 915 l 392 890 q 374 869 376 886 q 373 800 374 845 q 373 756 373 755 m 533 638 q 606 781 606 711 q 536 879 606 843 q 559 937 536 916 q 621 959 583 959 q 688 930 662 959 q 713 850 713 901 q 561 609 713 721 l 533 638 z "},"Ļ":{"ha":801,"x_min":66,"x_max":774,"o":"m 373 756 l 373 220 q 374 72 373 145 l 640 72 l 732 264 l 774 271 l 757 3 l 752 -2 q 425 0 585 0 l 256 0 q 69 -2 155 0 l 66 32 l 150 57 q 168 78 167 62 q 169 139 169 105 q 170 213 170 172 l 170 753 q 169 815 170 787 q 168 866 169 843 q 152 888 168 884 l 68 915 l 66 949 q 268 947 153 947 q 473 949 386 947 l 476 915 l 392 890 q 374 869 376 886 q 373 800 374 845 q 373 756 373 755 m 347 -315 q 412 -201 412 -260 q 354 -132 412 -151 q 360 -100 354 -115 q 377 -76 366 -86 q 402 -60 388 -66 q 433 -54 417 -54 q 495 -79 472 -54 q 519 -144 519 -103 q 373 -339 519 -248 l 347 -315 z "},"Ł":{"ha":801,"x_min":62,"x_max":774,"o":"m 373 756 l 373 555 l 613 630 l 617 558 l 373 481 l 373 220 q 374 72 373 145 l 640 72 l 732 264 l 774 271 l 757 3 l 752 -2 q 425 0 585 0 l 243 0 q 69 -2 155 0 l 66 32 l 150 57 q 168 78 167 62 q 169 139 169 105 q 170 213 170 172 l 170 418 l 66 385 l 62 457 l 170 490 l 170 753 q 169 815 170 787 q 168 866 169 843 q 152 888 168 884 l 68 915 l 66 949 q 268 947 153 947 q 473 949 386 947 l 476 915 l 392 890 q 374 869 376 886 q 373 800 374 845 q 373 756 373 755 z "},"Ŀ":{"ha":801,"x_min":66,"x_max":774,"o":"m 373 756 l 373 220 q 374 72 373 145 l 640 72 l 732 264 l 774 271 l 757 3 l 752 -2 q 425 0 585 0 l 256 0 q 69 -2 155 0 l 66 32 l 150 57 q 168 78 167 62 q 169 139 169 105 q 170 213 170 172 l 170 753 q 169 815 170 787 q 168 866 169 843 q 152 888 168 884 l 68 915 l 66 949 q 268 947 153 947 q 473 949 386 947 l 476 915 l 392 890 q 374 869 376 886 q 373 800 374 845 q 373 756 373 755 m 774 503 q 745 428 774 456 q 669 399 715 399 q 599 426 627 399 q 571 496 571 453 q 600 571 571 544 q 676 598 629 598 q 746 573 719 598 q 774 503 774 549 z "},"Ń":{"ha":1050,"x_min":42,"x_max":1018,"o":"m 243 81 q 260 57 243 61 l 347 33 l 349 -2 q 198 0 257 0 q 45 -2 140 0 l 42 32 l 133 57 q 151 78 151 62 q 153 213 153 133 l 153 753 q 151 866 153 821 q 135 888 151 884 l 44 915 l 42 949 q 188 947 137 947 q 314 949 254 947 l 765 385 q 821 313 792 351 q 819 403 819 359 l 819 756 q 818 869 819 822 q 800 890 817 885 l 713 913 l 711 949 q 863 947 805 947 q 1015 949 923 947 l 1018 915 l 926 888 q 909 866 910 884 q 907 753 907 821 l 907 0 l 829 -7 l 295 662 q 240 734 271 692 q 241 642 241 684 l 241 213 q 243 81 241 133 m 724 1117 l 401 999 l 380 1034 l 618 1221 l 724 1127 l 724 1117 m 248 949 z "},"Ň":{"ha":1050,"x_min":42,"x_max":1018,"o":"m 243 81 q 260 57 243 61 l 347 33 l 349 -2 q 198 0 257 0 q 45 -2 140 0 l 42 32 l 133 57 q 151 78 151 62 q 153 213 153 133 l 153 753 q 151 866 153 821 q 135 888 151 884 l 44 915 l 42 949 q 188 947 137 947 q 314 949 254 947 l 765 385 q 821 313 792 351 q 819 403 819 359 l 819 756 q 818 869 819 822 q 800 890 817 885 l 713 913 l 711 949 q 863 947 805 947 q 1015 949 923 947 l 1018 915 l 926 888 q 909 866 910 884 q 907 753 907 821 l 907 0 l 829 -7 l 295 662 q 240 734 271 692 q 241 642 241 684 l 241 213 q 243 81 241 133 m 532 1118 l 752 1217 l 774 1182 l 589 1012 l 475 1012 l 291 1182 l 313 1217 l 532 1118 m 248 949 z "},"Ñ":{"ha":1050,"x_min":42,"x_max":1018,"o":"m 243 81 q 260 57 243 61 l 347 33 l 349 -2 q 198 0 257 0 q 45 -2 140 0 l 42 32 l 133 57 q 151 78 151 62 q 153 213 153 133 l 153 753 q 151 866 153 821 q 135 888 151 884 l 44 915 l 42 949 q 188 947 137 947 q 314 949 254 947 l 765 385 q 821 313 792 351 q 819 403 819 359 l 819 756 q 818 869 819 822 q 800 890 817 885 l 713 913 l 711 949 q 863 947 805 947 q 1015 949 923 947 l 1018 915 l 926 888 q 909 866 910 884 q 907 753 907 821 l 907 0 l 829 -7 l 295 662 q 240 734 271 692 q 241 642 241 684 l 241 213 q 243 81 241 133 m 767 1177 q 612 1033 688 1033 q 565 1043 587 1033 q 516 1069 543 1053 q 494 1082 504 1076 q 476 1091 485 1087 q 459 1097 467 1095 q 443 1099 451 1099 q 406 1088 422 1099 q 349 1034 389 1077 l 315 1063 q 396 1172 363 1140 q 467 1203 430 1203 q 506 1196 488 1203 q 557 1170 524 1189 q 584 1155 572 1162 q 604 1145 595 1149 q 621 1139 613 1141 q 638 1137 629 1137 q 675 1147 660 1137 q 730 1202 690 1158 l 767 1177 m 248 949 z "},"Ņ":{"ha":1050,"x_min":42,"x_max":1018,"o":"m 243 81 q 260 57 243 61 l 347 33 l 349 -2 q 198 0 257 0 q 45 -2 140 0 l 42 32 l 133 57 q 151 78 151 62 q 153 213 153 133 l 153 753 q 151 866 153 821 q 135 888 151 884 l 44 915 l 42 949 q 188 947 137 947 q 314 949 254 947 l 765 385 q 821 313 792 351 q 819 403 819 359 l 819 756 q 818 869 819 822 q 800 890 817 885 l 713 913 l 711 949 q 863 947 805 947 q 1015 949 923 947 l 1018 915 l 926 888 q 909 866 910 884 q 907 753 907 821 l 907 0 l 829 -7 l 295 662 q 240 734 271 692 q 241 642 241 684 l 241 213 q 243 81 241 133 m 446 -315 q 512 -201 512 -260 q 454 -132 512 -151 q 460 -100 454 -115 q 477 -76 466 -86 q 502 -60 488 -66 q 533 -54 517 -54 q 595 -79 572 -54 q 618 -144 618 -103 q 473 -339 618 -248 l 446 -315 z "},"Ò":{"ha":1151,"x_min":67,"x_max":1084,"o":"m 295 486 q 368 154 295 269 q 583 39 441 39 q 790 144 723 39 q 857 472 857 248 q 786 795 857 682 q 568 908 715 908 q 360 803 425 908 q 295 486 295 699 m 1084 495 q 946 118 1084 260 q 561 -25 808 -25 q 196 107 325 -25 q 67 464 67 239 q 206 835 67 699 q 591 972 345 972 q 956 844 827 972 q 1084 495 1084 716 m 385 1127 l 491 1221 l 728 1034 l 707 999 l 385 1117 l 385 1127 m 292 949 z "},"Ó":{"ha":1151,"x_min":67,"x_max":1084,"o":"m 295 486 q 368 154 295 269 q 583 39 441 39 q 790 144 723 39 q 857 472 857 248 q 786 795 857 682 q 568 908 715 908 q 360 803 425 908 q 295 486 295 699 m 1084 495 q 946 118 1084 260 q 561 -25 808 -25 q 196 107 325 -25 q 67 464 67 239 q 206 835 67 699 q 591 972 345 972 q 956 844 827 972 q 1084 495 1084 716 m 768 1117 l 446 999 l 425 1034 l 662 1221 l 768 1127 l 768 1117 m 292 949 z "},"Ô":{"ha":1151,"x_min":67,"x_max":1084,"o":"m 295 486 q 368 154 295 269 q 583 39 441 39 q 790 144 723 39 q 857 472 857 248 q 786 795 857 682 q 568 908 715 908 q 360 803 425 908 q 295 486 295 699 m 1084 495 q 946 118 1084 260 q 561 -25 808 -25 q 196 107 325 -25 q 67 464 67 239 q 206 835 67 699 q 591 972 345 972 q 956 844 827 972 q 1084 495 1084 716 m 576 1099 l 357 999 l 335 1034 l 519 1204 l 633 1204 l 818 1034 l 796 999 l 576 1099 m 292 949 z "},"Õ":{"ha":1151,"x_min":67,"x_max":1084,"o":"m 295 486 q 368 154 295 269 q 583 39 441 39 q 790 144 723 39 q 857 472 857 248 q 786 795 857 682 q 568 908 715 908 q 360 803 425 908 q 295 486 295 699 m 1084 495 q 946 118 1084 260 q 561 -25 808 -25 q 196 107 325 -25 q 67 464 67 239 q 206 835 67 699 q 591 972 345 972 q 956 844 827 972 q 1084 495 1084 716 m 811 1177 q 656 1033 732 1033 q 609 1043 631 1033 q 560 1069 587 1053 q 538 1082 548 1076 q 520 1091 529 1087 q 503 1097 511 1095 q 487 1099 495 1099 q 450 1088 467 1099 q 393 1034 433 1077 l 359 1063 q 440 1172 407 1140 q 511 1203 474 1203 q 550 1196 532 1203 q 602 1170 568 1189 q 628 1155 616 1162 q 648 1145 639 1149 q 665 1139 657 1141 q 682 1137 673 1137 q 719 1147 704 1137 q 774 1202 734 1158 l 811 1177 m 292 949 z "},"Ö":{"ha":1151,"x_min":67,"x_max":1084,"o":"m 295 486 q 368 154 295 269 q 583 39 441 39 q 790 144 723 39 q 857 472 857 248 q 786 795 857 682 q 568 908 715 908 q 360 803 425 908 q 295 486 295 699 m 1084 495 q 946 118 1084 260 q 561 -25 808 -25 q 196 107 325 -25 q 67 464 67 239 q 206 835 67 699 q 591 972 345 972 q 956 844 827 972 q 1084 495 1084 716 m 524 1122 q 499 1056 524 1081 q 433 1031 473 1031 q 369 1055 393 1031 q 345 1116 345 1078 q 370 1181 345 1158 q 437 1204 396 1204 q 500 1183 476 1204 q 524 1122 524 1162 m 808 1122 q 783 1056 808 1081 q 716 1031 757 1031 q 653 1055 677 1031 q 629 1116 629 1078 q 654 1181 629 1158 q 721 1204 680 1204 q 784 1183 760 1204 q 808 1122 808 1162 m 292 949 z "},"Ō":{"ha":1151,"x_min":67,"x_max":1084,"o":"m 295 486 q 368 154 295 269 q 583 39 441 39 q 790 144 723 39 q 857 472 857 248 q 786 795 857 682 q 568 908 715 908 q 360 803 425 908 q 295 486 295 699 m 1084 495 q 946 118 1084 260 q 561 -25 808 -25 q 196 107 325 -25 q 67 464 67 239 q 206 835 67 699 q 591 972 345 972 q 956 844 827 972 q 1084 495 1084 716 m 386 1056 l 386 1139 l 766 1139 l 766 1056 l 386 1056 m 292 949 z "},"Ŏ":{"ha":1151,"x_min":67,"x_max":1084,"o":"m 295 486 q 368 154 295 269 q 583 39 441 39 q 790 144 723 39 q 857 472 857 248 q 786 795 857 682 q 568 908 715 908 q 360 803 425 908 q 295 486 295 699 m 1084 495 q 946 118 1084 260 q 561 -25 808 -25 q 196 107 325 -25 q 67 464 67 239 q 206 835 67 699 q 591 972 345 972 q 956 844 827 972 q 1084 495 1084 716 m 431 1236 q 479 1152 441 1181 q 578 1123 517 1123 q 676 1152 639 1123 q 727 1231 713 1180 l 775 1236 q 722 1078 775 1138 q 573 1019 669 1019 q 432 1072 483 1019 q 382 1231 382 1124 l 431 1236 m 292 949 z "},"Ő":{"ha":1151,"x_min":67,"x_max":1084,"o":"m 295 486 q 368 154 295 269 q 583 39 441 39 q 790 144 723 39 q 857 472 857 248 q 786 795 857 682 q 568 908 715 908 q 360 803 425 908 q 295 486 295 699 m 1084 495 q 946 118 1084 260 q 561 -25 808 -25 q 196 107 325 -25 q 67 464 67 239 q 206 835 67 699 q 591 972 345 972 q 956 844 827 972 q 1084 495 1084 716 m 500 1204 l 651 1204 l 490 1009 l 439 1009 l 500 1204 m 701 1204 l 851 1204 l 685 1009 l 635 1009 l 701 1204 m 292 949 z "},"Ø":{"ha":1151,"x_min":67,"x_max":1084,"o":"m 1084 495 q 946 118 1084 260 q 561 -25 808 -25 q 284 39 396 -25 l 198 -73 l 140 -28 l 223 81 q 67 464 67 215 q 206 835 67 699 q 591 972 345 972 q 861 913 750 972 l 935 1010 l 996 968 l 923 873 q 1084 495 1084 742 m 583 39 q 790 144 723 39 q 857 472 857 248 q 817 734 857 630 l 370 151 q 583 39 444 39 m 295 486 q 334 225 295 329 l 779 806 q 568 908 708 908 q 360 803 425 908 q 295 486 295 699 z "},"Ǿ":{"ha":1151,"x_min":67,"x_max":1084,"o":"m 1084 495 q 946 118 1084 260 q 561 -25 808 -25 q 284 39 396 -25 l 198 -73 l 140 -28 l 223 81 q 67 464 67 215 q 206 835 67 699 q 591 972 345 972 q 861 913 750 972 l 935 1010 l 996 968 l 923 873 q 1084 495 1084 742 m 583 39 q 790 144 723 39 q 857 472 857 248 q 817 734 857 630 l 370 151 q 583 39 444 39 m 295 486 q 334 225 295 329 l 779 806 q 568 908 708 908 q 360 803 425 908 q 295 486 295 699 m 768 1117 l 446 999 l 425 1034 l 662 1221 l 768 1127 l 768 1117 m 292 949 z "},"Œ":{"ha":1374,"x_min":59,"x_max":1331,"o":"m 747 947 l 968 947 q 1312 949 1133 947 l 1316 944 l 1274 718 l 1238 713 l 1195 878 l 932 878 l 932 517 l 969 517 q 1096 519 1028 517 q 1119 537 1114 519 l 1143 630 l 1187 632 q 1185 485 1185 534 q 1187 340 1185 437 l 1143 336 l 1118 432 q 1097 451 1113 450 q 968 452 1028 452 l 932 452 l 932 220 q 934 72 932 145 l 1205 72 l 1291 250 l 1331 256 l 1315 3 l 1311 -2 q 980 0 1140 0 l 730 0 q 553 -22 648 -22 q 188 109 317 -22 q 59 464 59 240 q 198 833 59 697 q 583 968 337 968 q 747 947 669 968 m 559 904 q 352 800 416 904 q 287 486 287 696 q 360 157 287 271 q 575 43 433 43 q 728 88 668 43 q 729 213 729 151 l 729 753 q 728 850 729 809 q 559 904 662 904 z "},"Ŕ":{"ha":979,"x_min":59,"x_max":993,"o":"m 371 213 q 371 140 371 172 q 372 81 372 108 q 388 55 373 60 l 458 32 l 460 -2 q 274 0 385 0 q 62 -2 155 0 l 59 32 l 150 57 q 168 78 167 62 q 169 139 169 105 q 170 213 170 172 l 170 753 q 169 815 170 787 q 168 866 169 843 q 152 888 168 884 l 61 915 l 59 949 q 254 947 154 947 q 306 948 275 947 q 382 950 337 949 q 450 952 422 951 q 493 953 477 953 q 754 895 667 953 q 842 724 842 836 q 788 561 842 623 q 632 466 735 499 q 720 330 689 382 q 782 227 751 277 q 839 138 813 176 q 886 77 864 99 q 910 59 899 66 q 933 46 921 52 q 959 37 945 41 q 990 30 973 33 l 993 -5 q 841 -14 926 -14 q 746 -5 773 -14 q 698 20 719 3 q 641 83 667 44 q 585 172 614 123 q 525 277 556 222 q 460 387 494 333 q 444 413 450 403 q 431 428 437 423 q 417 436 425 433 q 399 439 410 438 l 371 439 l 371 213 m 371 498 q 436 496 407 496 q 577 545 532 496 q 622 696 622 593 q 579 842 622 796 q 445 888 536 888 q 411 886 429 888 q 371 882 393 885 l 371 498 m 646 1117 l 323 999 l 302 1034 l 540 1221 l 646 1127 l 646 1117 m 170 949 z "},"Ř":{"ha":979,"x_min":59,"x_max":993,"o":"m 371 213 q 371 140 371 172 q 372 81 372 108 q 388 55 373 60 l 458 32 l 460 -2 q 274 0 385 0 q 62 -2 155 0 l 59 32 l 150 57 q 168 78 167 62 q 169 139 169 105 q 170 213 170 172 l 170 753 q 169 815 170 787 q 168 866 169 843 q 152 888 168 884 l 61 915 l 59 949 q 254 947 154 947 q 306 948 275 947 q 382 950 337 949 q 450 952 422 951 q 493 953 477 953 q 754 895 667 953 q 842 724 842 836 q 788 561 842 623 q 632 466 735 499 q 720 330 689 382 q 782 227 751 277 q 839 138 813 176 q 886 77 864 99 q 910 59 899 66 q 933 46 921 52 q 959 37 945 41 q 990 30 973 33 l 993 -5 q 841 -14 926 -14 q 746 -5 773 -14 q 698 20 719 3 q 641 83 667 44 q 585 172 614 123 q 525 277 556 222 q 460 387 494 333 q 444 413 450 403 q 431 428 437 423 q 417 436 425 433 q 399 439 410 438 l 371 439 l 371 213 m 371 498 q 436 496 407 496 q 577 545 532 496 q 622 696 622 593 q 579 842 622 796 q 445 888 536 888 q 411 886 429 888 q 371 882 393 885 l 371 498 m 454 1118 l 674 1217 l 696 1182 l 511 1012 l 397 1012 l 213 1182 l 235 1217 l 454 1118 m 170 949 z "},"Ŗ":{"ha":979,"x_min":59,"x_max":993,"o":"m 371 213 q 371 140 371 172 q 372 81 372 108 q 388 55 373 60 l 458 32 l 460 -2 q 274 0 385 0 q 62 -2 155 0 l 59 32 l 150 57 q 168 78 167 62 q 169 139 169 105 q 170 213 170 172 l 170 753 q 169 815 170 787 q 168 866 169 843 q 152 888 168 884 l 61 915 l 59 949 q 254 947 154 947 q 306 948 275 947 q 382 950 337 949 q 450 952 422 951 q 493 953 477 953 q 754 895 667 953 q 842 724 842 836 q 788 561 842 623 q 632 466 735 499 q 720 330 689 382 q 782 227 751 277 q 839 138 813 176 q 886 77 864 99 q 910 59 899 66 q 933 46 921 52 q 959 37 945 41 q 990 30 973 33 l 993 -5 q 841 -14 926 -14 q 746 -5 773 -14 q 698 20 719 3 q 641 83 667 44 q 585 172 614 123 q 525 277 556 222 q 460 387 494 333 q 444 413 450 403 q 431 428 437 423 q 417 436 425 433 q 399 439 410 438 l 371 439 l 371 213 m 371 498 q 436 496 407 496 q 577 545 532 496 q 622 696 622 593 q 579 842 622 796 q 445 888 536 888 q 411 886 429 888 q 371 882 393 885 l 371 498 m 411 -315 q 477 -201 477 -260 q 418 -132 477 -151 q 425 -100 418 -115 q 441 -76 431 -86 q 467 -60 452 -66 q 498 -54 481 -54 q 560 -79 536 -54 q 583 -144 583 -103 q 437 -339 583 -248 l 411 -315 z "},"Ś":{"ha":732,"x_min":61,"x_max":685,"o":"m 524 885 q 429 902 480 902 q 308 860 357 902 q 258 751 258 818 q 274 683 258 711 q 317 632 290 654 q 379 592 345 610 q 452 557 414 574 q 535 514 493 537 q 610 458 577 490 q 664 381 644 426 q 685 273 685 336 q 581 56 685 135 q 307 -22 477 -22 q 65 16 184 -22 l 61 22 l 97 267 l 139 273 l 190 66 q 298 43 239 43 q 437 87 385 43 q 490 204 490 131 q 473 274 490 245 q 429 326 457 303 q 366 366 401 349 q 293 401 331 384 q 210 444 252 422 q 136 498 169 467 q 83 575 104 530 q 63 682 63 619 q 162 888 63 812 q 419 965 261 965 q 648 934 519 965 l 652 928 l 610 709 l 573 703 l 524 885 m 581 1117 l 259 999 l 238 1034 l 475 1221 l 581 1127 l 581 1117 m 105 949 z "},"Ŝ":{"ha":732,"x_min":61,"x_max":685,"o":"m 524 885 q 429 902 480 902 q 308 860 357 902 q 258 751 258 818 q 274 683 258 711 q 317 632 290 654 q 379 592 345 610 q 452 557 414 574 q 535 514 493 537 q 610 458 577 490 q 664 381 644 426 q 685 273 685 336 q 581 56 685 135 q 307 -22 477 -22 q 65 16 184 -22 l 61 22 l 97 267 l 139 273 l 190 66 q 298 43 239 43 q 437 87 385 43 q 490 204 490 131 q 473 274 490 245 q 429 326 457 303 q 366 366 401 349 q 293 401 331 384 q 210 444 252 422 q 136 498 169 467 q 83 575 104 530 q 63 682 63 619 q 162 888 63 812 q 419 965 261 965 q 648 934 519 965 l 652 928 l 610 709 l 573 703 l 524 885 m 390 1099 l 170 999 l 149 1034 l 333 1204 l 447 1204 l 631 1034 l 610 999 l 390 1099 m 105 949 z "},"Š":{"ha":732,"x_min":61,"x_max":685,"o":"m 524 885 q 429 902 480 902 q 308 860 357 902 q 258 751 258 818 q 274 683 258 711 q 317 632 290 654 q 379 592 345 610 q 452 557 414 574 q 535 514 493 537 q 610 458 577 490 q 664 381 644 426 q 685 273 685 336 q 581 56 685 135 q 307 -22 477 -22 q 65 16 184 -22 l 61 22 l 97 267 l 139 273 l 190 66 q 298 43 239 43 q 437 87 385 43 q 490 204 490 131 q 473 274 490 245 q 429 326 457 303 q 366 366 401 349 q 293 401 331 384 q 210 444 252 422 q 136 498 169 467 q 83 575 104 530 q 63 682 63 619 q 162 888 63 812 q 419 965 261 965 q 648 934 519 965 l 652 928 l 610 709 l 573 703 l 524 885 m 390 1118 l 610 1217 l 631 1182 l 447 1012 l 333 1012 l 149 1182 l 170 1217 l 390 1118 m 105 949 z "},"Ş":{"ha":732,"x_min":61,"x_max":685,"o":"m 240 -130 l 323 -22 l 307 -22 q 65 16 184 -22 l 61 22 l 97 267 l 139 273 l 190 66 q 298 43 239 43 q 437 87 385 43 q 490 204 490 131 q 473 274 490 245 q 429 326 457 303 q 366 366 401 349 q 293 401 331 384 q 210 444 252 422 q 136 498 169 467 q 83 575 104 530 q 63 682 63 619 q 162 888 63 812 q 419 965 261 965 q 648 934 519 965 l 652 928 l 610 709 l 573 703 l 524 885 q 429 902 480 902 q 308 860 357 902 q 258 751 258 818 q 274 683 258 711 q 317 632 290 654 q 379 592 345 610 q 452 557 414 574 q 535 514 493 537 q 610 458 577 490 q 664 381 644 426 q 685 273 685 336 q 605 77 685 151 q 389 -18 526 2 l 349 -71 q 429 -162 429 -105 q 284 -335 429 -238 l 258 -307 q 325 -207 325 -253 q 243 -136 325 -157 l 240 -130 z "},"Ș":{"ha":732,"x_min":61,"x_max":685,"o":"m 524 885 q 429 902 480 902 q 308 860 357 902 q 258 751 258 818 q 274 683 258 711 q 317 632 290 654 q 379 592 345 610 q 452 557 414 574 q 535 514 493 537 q 610 458 577 490 q 664 381 644 426 q 685 273 685 336 q 581 56 685 135 q 307 -22 477 -22 q 65 16 184 -22 l 61 22 l 97 267 l 139 273 l 190 66 q 298 43 239 43 q 437 87 385 43 q 490 204 490 131 q 473 274 490 245 q 429 326 457 303 q 366 366 401 349 q 293 401 331 384 q 210 444 252 422 q 136 498 169 467 q 83 575 104 530 q 63 682 63 619 q 162 888 63 812 q 419 965 261 965 q 648 934 519 965 l 652 928 l 610 709 l 573 703 l 524 885 m 258 -315 q 324 -201 324 -260 q 266 -132 324 -151 q 272 -100 266 -115 q 289 -76 278 -86 q 314 -60 300 -66 q 345 -54 329 -54 q 407 -79 384 -54 q 431 -144 431 -103 q 285 -339 431 -248 l 258 -315 z "},"Ť":{"ha":861,"x_min":18,"x_max":857,"o":"m 435 0 q 207 -2 315 0 l 203 32 l 312 62 q 330 83 329 67 q 331 214 331 134 l 331 877 l 136 877 l 73 696 l 35 690 l 18 944 l 22 949 q 342 947 189 947 l 531 947 q 852 949 684 947 l 857 944 l 812 696 l 774 690 l 730 877 l 534 877 l 534 214 q 535 83 534 134 q 553 62 536 67 l 660 32 l 662 -2 q 435 0 549 0 m 430 1118 l 650 1217 l 671 1182 l 487 1012 l 373 1012 l 189 1182 l 210 1217 l 430 1118 m 145 949 z "},"Ț":{"ha":861,"x_min":18,"x_max":857,"o":"m 435 0 q 207 -2 315 0 l 203 32 l 312 62 q 330 83 329 67 q 331 214 331 134 l 331 877 l 136 877 l 73 696 l 35 690 l 18 944 l 22 949 q 342 947 189 947 l 531 947 q 852 949 684 947 l 857 944 l 812 696 l 774 690 l 730 877 l 534 877 l 534 214 q 535 83 534 134 q 553 62 536 67 l 660 32 l 662 -2 q 435 0 549 0 m 343 -315 q 409 -201 409 -260 q 351 -132 409 -151 q 357 -100 351 -115 q 374 -76 363 -86 q 399 -60 385 -66 q 430 -54 414 -54 q 492 -79 469 -54 q 515 -144 515 -103 q 370 -339 515 -248 l 343 -315 z "},"Ŧ":{"ha":861,"x_min":16,"x_max":854,"o":"m 433 0 q 205 -2 313 0 l 201 32 l 310 62 q 328 83 327 67 q 329 214 329 134 l 329 436 l 161 436 l 161 508 l 329 508 l 329 877 l 134 877 l 71 696 l 33 690 l 16 944 l 20 949 q 340 947 187 947 l 529 947 q 850 949 682 947 l 854 944 l 810 696 l 772 690 l 728 877 l 532 877 l 532 508 l 699 508 l 699 436 l 532 436 l 532 214 q 533 83 532 134 q 551 62 534 67 l 658 32 l 660 -2 q 433 0 547 0 z "},"Ù":{"ha":1065,"x_min":34,"x_max":1036,"o":"m 34 949 q 243 947 128 947 q 452 949 361 947 l 455 915 l 367 890 q 349 869 351 886 q 348 817 349 845 q 348 756 348 789 l 348 382 q 404 126 348 197 q 584 56 459 56 q 768 131 707 56 q 829 374 829 205 l 829 756 q 829 817 829 789 q 827 869 828 845 q 810 890 827 885 l 726 913 l 724 949 q 880 947 814 947 q 1033 949 941 947 l 1036 915 l 944 888 q 927 866 928 884 q 926 815 926 843 q 926 753 926 787 l 926 409 q 830 74 926 176 q 551 -27 734 -27 q 243 70 342 -27 q 144 379 144 166 l 144 753 q 144 815 144 787 q 143 866 144 843 q 127 888 142 884 l 36 915 l 34 949 m 378 1127 l 484 1221 l 722 1034 l 701 999 l 378 1117 l 378 1127 m 285 949 z "},"Ú":{"ha":1065,"x_min":34,"x_max":1036,"o":"m 34 949 q 243 947 128 947 q 452 949 361 947 l 455 915 l 367 890 q 349 869 351 886 q 348 817 349 845 q 348 756 348 789 l 348 382 q 404 126 348 197 q 584 56 459 56 q 768 131 707 56 q 829 374 829 205 l 829 756 q 829 817 829 789 q 827 869 828 845 q 810 890 827 885 l 726 913 l 724 949 q 880 947 814 947 q 1033 949 941 947 l 1036 915 l 944 888 q 927 866 928 884 q 926 815 926 843 q 926 753 926 787 l 926 409 q 830 74 926 176 q 551 -27 734 -27 q 243 70 342 -27 q 144 379 144 166 l 144 753 q 144 815 144 787 q 143 866 144 843 q 127 888 142 884 l 36 915 l 34 949 m 761 1117 l 439 999 l 418 1034 l 655 1221 l 761 1127 l 761 1117 m 285 949 z "},"Û":{"ha":1065,"x_min":34,"x_max":1036,"o":"m 34 949 q 243 947 128 947 q 452 949 361 947 l 455 915 l 367 890 q 349 869 351 886 q 348 817 349 845 q 348 756 348 789 l 348 382 q 404 126 348 197 q 584 56 459 56 q 768 131 707 56 q 829 374 829 205 l 829 756 q 829 817 829 789 q 827 869 828 845 q 810 890 827 885 l 726 913 l 724 949 q 880 947 814 947 q 1033 949 941 947 l 1036 915 l 944 888 q 927 866 928 884 q 926 815 926 843 q 926 753 926 787 l 926 409 q 830 74 926 176 q 551 -27 734 -27 q 243 70 342 -27 q 144 379 144 166 l 144 753 q 144 815 144 787 q 143 866 144 843 q 127 888 142 884 l 36 915 l 34 949 m 570 1099 l 350 999 l 328 1034 l 513 1204 l 627 1204 l 811 1034 l 789 999 l 570 1099 m 285 949 z "},"Ũ":{"ha":1065,"x_min":34,"x_max":1036,"o":"m 34 949 q 243 947 128 947 q 452 949 361 947 l 455 915 l 367 890 q 349 869 351 886 q 348 817 349 845 q 348 756 348 789 l 348 382 q 404 126 348 197 q 584 56 459 56 q 768 131 707 56 q 829 374 829 205 l 829 756 q 829 817 829 789 q 827 869 828 845 q 810 890 827 885 l 726 913 l 724 949 q 880 947 814 947 q 1033 949 941 947 l 1036 915 l 944 888 q 927 866 928 884 q 926 815 926 843 q 926 753 926 787 l 926 409 q 830 74 926 176 q 551 -27 734 -27 q 243 70 342 -27 q 144 379 144 166 l 144 753 q 144 815 144 787 q 143 866 144 843 q 127 888 142 884 l 36 915 l 34 949 m 804 1177 q 650 1033 726 1033 q 602 1043 624 1033 q 553 1069 581 1053 q 532 1082 541 1076 q 513 1091 522 1087 q 496 1097 505 1095 q 480 1099 488 1099 q 443 1088 460 1099 q 387 1034 427 1077 l 352 1063 q 434 1172 400 1140 q 505 1203 467 1203 q 543 1196 525 1203 q 595 1170 562 1189 q 621 1155 610 1162 q 641 1145 632 1149 q 659 1139 650 1141 q 675 1137 667 1137 q 712 1147 697 1137 q 768 1202 728 1158 l 804 1177 m 285 949 z "},"Ü":{"ha":1065,"x_min":34,"x_max":1036,"o":"m 34 949 q 243 947 128 947 q 452 949 361 947 l 455 915 l 367 890 q 349 869 351 886 q 348 817 349 845 q 348 756 348 789 l 348 382 q 404 126 348 197 q 584 56 459 56 q 768 131 707 56 q 829 374 829 205 l 829 756 q 829 817 829 789 q 827 869 828 845 q 810 890 827 885 l 726 913 l 724 949 q 880 947 814 947 q 1033 949 941 947 l 1036 915 l 944 888 q 927 866 928 884 q 926 815 926 843 q 926 753 926 787 l 926 409 q 830 74 926 176 q 551 -27 734 -27 q 243 70 342 -27 q 144 379 144 166 l 144 753 q 144 815 144 787 q 143 866 144 843 q 127 888 142 884 l 36 915 l 34 949 m 517 1122 q 492 1056 517 1081 q 426 1031 467 1031 q 362 1055 387 1031 q 338 1116 338 1078 q 363 1181 338 1158 q 431 1204 389 1204 q 493 1183 469 1204 q 517 1122 517 1162 m 802 1122 q 776 1056 802 1081 q 709 1031 750 1031 q 646 1055 671 1031 q 622 1116 622 1078 q 647 1181 622 1158 q 714 1204 673 1204 q 778 1183 753 1204 q 802 1122 802 1162 m 285 949 z "},"Ū":{"ha":1065,"x_min":34,"x_max":1036,"o":"m 34 949 q 243 947 128 947 q 452 949 361 947 l 455 915 l 367 890 q 349 869 351 886 q 348 817 349 845 q 348 756 348 789 l 348 382 q 404 126 348 197 q 584 56 459 56 q 768 131 707 56 q 829 374 829 205 l 829 756 q 829 817 829 789 q 827 869 828 845 q 810 890 827 885 l 726 913 l 724 949 q 880 947 814 947 q 1033 949 941 947 l 1036 915 l 944 888 q 927 866 928 884 q 926 815 926 843 q 926 753 926 787 l 926 409 q 830 74 926 176 q 551 -27 734 -27 q 243 70 342 -27 q 144 379 144 166 l 144 753 q 144 815 144 787 q 143 866 144 843 q 127 888 142 884 l 36 915 l 34 949 m 379 1056 l 379 1139 l 760 1139 l 760 1056 l 379 1056 m 285 949 z "},"Ŭ":{"ha":1065,"x_min":34,"x_max":1036,"o":"m 34 949 q 243 947 128 947 q 452 949 361 947 l 455 915 l 367 890 q 349 869 351 886 q 348 817 349 845 q 348 756 348 789 l 348 382 q 404 126 348 197 q 584 56 459 56 q 768 131 707 56 q 829 374 829 205 l 829 756 q 829 817 829 789 q 827 869 828 845 q 810 890 827 885 l 726 913 l 724 949 q 880 947 814 947 q 1033 949 941 947 l 1036 915 l 944 888 q 927 866 928 884 q 926 815 926 843 q 926 753 926 787 l 926 409 q 830 74 926 176 q 551 -27 734 -27 q 243 70 342 -27 q 144 379 144 166 l 144 753 q 144 815 144 787 q 143 866 144 843 q 127 888 142 884 l 36 915 l 34 949 m 425 1236 q 473 1152 435 1181 q 571 1123 511 1123 q 669 1152 632 1123 q 720 1231 707 1180 l 768 1236 q 715 1078 768 1138 q 566 1019 663 1019 q 426 1072 476 1019 q 375 1231 375 1124 l 425 1236 m 285 949 z "},"Ů":{"ha":1065,"x_min":34,"x_max":1036,"o":"m 34 949 q 243 947 128 947 q 452 949 361 947 l 455 915 l 367 890 q 349 869 351 886 q 348 817 349 845 q 348 756 348 789 l 348 382 q 404 126 348 197 q 584 56 459 56 q 768 131 707 56 q 829 374 829 205 l 829 756 q 829 817 829 789 q 827 869 828 845 q 810 890 827 885 l 726 913 l 724 949 q 880 947 814 947 q 1033 949 941 947 l 1036 915 l 944 888 q 927 866 928 884 q 926 815 926 843 q 926 753 926 787 l 926 409 q 830 74 926 176 q 551 -27 734 -27 q 243 70 342 -27 q 144 379 144 166 l 144 753 q 144 815 144 787 q 143 866 144 843 q 127 888 142 884 l 36 915 l 34 949 m 566 996 q 457 1026 498 996 q 416 1114 416 1057 q 463 1209 416 1173 q 573 1245 509 1245 q 680 1212 637 1245 q 723 1121 723 1178 q 679 1029 723 1063 q 566 996 635 996 m 570 1040 q 618 1059 599 1040 q 637 1116 637 1077 q 618 1178 637 1156 q 570 1200 600 1200 q 521 1181 540 1200 q 503 1123 503 1162 q 521 1062 503 1084 q 570 1040 540 1040 m 285 949 z "},"Ű":{"ha":1065,"x_min":34,"x_max":1036,"o":"m 34 949 q 243 947 128 947 q 452 949 361 947 l 455 915 l 367 890 q 349 869 351 886 q 348 817 349 845 q 348 756 348 789 l 348 382 q 404 126 348 197 q 584 56 459 56 q 768 131 707 56 q 829 374 829 205 l 829 756 q 829 817 829 789 q 827 869 828 845 q 810 890 827 885 l 726 913 l 724 949 q 880 947 814 947 q 1033 949 941 947 l 1036 915 l 944 888 q 927 866 928 884 q 926 815 926 843 q 926 753 926 787 l 926 409 q 830 74 926 176 q 551 -27 734 -27 q 243 70 342 -27 q 144 379 144 166 l 144 753 q 144 815 144 787 q 143 866 144 843 q 127 888 142 884 l 36 915 l 34 949 m 494 1204 l 644 1204 l 483 1009 l 433 1009 l 494 1204 m 694 1204 l 844 1204 l 678 1009 l 628 1009 l 694 1204 m 285 949 z "},"Ų":{"ha":1065,"x_min":34,"x_max":1036,"o":"m 34 949 q 243 947 128 947 q 452 949 361 947 l 455 915 l 367 890 q 349 869 351 886 q 348 817 349 845 q 348 756 348 789 l 348 382 q 404 126 348 197 q 584 56 459 56 q 768 131 707 56 q 829 374 829 205 l 829 756 q 829 817 829 789 q 827 869 828 845 q 810 890 827 885 l 726 913 l 724 949 q 880 947 814 947 q 1033 949 941 947 l 1036 915 l 944 888 q 927 866 928 884 q 926 815 926 843 q 926 753 926 787 l 926 409 q 865 122 926 219 q 694 -8 805 24 q 631 -50 661 -18 q 600 -138 600 -82 q 643 -230 600 -199 q 754 -261 685 -261 q 783 -260 764 -261 l 788 -295 q 610 -332 679 -332 q 481 -297 524 -332 q 438 -201 438 -261 q 566 -25 438 -110 l 566 -24 q 546 -26 553 -26 q 243 70 342 -27 q 144 379 144 166 l 144 753 q 144 815 144 787 q 143 866 144 843 q 127 888 142 884 l 36 915 l 34 949 z "},"Ẁ":{"ha":1362,"x_min":-7,"x_max":1391,"o":"m 966 368 q 985 296 978 332 q 1007 366 996 333 l 1148 772 q 1167 834 1162 812 q 1173 868 1173 855 q 1167 886 1173 880 q 1147 895 1160 892 l 1082 913 l 1080 949 q 1240 947 1179 947 q 1388 949 1305 947 l 1391 915 l 1318 894 q 1279 869 1293 886 q 1253 816 1266 852 l 961 0 l 887 -6 l 715 532 q 688 624 702 574 q 656 532 671 575 l 469 0 l 396 -6 l 132 808 q 101 871 116 854 q 61 896 87 888 l -5 915 l -7 949 q 178 947 85 947 q 416 949 300 947 l 420 915 l 353 896 q 334 886 340 892 q 328 867 328 880 q 333 832 328 854 q 349 773 338 810 l 475 368 q 494 296 486 332 q 515 366 505 333 l 716 950 l 785 956 l 966 368 m 538 1127 l 644 1221 l 881 1034 l 860 999 l 538 1117 l 538 1127 m 444 949 z "},"Ẃ":{"ha":1362,"x_min":-7,"x_max":1391,"o":"m 966 368 q 985 296 978 332 q 1007 366 996 333 l 1148 772 q 1167 834 1162 812 q 1173 868 1173 855 q 1167 886 1173 880 q 1147 895 1160 892 l 1082 913 l 1080 949 q 1240 947 1179 947 q 1388 949 1305 947 l 1391 915 l 1318 894 q 1279 869 1293 886 q 1253 816 1266 852 l 961 0 l 887 -6 l 715 532 q 688 624 702 574 q 656 532 671 575 l 469 0 l 396 -6 l 132 808 q 101 871 116 854 q 61 896 87 888 l -5 915 l -7 949 q 178 947 85 947 q 416 949 300 947 l 420 915 l 353 896 q 334 886 340 892 q 328 867 328 880 q 333 832 328 854 q 349 773 338 810 l 475 368 q 494 296 486 332 q 515 366 505 333 l 716 950 l 785 956 l 966 368 m 920 1117 l 598 999 l 577 1034 l 814 1221 l 920 1127 l 920 1117 m 444 949 z "},"Ŵ":{"ha":1362,"x_min":-7,"x_max":1391,"o":"m 966 368 q 985 296 978 332 q 1007 366 996 333 l 1148 772 q 1167 834 1162 812 q 1173 868 1173 855 q 1167 886 1173 880 q 1147 895 1160 892 l 1082 913 l 1080 949 q 1240 947 1179 947 q 1388 949 1305 947 l 1391 915 l 1318 894 q 1279 869 1293 886 q 1253 816 1266 852 l 961 0 l 887 -6 l 715 532 q 688 624 702 574 q 656 532 671 575 l 469 0 l 396 -6 l 132 808 q 101 871 116 854 q 61 896 87 888 l -5 915 l -7 949 q 178 947 85 947 q 416 949 300 947 l 420 915 l 353 896 q 334 886 340 892 q 328 867 328 880 q 333 832 328 854 q 349 773 338 810 l 475 368 q 494 296 486 332 q 515 366 505 333 l 716 950 l 785 956 l 966 368 m 729 1099 l 509 999 l 488 1034 l 672 1204 l 786 1204 l 970 1034 l 949 999 l 729 1099 m 444 949 z "},"Ẅ":{"ha":1362,"x_min":-7,"x_max":1391,"o":"m 966 368 q 985 296 978 332 q 1007 366 996 333 l 1148 772 q 1167 834 1162 812 q 1173 868 1173 855 q 1167 886 1173 880 q 1147 895 1160 892 l 1082 913 l 1080 949 q 1240 947 1179 947 q 1388 949 1305 947 l 1391 915 l 1318 894 q 1279 869 1293 886 q 1253 816 1266 852 l 961 0 l 887 -6 l 715 532 q 688 624 702 574 q 656 532 671 575 l 469 0 l 396 -6 l 132 808 q 101 871 116 854 q 61 896 87 888 l -5 915 l -7 949 q 178 947 85 947 q 416 949 300 947 l 420 915 l 353 896 q 334 886 340 892 q 328 867 328 880 q 333 832 328 854 q 349 773 338 810 l 475 368 q 494 296 486 332 q 515 366 505 333 l 716 950 l 785 956 l 966 368 m 677 1122 q 651 1056 677 1081 q 585 1031 626 1031 q 522 1055 546 1031 q 497 1116 497 1078 q 523 1181 497 1158 q 590 1204 549 1204 q 653 1183 629 1204 q 677 1122 677 1162 m 961 1122 q 935 1056 961 1081 q 869 1031 909 1031 q 806 1055 830 1031 q 781 1116 781 1078 q 807 1181 781 1158 q 873 1204 832 1204 q 937 1183 913 1204 q 961 1122 961 1162 m 444 949 z "},"Ỳ":{"ha":857,"x_min":-34,"x_max":891,"o":"m 505 513 l 635 772 q 664 830 653 806 q 675 869 675 854 q 644 897 675 889 l 583 913 l 581 949 q 739 947 656 947 q 888 949 814 947 l 891 915 l 819 894 q 782 870 795 886 q 755 829 768 854 l 541 433 l 541 213 q 541 139 541 172 q 542 79 541 106 q 566 56 543 62 l 642 32 l 644 -2 q 441 0 556 0 q 237 -2 323 0 l 233 32 l 317 57 q 336 78 334 62 q 337 139 336 105 q 338 213 338 172 l 338 416 l 117 811 q 76 870 92 852 q 34 897 60 888 l -31 915 l -34 949 q 157 947 33 947 q 414 949 292 947 l 417 915 l 348 898 q 325 888 332 895 q 317 871 317 882 q 327 837 317 857 q 353 789 336 817 l 505 513 m 276 1127 l 382 1221 l 619 1034 l 598 999 l 276 1117 l 276 1127 m 182 949 z "},"Ý":{"ha":857,"x_min":-34,"x_max":891,"o":"m 505 513 l 635 772 q 664 830 653 806 q 675 869 675 854 q 644 897 675 889 l 583 913 l 581 949 q 739 947 656 947 q 888 949 814 947 l 891 915 l 819 894 q 782 870 795 886 q 755 829 768 854 l 541 433 l 541 213 q 541 139 541 172 q 542 79 541 106 q 566 56 543 62 l 642 32 l 644 -2 q 441 0 556 0 q 237 -2 323 0 l 233 32 l 317 57 q 336 78 334 62 q 337 139 336 105 q 338 213 338 172 l 338 416 l 117 811 q 76 870 92 852 q 34 897 60 888 l -31 915 l -34 949 q 157 947 33 947 q 414 949 292 947 l 417 915 l 348 898 q 325 888 332 895 q 317 871 317 882 q 327 837 317 857 q 353 789 336 817 l 505 513 m 659 1117 l 336 999 l 315 1034 l 553 1221 l 659 1127 l 659 1117 m 182 949 z "},"Ŷ":{"ha":857,"x_min":-34,"x_max":891,"o":"m 505 513 l 635 772 q 664 830 653 806 q 675 869 675 854 q 644 897 675 889 l 583 913 l 581 949 q 739 947 656 947 q 888 949 814 947 l 891 915 l 819 894 q 782 870 795 886 q 755 829 768 854 l 541 433 l 541 213 q 541 139 541 172 q 542 79 541 106 q 566 56 543 62 l 642 32 l 644 -2 q 441 0 556 0 q 237 -2 323 0 l 233 32 l 317 57 q 336 78 334 62 q 337 139 336 105 q 338 213 338 172 l 338 416 l 117 811 q 76 870 92 852 q 34 897 60 888 l -31 915 l -34 949 q 157 947 33 947 q 414 949 292 947 l 417 915 l 348 898 q 325 888 332 895 q 317 871 317 882 q 327 837 317 857 q 353 789 336 817 l 505 513 m 467 1099 l 248 999 l 226 1034 l 410 1204 l 524 1204 l 709 1034 l 687 999 l 467 1099 m 182 949 z "},"Ÿ":{"ha":857,"x_min":-34,"x_max":891,"o":"m 505 513 l 635 772 q 664 830 653 806 q 675 869 675 854 q 644 897 675 889 l 583 913 l 581 949 q 739 947 656 947 q 888 949 814 947 l 891 915 l 819 894 q 782 870 795 886 q 755 829 768 854 l 541 433 l 541 213 q 541 139 541 172 q 542 79 541 106 q 566 56 543 62 l 642 32 l 644 -2 q 441 0 556 0 q 237 -2 323 0 l 233 32 l 317 57 q 336 78 334 62 q 337 139 336 105 q 338 213 338 172 l 338 416 l 117 811 q 76 870 92 852 q 34 897 60 888 l -31 915 l -34 949 q 157 947 33 947 q 414 949 292 947 l 417 915 l 348 898 q 325 888 332 895 q 317 871 317 882 q 327 837 317 857 q 353 789 336 817 l 505 513 m 415 1122 q 390 1056 415 1081 q 323 1031 364 1031 q 260 1055 284 1031 q 235 1116 235 1078 q 261 1181 235 1158 q 328 1204 287 1204 q 391 1183 367 1204 q 415 1122 415 1162 m 699 1122 q 673 1056 699 1081 q 607 1031 648 1031 q 544 1055 568 1031 q 519 1116 519 1078 q 545 1181 519 1158 q 612 1204 570 1204 q 675 1183 651 1204 q 699 1122 699 1162 m 182 949 z "},"Ź":{"ha":819,"x_min":44,"x_max":771,"o":"m 47 -2 l 44 32 l 514 878 l 182 878 l 132 713 l 94 708 l 58 944 l 62 949 q 388 947 235 947 l 566 947 q 760 949 663 947 l 764 915 l 295 70 l 636 70 l 732 268 l 771 274 l 753 3 l 749 -2 q 407 0 556 0 l 225 0 q 47 -2 130 0 m 612 1117 l 290 999 l 269 1034 l 506 1221 l 612 1127 l 612 1117 m 136 949 z "},"Ž":{"ha":819,"x_min":44,"x_max":771,"o":"m 47 -2 l 44 32 l 514 878 l 182 878 l 132 713 l 94 708 l 58 944 l 62 949 q 388 947 235 947 l 566 947 q 760 949 663 947 l 764 915 l 295 70 l 636 70 l 732 268 l 771 274 l 753 3 l 749 -2 q 407 0 556 0 l 225 0 q 47 -2 130 0 m 420 1118 l 640 1217 l 662 1182 l 477 1012 l 363 1012 l 179 1182 l 201 1217 l 420 1118 m 136 949 z "},"Ż":{"ha":819,"x_min":44,"x_max":771,"o":"m 47 -2 l 44 32 l 514 878 l 182 878 l 132 713 l 94 708 l 58 944 l 62 949 q 388 947 235 947 l 566 947 q 760 949 663 947 l 764 915 l 295 70 l 636 70 l 732 268 l 771 274 l 753 3 l 749 -2 q 407 0 556 0 l 225 0 q 47 -2 130 0 m 517 1126 q 490 1057 517 1084 q 417 1030 462 1030 q 349 1055 376 1030 q 323 1121 323 1080 q 351 1190 323 1164 q 423 1215 378 1215 q 491 1192 465 1215 q 517 1126 517 1168 m 136 949 z "},"Ŋ":{"ha":1050,"x_min":42,"x_max":1018,"o":"m 907 183 q 906 77 907 132 q 898 -31 905 22 q 874 -131 890 -83 q 829 -213 859 -178 q 755 -270 800 -249 q 646 -290 711 -290 q 566 -281 607 -290 q 597 -118 579 -190 l 604 -114 q 713 -130 669 -130 q 789 -100 768 -130 q 818 6 811 -71 l 295 662 q 240 734 271 692 q 241 642 241 684 l 241 213 q 243 81 241 133 q 260 57 243 61 l 347 33 l 349 -2 q 198 0 257 0 q 45 -2 140 0 l 42 32 l 133 57 q 151 78 151 62 q 153 213 153 133 l 153 753 q 151 866 153 821 q 135 888 151 884 l 44 915 l 42 949 q 188 947 137 947 q 314 949 254 947 l 765 385 q 821 313 792 351 q 819 403 819 359 l 819 756 q 818 869 819 822 q 800 890 817 885 l 713 913 l 711 949 q 863 947 805 947 q 1015 949 923 947 l 1018 915 l 926 888 q 909 866 910 884 q 907 753 907 821 l 907 183 z "},"Ð":{"ha":1064,"x_min":59,"x_max":1028,"o":"m 243 0 q 62 -2 155 0 l 59 32 l 150 57 q 168 78 168 62 q 169 139 169 105 q 170 213 170 172 l 170 465 l 61 465 l 61 536 l 170 536 l 170 753 q 169 815 170 787 q 168 866 169 843 q 152 888 168 884 l 61 915 l 59 949 q 241 947 154 947 q 381 950 314 947 q 520 954 448 954 q 901 845 773 954 q 1028 524 1028 737 q 887 135 1028 273 q 489 -4 745 -4 q 363 -2 418 -4 q 243 0 309 0 m 373 69 q 437 61 406 63 q 500 60 468 60 q 724 163 647 60 q 800 479 800 267 q 727 786 800 686 q 496 886 654 886 q 441 885 472 886 q 373 881 411 884 l 373 536 l 558 536 l 558 465 l 373 465 l 373 69 z "},"Þ":{"ha":899,"x_min":59,"x_max":852,"o":"m 373 213 q 373 139 373 172 q 374 79 374 106 q 397 56 375 62 l 481 32 l 483 -2 q 274 0 389 0 q 62 -2 155 0 l 59 32 l 150 57 q 168 78 167 62 q 169 139 169 105 q 170 213 170 172 l 170 753 q 169 815 170 787 q 168 866 169 843 q 152 888 168 884 l 61 915 l 59 949 q 268 947 153 947 q 479 949 386 947 l 483 915 l 392 890 q 374 869 376 886 q 373 817 374 845 l 373 779 q 480 781 431 781 q 758 718 663 781 q 852 530 852 654 q 754 301 852 382 q 477 219 656 219 q 373 228 429 219 l 373 213 m 373 292 q 450 284 412 284 q 585 339 538 284 q 631 504 631 393 q 587 664 631 611 q 448 716 543 716 q 373 712 419 716 l 373 292 z "},"a":{"ha":744,"x_min":36,"x_max":720,"o":"m 431 302 q 279 275 324 302 q 233 182 233 248 q 266 97 233 122 q 342 71 298 71 q 429 97 392 71 l 431 302 m 99 582 q 377 648 243 648 q 560 593 499 648 q 620 436 621 538 l 616 154 q 618 98 615 119 q 630 66 621 77 q 660 50 640 55 q 715 45 679 45 l 720 14 q 556 -19 625 -19 q 435 54 464 -19 q 252 -19 349 -19 q 97 28 158 -19 q 36 161 36 75 q 135 317 36 267 q 431 366 233 366 l 431 417 q 396 524 432 490 q 286 558 361 558 q 118 528 216 558 l 99 582 z "},"b":{"ha":846,"x_min":12,"x_max":792,"o":"m 311 61 q 401 49 356 49 q 539 117 493 49 q 585 311 585 185 q 542 491 585 427 q 416 555 499 555 q 311 533 363 555 l 311 61 m 315 1017 q 311 713 311 916 l 311 584 q 513 648 415 648 q 717 562 642 648 q 792 338 792 476 q 685 75 792 169 q 389 -18 578 -18 q 117 26 271 -18 q 119 242 119 106 l 119 644 q 116 915 119 794 l 16 942 l 12 970 q 308 1022 181 995 l 315 1017 z "},"c":{"ha":673,"x_min":53,"x_max":625,"o":"m 625 45 q 393 -19 513 -19 q 149 67 244 -19 q 53 297 53 153 q 157 551 53 454 q 422 648 261 648 q 620 609 525 648 q 577 408 595 513 l 540 402 l 488 572 q 438 578 469 578 q 311 511 361 578 q 262 330 262 444 q 325 135 262 198 q 503 73 387 73 q 620 85 559 73 l 625 45 z "},"d":{"ha":861,"x_min":54,"x_max":829,"o":"m 534 564 q 452 576 497 576 q 310 512 359 576 q 261 319 261 448 q 304 140 261 208 q 427 73 348 73 q 534 98 485 73 l 534 564 m 427 970 q 722 1022 592 995 l 730 1017 q 726 705 726 871 l 726 336 q 726 153 726 247 q 729 97 726 118 q 741 65 732 76 q 769 50 750 54 q 825 45 788 45 l 829 15 q 660 -19 730 -19 q 541 55 569 -19 q 344 -19 452 -19 q 132 70 210 -19 q 54 291 54 158 q 154 553 54 460 q 436 646 255 646 q 534 638 481 646 q 531 915 534 781 l 431 942 l 427 970 z "},"e":{"ha":747,"x_min":54,"x_max":696,"o":"m 693 45 q 429 -19 568 -19 q 158 63 263 -19 q 54 304 54 144 q 154 552 54 456 q 411 648 255 648 q 622 574 547 648 q 696 371 696 500 q 694 330 696 351 l 260 330 q 327 134 260 194 q 547 75 394 75 q 688 87 621 75 l 693 45 m 490 396 l 490 412 q 466 545 490 505 q 395 585 443 585 q 303 529 337 585 q 263 396 269 474 l 490 396 z "},"f":{"ha":492,"x_min":31,"x_max":608,"o":"m 328 549 l 328 191 q 329 80 328 127 q 347 56 330 61 l 439 31 l 441 -2 q 233 0 332 0 q 34 -2 132 0 l 31 31 l 114 53 q 134 75 133 58 q 136 163 136 117 l 136 553 l 37 576 l 31 613 l 136 622 q 222 917 136 812 q 460 1022 308 1022 q 608 1003 541 1022 q 572 811 586 907 l 534 804 l 492 956 q 469 958 482 958 q 362 890 397 958 q 328 642 328 823 l 328 623 l 492 623 l 492 549 l 328 549 z "},"g":{"ha":758,"x_min":33,"x_max":751,"o":"m 751 595 l 593 555 q 644 425 644 497 q 565 251 644 315 q 357 186 486 186 q 216 209 277 186 q 189 129 189 161 q 207 105 189 111 q 281 99 225 99 q 381 100 322 99 q 488 101 440 101 q 665 59 603 101 q 726 -70 726 16 q 601 -273 726 -197 q 316 -349 475 -349 q 109 -310 185 -349 q 33 -210 33 -271 q 138 -44 33 -130 q 68 40 68 -16 q 171 230 68 107 q 68 410 68 290 q 147 580 68 515 q 360 644 226 644 q 456 636 395 644 q 546 627 514 627 q 747 629 657 627 l 751 595 m 197 -53 q 165 -165 165 -113 q 214 -248 165 -218 q 348 -278 263 -278 q 524 -238 450 -278 q 599 -132 599 -199 q 568 -73 599 -95 q 434 -52 538 -52 q 346 -53 393 -51 q 258 -55 298 -55 q 197 -53 229 -55 m 260 421 q 283 285 260 333 q 359 237 305 237 q 433 282 413 237 q 453 414 453 327 q 431 545 453 497 q 354 593 410 593 q 280 549 300 593 q 260 421 260 505 z "},"h":{"ha":885,"x_min":26,"x_max":866,"o":"m 551 648 q 707 594 650 648 q 763 441 763 540 l 763 203 q 764 77 763 118 q 782 54 765 59 l 864 31 l 866 -2 q 671 0 769 0 q 488 -2 569 0 l 485 31 l 553 51 q 570 71 568 56 q 570 114 570 81 l 570 398 q 538 518 570 481 q 441 554 505 554 q 325 528 385 554 l 325 230 q 326 75 325 145 q 342 52 327 56 l 412 31 l 414 -2 q 231 0 330 0 q 32 -2 130 0 l 28 31 l 116 54 q 132 75 131 58 q 132 158 132 118 l 132 751 q 130 915 132 840 l 30 942 l 26 970 q 321 1022 195 995 l 329 1017 q 325 817 325 923 l 325 579 q 551 648 439 648 z "},"i":{"ha":460,"x_min":31,"x_max":433,"o":"m 330 875 q 300 799 330 828 q 221 770 270 770 q 148 797 176 770 q 119 869 119 825 q 149 945 119 917 q 229 972 180 972 q 302 947 273 972 q 330 875 330 922 m 32 598 q 325 650 199 623 l 332 645 q 328 446 328 551 l 328 190 q 330 77 328 109 q 347 54 331 59 l 431 31 l 433 -2 q 234 0 333 0 q 35 -2 133 0 l 31 31 l 117 54 q 134 75 133 58 q 136 163 136 101 l 136 382 q 133 545 136 471 l 36 570 l 32 598 z "},"j":{"ha":437,"x_min":-7,"x_max":322,"o":"m 22 598 q 314 650 189 623 l 322 645 q 318 452 318 557 l 318 89 q 245 -137 318 -47 q 31 -342 172 -227 l -7 -309 q 106 -118 87 -181 q 125 57 125 -55 l 125 385 q 123 545 125 467 l 26 570 l 22 598 m 320 875 q 290 799 320 828 q 211 770 260 770 q 137 797 166 770 q 109 869 109 825 q 139 945 109 917 q 218 972 169 972 q 292 947 263 972 q 320 875 320 922 z "},"k":{"ha":846,"x_min":26,"x_max":846,"o":"m 26 970 q 321 1022 195 995 l 329 1017 q 325 817 325 923 l 325 189 q 326 76 325 108 q 343 53 328 58 l 416 31 l 419 -2 q 231 0 330 0 q 31 -2 130 0 l 28 31 l 114 54 q 131 75 130 58 q 132 163 132 101 l 132 751 q 130 915 132 840 l 30 942 l 26 970 m 846 -2 q 663 0 723 0 q 562 -1 621 0 q 509 83 539 37 q 337 326 431 203 l 597 581 l 523 600 l 519 632 q 661 630 602 630 q 819 632 709 630 l 822 600 q 706 564 738 581 q 637 513 675 548 l 513 394 l 720 104 q 760 61 741 75 q 844 31 779 47 l 846 -2 z "},"l":{"ha":457,"x_min":26,"x_max":430,"o":"m 26 970 q 321 1022 195 995 l 329 1017 q 325 817 325 923 l 325 190 q 326 77 325 109 q 343 54 328 59 l 428 31 l 430 -2 q 231 0 330 0 q 31 -2 130 0 l 28 31 l 114 54 q 131 75 130 58 q 132 163 132 101 l 132 751 q 130 915 132 840 l 30 942 l 26 970 z "},"m":{"ha":1300,"x_min":32,"x_max":1281,"o":"m 1178 203 q 1179 77 1178 118 q 1197 54 1180 59 l 1279 31 l 1281 -2 q 1086 0 1184 0 q 907 -2 984 0 l 903 31 l 968 51 q 985 71 983 56 q 985 114 985 81 l 985 398 q 955 518 985 481 q 862 554 924 554 q 744 515 806 554 q 753 441 753 481 l 753 203 q 755 75 753 118 q 770 52 755 56 l 838 31 l 840 -2 q 661 0 760 0 q 482 -2 559 0 l 479 31 l 543 51 q 560 71 559 56 q 561 114 561 81 l 561 398 q 530 518 561 481 q 438 554 499 554 q 328 522 385 554 l 328 230 q 330 75 328 145 q 345 52 330 56 l 413 31 l 414 -2 q 234 0 333 0 q 35 -2 133 0 l 32 31 l 119 54 q 135 75 134 58 q 136 158 136 118 l 136 381 q 133 545 136 470 l 36 570 l 32 598 q 318 650 189 621 l 328 644 l 328 572 q 548 648 439 648 q 726 558 671 648 q 972 648 852 648 q 1123 594 1068 648 q 1178 441 1178 540 l 1178 203 z "},"n":{"ha":888,"x_min":32,"x_max":869,"o":"m 32 598 q 318 650 189 621 l 328 644 l 328 572 q 555 648 443 648 q 710 594 654 648 q 766 441 766 540 l 766 203 q 768 77 766 118 q 785 54 768 59 l 867 31 l 869 -2 q 674 0 772 0 q 491 -2 572 0 l 488 31 l 556 51 q 573 71 572 56 q 574 114 574 81 l 574 398 q 541 518 574 481 q 444 554 509 554 q 328 522 388 554 l 328 230 q 330 75 328 145 q 345 52 330 56 l 416 31 l 417 -2 q 234 0 333 0 q 35 -2 133 0 l 32 31 l 119 54 q 135 75 134 58 q 136 158 136 118 l 136 381 q 133 545 136 470 l 36 570 l 32 598 z "},"o":{"ha":831,"x_min":54,"x_max":777,"o":"m 264 322 q 301 122 264 199 q 420 45 338 45 q 531 113 496 45 q 567 314 567 180 q 529 512 567 439 q 412 584 492 584 q 301 519 337 584 q 264 322 264 454 m 777 328 q 674 77 777 173 q 406 -19 571 -19 q 149 72 245 -19 q 54 309 54 162 q 154 552 54 457 q 425 648 254 648 q 682 560 587 648 q 777 328 777 472 z "},"p":{"ha":849,"x_min":18,"x_max":795,"o":"m 22 570 l 18 598 q 305 650 175 621 l 315 644 l 315 581 q 518 648 420 648 q 721 563 646 648 q 795 342 795 479 q 690 77 795 174 q 412 -19 585 -19 q 315 -9 366 -19 l 315 -153 q 317 -247 315 -220 q 335 -272 318 -268 l 431 -297 l 433 -330 q 221 -328 320 -328 q 22 -330 119 -328 l 18 -297 l 104 -273 q 121 -253 120 -269 q 122 -102 122 -203 l 122 168 q 119 545 122 464 l 22 570 m 315 58 q 407 48 363 48 q 543 117 496 48 q 589 313 589 185 q 545 494 589 433 q 420 555 502 555 q 315 533 361 555 l 315 58 z "},"q":{"ha":840,"x_min":53,"x_max":828,"o":"m 533 568 q 449 579 490 579 q 307 511 353 579 q 260 319 260 442 q 303 139 260 205 q 426 73 345 73 q 533 96 483 73 l 533 568 m 730 645 q 725 332 725 513 l 725 -111 q 726 -250 725 -223 q 742 -273 726 -269 l 825 -297 l 828 -330 q 631 -328 730 -328 q 432 -330 530 -328 l 429 -297 l 514 -273 q 532 -253 531 -269 q 533 -47 533 -171 l 533 45 q 337 -19 439 -19 q 131 70 208 -19 q 53 291 53 158 q 156 553 53 459 q 437 648 258 648 q 600 627 515 648 q 722 650 652 635 l 730 645 z "},"r":{"ha":603,"x_min":32,"x_max":583,"o":"m 32 598 q 318 650 189 621 l 328 644 l 328 571 q 579 648 448 648 l 583 643 q 541 412 561 535 l 502 406 q 467 509 484 473 q 414 545 450 545 q 328 522 380 545 l 328 231 q 330 80 328 125 q 347 56 330 61 l 444 31 l 446 -2 q 231 0 333 0 q 35 -2 133 0 l 32 31 l 118 54 q 135 75 134 59 q 136 158 136 104 l 136 385 q 133 545 136 495 l 36 570 l 32 598 z "},"s":{"ha":634,"x_min":54,"x_max":582,"o":"m 444 571 q 351 581 401 581 q 251 559 290 581 q 212 498 212 538 q 229 451 212 467 q 287 420 245 434 l 395 382 q 537 301 492 349 q 582 191 582 254 q 498 36 582 92 q 278 -19 414 -19 q 54 28 164 -19 q 92 204 77 119 l 127 210 l 176 62 q 279 47 217 47 q 375 70 338 47 q 412 132 412 92 q 390 188 412 165 q 302 233 368 211 l 219 262 q 100 334 140 290 q 60 443 60 378 q 138 595 60 542 q 353 648 216 648 q 556 614 465 648 q 522 446 536 526 l 484 441 l 444 571 z "},"t":{"ha":541,"x_min":17,"x_max":511,"o":"m 307 549 q 303 191 303 338 q 324 96 303 122 q 405 70 345 70 q 505 75 451 70 l 511 35 q 309 -18 403 -18 q 162 21 214 -18 q 111 141 111 61 q 115 553 111 282 l 23 576 l 17 613 l 130 623 l 195 783 q 300 802 252 793 l 309 798 q 307 623 307 715 l 497 623 l 497 549 l 307 549 z "},"u":{"ha":871,"x_min":12,"x_max":841,"o":"m 553 54 q 336 -19 454 -19 q 171 35 227 -19 q 115 188 115 90 l 115 332 q 113 545 115 477 l 16 570 l 12 598 q 304 650 178 623 l 312 645 q 308 435 308 560 l 308 227 q 339 110 308 146 q 429 73 371 73 q 547 101 493 73 l 547 390 q 544 547 547 485 l 452 570 l 448 598 q 735 650 609 623 l 743 645 q 739 431 739 558 q 739 131 739 185 q 743 87 740 104 q 756 62 747 71 q 784 49 766 53 q 838 45 803 45 l 841 15 q 673 -19 743 -19 q 553 54 582 -19 z "},"v":{"ha":720,"x_min":-18,"x_max":729,"o":"m -18 632 q 170 630 71 630 q 349 632 263 630 l 353 600 l 280 579 q 382 302 323 452 q 414 214 398 262 q 448 302 431 260 q 555 579 503 438 l 484 600 l 481 632 q 604 630 530 630 q 726 632 665 630 l 729 600 l 656 580 q 629 553 639 574 q 505 257 576 430 q 397 -6 433 85 l 311 -16 q 202 256 273 84 q 82 550 132 429 q 52 581 71 574 l -16 600 l -18 632 z "},"w":{"ha":1060,"x_min":-12,"x_max":1067,"o":"m 623 633 q 734 304 663 513 q 763 214 748 262 q 795 304 779 261 q 892 579 845 439 l 822 600 l 819 632 q 943 630 868 630 q 1063 632 1003 630 l 1067 600 l 994 580 q 967 553 977 574 q 849 259 917 431 q 746 -3 781 87 l 659 -12 q 562 260 623 87 q 530 359 545 314 q 494 260 512 313 q 393 -3 428 87 l 306 -12 q 203 258 270 87 q 88 550 136 429 q 58 581 77 574 l -9 600 l -12 632 q 176 630 77 630 q 355 632 269 630 l 359 600 l 286 579 q 380 304 326 454 q 410 214 395 262 q 442 304 425 261 q 555 627 509 491 l 623 633 z "},"x":{"ha":741,"x_min":9,"x_max":734,"o":"m 188 441 l 117 552 q 81 581 104 573 l 15 600 l 12 632 q 202 630 101 630 q 363 632 279 630 l 366 600 l 312 585 q 412 418 344 531 q 528 583 478 511 l 477 600 l 473 632 q 578 630 526 630 q 699 632 643 630 l 702 600 l 631 582 q 598 557 613 576 q 450 358 530 470 q 630 76 548 201 q 665 49 643 56 l 730 31 l 734 -2 q 544 0 645 0 q 384 -2 467 0 l 380 31 l 434 45 q 317 230 392 114 q 190 47 249 135 l 241 31 l 244 -2 q 140 0 193 0 q 12 -2 75 0 l 9 31 l 82 48 q 122 78 104 55 q 281 290 195 170 l 188 441 z "},"y":{"ha":711,"x_min":-24,"x_max":727,"o":"m -24 632 q 139 630 66 630 q 341 632 234 630 l 345 600 l 260 578 q 310 451 286 511 q 373 298 334 391 q 411 208 391 260 q 452 313 431 261 q 553 579 507 458 l 483 600 l 479 632 q 604 630 532 630 q 724 632 667 630 l 727 600 l 662 582 q 631 554 640 575 q 578 429 607 498 q 441 79 490 218 q 385 -105 410 -11 q 345 -270 359 -199 q 317 -323 337 -309 q 225 -337 296 -337 q 83 -332 151 -337 l 79 -300 q 189 -257 158 -290 q 327 -5 234 -210 l 332 8 l 296 18 q 74 553 174 320 q 43 581 66 574 l -22 600 l -24 632 z "},"z":{"ha":706,"x_min":51,"x_max":648,"o":"m 51 6 q 219 280 155 172 q 390 565 283 388 l 176 565 l 132 427 l 99 422 q 66 626 84 528 l 68 632 q 323 630 203 630 q 640 632 509 630 l 646 625 q 479 351 556 480 q 312 67 403 222 l 528 67 l 612 210 l 648 214 q 631 3 636 108 l 627 -2 q 367 0 510 0 q 56 -2 167 0 l 51 6 z "},"à":{"ha":744,"x_min":36,"x_max":720,"o":"m 431 302 q 279 275 324 302 q 233 182 233 248 q 266 97 233 122 q 342 71 298 71 q 429 97 392 71 l 431 302 m 99 582 q 377 648 243 648 q 560 593 499 648 q 620 436 621 538 l 616 154 q 618 98 615 119 q 630 66 621 77 q 660 50 640 55 q 715 45 679 45 l 720 14 q 556 -19 625 -19 q 435 54 464 -19 q 252 -19 349 -19 q 97 28 158 -19 q 36 161 36 75 q 135 317 36 267 q 431 366 233 366 l 431 417 q 396 524 432 490 q 286 558 361 558 q 118 528 216 558 l 99 582 m 404 708 l 347 708 l 179 964 l 343 964 l 404 708 m 78 631 z "},"á":{"ha":744,"x_min":36,"x_max":720,"o":"m 431 302 q 279 275 324 302 q 233 182 233 248 q 266 97 233 122 q 342 71 298 71 q 429 97 392 71 l 431 302 m 99 582 q 377 648 243 648 q 560 593 499 648 q 620 436 621 538 l 616 154 q 618 98 615 119 q 630 66 621 77 q 660 50 640 55 q 715 45 679 45 l 720 14 q 556 -19 625 -19 q 435 54 464 -19 q 252 -19 349 -19 q 97 28 158 -19 q 36 161 36 75 q 135 317 36 267 q 431 366 233 366 l 431 417 q 396 524 432 490 q 286 558 361 558 q 118 528 216 558 l 99 582 m 380 964 l 544 964 l 376 708 l 319 708 l 380 964 m 78 631 z "},"â":{"ha":744,"x_min":36,"x_max":720,"o":"m 431 302 q 279 275 324 302 q 233 182 233 248 q 266 97 233 122 q 342 71 298 71 q 429 97 392 71 l 431 302 m 99 582 q 377 648 243 648 q 560 593 499 648 q 620 436 621 538 l 616 154 q 618 98 615 119 q 630 66 621 77 q 660 50 640 55 q 715 45 679 45 l 720 14 q 556 -19 625 -19 q 435 54 464 -19 q 252 -19 349 -19 q 97 28 158 -19 q 36 161 36 75 q 135 317 36 267 q 431 366 233 366 l 431 417 q 396 524 432 490 q 286 558 361 558 q 118 528 216 558 l 99 582 m 568 708 l 507 708 l 361 860 l 216 708 l 155 708 l 291 964 l 432 964 l 568 708 m 78 631 z "},"ã":{"ha":744,"x_min":36,"x_max":720,"o":"m 431 302 q 279 275 324 302 q 233 182 233 248 q 266 97 233 122 q 342 71 298 71 q 429 97 392 71 l 431 302 m 99 582 q 377 648 243 648 q 560 593 499 648 q 620 436 621 538 l 616 154 q 618 98 615 119 q 630 66 621 77 q 660 50 640 55 q 715 45 679 45 l 720 14 q 556 -19 625 -19 q 435 54 464 -19 q 252 -19 349 -19 q 97 28 158 -19 q 36 161 36 75 q 135 317 36 267 q 431 366 233 366 l 431 417 q 396 524 432 490 q 286 558 361 558 q 118 528 216 558 l 99 582 m 607 903 q 447 754 526 754 q 398 765 420 754 q 348 791 376 775 q 325 805 335 799 q 306 814 315 810 q 289 821 297 819 q 272 823 281 823 q 234 811 251 823 q 176 755 217 800 l 140 785 q 224 897 189 865 q 297 930 259 930 q 337 923 318 930 q 391 896 356 916 q 418 881 406 887 q 439 870 429 874 q 456 863 448 865 q 474 861 465 861 q 512 872 496 861 q 569 929 528 884 l 607 903 m 78 631 z "},"ä":{"ha":744,"x_min":36,"x_max":720,"o":"m 431 302 q 279 275 324 302 q 233 182 233 248 q 266 97 233 122 q 342 71 298 71 q 429 97 392 71 l 431 302 m 99 582 q 377 648 243 648 q 560 593 499 648 q 620 436 621 538 l 616 154 q 618 98 615 119 q 630 66 621 77 q 660 50 640 55 q 715 45 679 45 l 720 14 q 556 -19 625 -19 q 435 54 464 -19 q 252 -19 349 -19 q 97 28 158 -19 q 36 161 36 75 q 135 317 36 267 q 431 366 233 366 l 431 417 q 396 524 432 490 q 286 558 361 558 q 118 528 216 558 l 99 582 m 314 878 q 287 808 314 834 q 216 782 259 782 q 149 807 175 782 q 123 871 123 831 q 150 940 123 915 q 222 966 178 966 q 288 942 262 966 q 314 878 314 919 m 603 878 q 575 808 603 834 q 505 782 548 782 q 438 807 464 782 q 412 871 412 831 q 439 940 412 915 q 511 966 467 966 q 577 942 551 966 q 603 878 603 919 m 78 631 z "},"ā":{"ha":744,"x_min":36,"x_max":720,"o":"m 431 302 q 279 275 324 302 q 233 182 233 248 q 266 97 233 122 q 342 71 298 71 q 429 97 392 71 l 431 302 m 99 582 q 377 648 243 648 q 560 593 499 648 q 620 436 621 538 l 616 154 q 618 98 615 119 q 630 66 621 77 q 660 50 640 55 q 715 45 679 45 l 720 14 q 556 -19 625 -19 q 435 54 464 -19 q 252 -19 349 -19 q 97 28 158 -19 q 36 161 36 75 q 135 317 36 267 q 431 366 233 366 l 431 417 q 396 524 432 490 q 286 558 361 558 q 118 528 216 558 l 99 582 m 168 803 l 168 886 l 557 886 l 557 803 l 168 803 m 78 631 z "},"ă":{"ha":744,"x_min":36,"x_max":720,"o":"m 431 302 q 279 275 324 302 q 233 182 233 248 q 266 97 233 122 q 342 71 298 71 q 429 97 392 71 l 431 302 m 99 582 q 377 648 243 648 q 560 593 499 648 q 620 436 621 538 l 616 154 q 618 98 615 119 q 630 66 621 77 q 660 50 640 55 q 715 45 679 45 l 720 14 q 556 -19 625 -19 q 435 54 464 -19 q 252 -19 349 -19 q 97 28 158 -19 q 36 161 36 75 q 135 317 36 267 q 431 366 233 366 l 431 417 q 396 524 432 490 q 286 558 361 558 q 118 528 216 558 l 99 582 m 228 949 q 273 852 237 884 q 364 819 308 819 q 456 851 421 819 q 503 944 490 883 l 555 949 q 504 777 555 842 q 359 711 452 711 q 224 769 273 711 q 175 944 175 827 l 228 949 m 78 631 z "},"å":{"ha":744,"x_min":36,"x_max":720,"o":"m 431 302 q 279 275 324 302 q 233 182 233 248 q 266 97 233 122 q 342 71 298 71 q 429 97 392 71 l 431 302 m 99 582 q 377 648 243 648 q 560 593 499 648 q 620 436 621 538 l 616 154 q 618 98 615 119 q 630 66 621 77 q 660 50 640 55 q 715 45 679 45 l 720 14 q 556 -19 625 -19 q 435 54 464 -19 q 252 -19 349 -19 q 97 28 158 -19 q 36 161 36 75 q 135 317 36 267 q 431 366 233 366 l 431 417 q 396 524 432 490 q 286 558 361 558 q 118 528 216 558 l 99 582 m 359 708 q 245 741 288 708 q 203 834 203 774 q 251 936 203 897 q 366 974 299 974 q 478 938 433 974 q 523 842 523 902 q 477 744 523 781 q 359 708 431 708 m 363 755 q 413 775 393 755 q 433 837 433 794 q 413 902 433 878 q 363 926 394 926 q 312 906 332 926 q 293 844 293 886 q 312 779 293 802 q 363 755 332 755 m 78 631 z "},"ǻ":{"ha":744,"x_min":36,"x_max":720,"o":"m 431 302 q 279 275 324 302 q 233 182 233 248 q 266 97 233 122 q 342 71 298 71 q 429 97 392 71 l 431 302 m 99 582 q 377 648 243 648 q 560 593 499 648 q 620 436 621 538 l 616 154 q 618 98 615 119 q 630 66 621 77 q 660 50 640 55 q 715 45 679 45 l 720 14 q 556 -19 625 -19 q 435 54 464 -19 q 252 -19 349 -19 q 97 28 158 -19 q 36 161 36 75 q 135 317 36 267 q 431 366 233 366 l 431 417 q 396 524 432 490 q 286 558 361 558 q 118 528 216 558 l 99 582 m 359 695 q 245 728 288 695 q 203 821 203 761 q 251 923 203 884 q 366 961 299 961 q 478 925 433 961 q 523 829 523 889 q 477 731 523 768 q 359 695 431 695 m 363 743 q 413 762 393 743 q 433 824 433 781 q 413 889 433 865 q 363 913 394 913 q 312 893 332 913 q 293 831 293 873 q 312 766 293 789 q 363 743 332 743 m 78 618 m 380 1256 l 544 1256 l 376 1000 l 319 1000 l 380 1256 m 78 922 z "},"ą":{"ha":747,"x_min":36,"x_max":723,"o":"m 99 582 q 377 648 243 648 q 560 593 499 648 q 620 436 621 538 l 616 154 q 618 98 615 119 q 630 66 621 77 q 660 50 640 55 q 715 45 679 45 l 720 14 q 605 -16 656 -8 q 536 -138 536 -60 q 578 -230 536 -199 q 690 -261 621 -261 q 718 -260 700 -261 l 723 -295 q 545 -332 614 -332 q 416 -297 459 -332 q 374 -201 374 -261 q 514 -15 374 -102 q 435 54 457 -1 q 252 -19 349 -19 q 97 28 158 -19 q 36 161 36 75 q 135 317 36 267 q 431 366 233 366 l 431 417 q 396 524 432 490 q 286 558 361 558 q 118 528 216 558 l 99 582 m 431 302 q 279 275 324 302 q 233 182 233 248 q 266 97 233 122 q 342 71 298 71 q 429 97 392 71 l 431 302 z "},"æ":{"ha":1112,"x_min":36,"x_max":1061,"o":"m 99 582 q 376 648 243 648 q 566 578 506 648 q 782 648 656 648 q 988 571 916 648 q 1061 358 1061 494 q 1059 315 1061 337 l 626 315 q 693 131 626 186 q 912 75 760 75 q 1053 87 986 75 l 1059 45 q 799 -19 935 -19 q 502 83 608 -19 q 261 -19 389 -19 q 97 30 159 -19 q 36 168 36 79 q 135 330 36 279 q 431 381 233 381 l 431 428 q 396 527 432 495 q 286 558 361 558 q 118 528 216 558 l 99 582 m 431 315 q 279 287 324 315 q 233 187 233 258 q 266 97 233 123 q 343 71 299 71 q 473 120 416 71 q 431 304 431 193 l 431 315 m 855 381 l 855 399 q 831 542 855 498 q 760 585 808 585 q 668 525 703 585 q 629 381 634 466 l 855 381 z "},"ǽ":{"ha":1112,"x_min":36,"x_max":1061,"o":"m 99 582 q 376 648 243 648 q 566 578 506 648 q 782 648 656 648 q 988 571 916 648 q 1061 358 1061 494 q 1059 315 1061 337 l 626 315 q 693 131 626 186 q 912 75 760 75 q 1053 87 986 75 l 1059 45 q 799 -19 935 -19 q 502 83 608 -19 q 261 -19 389 -19 q 97 30 159 -19 q 36 168 36 79 q 135 330 36 279 q 431 381 233 381 l 431 428 q 396 527 432 495 q 286 558 361 558 q 118 528 216 558 l 99 582 m 431 315 q 279 287 324 315 q 233 187 233 258 q 266 97 233 123 q 343 71 299 71 q 473 120 416 71 q 431 304 431 193 l 431 315 m 855 381 l 855 399 q 831 542 855 498 q 760 585 808 585 q 668 525 703 585 q 629 381 634 466 l 855 381 m 587 964 l 751 964 l 583 708 l 526 708 l 587 964 m 285 631 z "},"ć":{"ha":673,"x_min":53,"x_max":625,"o":"m 625 45 q 393 -19 513 -19 q 149 67 244 -19 q 53 297 53 153 q 157 551 53 454 q 422 648 261 648 q 620 609 525 648 q 577 408 595 513 l 540 402 l 488 572 q 438 578 469 578 q 311 511 361 578 q 262 330 262 444 q 325 135 262 198 q 503 73 387 73 q 620 85 559 73 l 625 45 m 420 964 l 585 964 l 416 708 l 359 708 l 420 964 m 119 631 z "},"ĉ":{"ha":673,"x_min":53,"x_max":625,"o":"m 625 45 q 393 -19 513 -19 q 149 67 244 -19 q 53 297 53 153 q 157 551 53 454 q 422 648 261 648 q 620 609 525 648 q 577 408 595 513 l 540 402 l 488 572 q 438 578 469 578 q 311 511 361 578 q 262 330 262 444 q 325 135 262 198 q 503 73 387 73 q 620 85 559 73 l 625 45 m 608 708 l 547 708 l 402 860 l 257 708 l 196 708 l 332 964 l 473 964 l 608 708 m 119 631 z "},"č":{"ha":673,"x_min":53,"x_max":625,"o":"m 625 45 q 393 -19 513 -19 q 149 67 244 -19 q 53 297 53 153 q 157 551 53 454 q 422 648 261 648 q 620 609 525 648 q 577 408 595 513 l 540 402 l 488 572 q 438 578 469 578 q 311 511 361 578 q 262 330 262 444 q 325 135 262 198 q 503 73 387 73 q 620 85 559 73 l 625 45 m 199 964 l 260 964 l 405 812 l 550 964 l 611 964 l 475 708 l 334 708 l 199 964 m 119 631 z "},"ċ":{"ha":673,"x_min":53,"x_max":625,"o":"m 625 45 q 393 -19 513 -19 q 149 67 244 -19 q 53 297 53 153 q 157 551 53 454 q 422 648 261 648 q 620 609 525 648 q 577 408 595 513 l 540 402 l 488 572 q 438 578 469 578 q 311 511 361 578 q 262 330 262 444 q 325 135 262 198 q 503 73 387 73 q 620 85 559 73 l 625 45 m 505 875 q 475 800 505 829 q 400 772 446 772 q 330 799 357 772 q 302 869 302 825 q 331 943 302 916 q 407 970 360 970 q 477 946 450 970 q 505 875 505 921 m 119 631 z "},"ç":{"ha":673,"x_min":53,"x_max":625,"o":"m 272 -130 l 359 -18 q 140 76 227 -9 q 53 297 53 160 q 157 551 53 454 q 422 648 261 648 q 620 609 525 648 q 577 408 595 513 l 540 402 l 488 572 q 438 578 469 578 q 311 511 361 578 q 262 330 262 444 q 325 135 262 198 q 503 73 387 73 q 620 85 559 73 l 625 45 q 420 -18 526 -12 l 381 -71 q 460 -162 460 -105 q 316 -335 460 -238 l 290 -307 q 357 -207 357 -253 q 275 -136 357 -157 l 272 -130 z "},"ď":{"ha":958,"x_min":54,"x_max":978,"o":"m 534 564 q 452 576 497 576 q 310 512 359 576 q 261 319 261 448 q 304 140 261 208 q 427 73 348 73 q 534 98 485 73 l 534 564 m 427 970 q 722 1022 592 995 l 730 1017 q 726 705 726 871 l 726 336 q 726 153 726 247 q 729 97 726 118 q 741 65 732 76 q 769 50 750 54 q 825 45 788 45 l 829 15 q 660 -19 730 -19 q 541 55 569 -19 q 344 -19 452 -19 q 132 70 210 -19 q 54 291 54 158 q 154 553 54 460 q 436 646 255 646 q 534 638 481 646 q 531 915 534 781 l 431 942 l 427 970 m 798 685 q 871 827 871 758 q 800 926 871 890 q 824 984 800 962 q 885 1006 847 1006 q 952 977 926 1006 q 978 897 978 948 q 825 656 978 768 l 798 685 m 861 631 z "},"đ":{"ha":861,"x_min":53,"x_max":832,"o":"m 426 970 q 722 1022 591 995 l 730 1017 q 725 810 726 916 l 832 810 l 832 745 l 725 745 l 725 336 q 726 153 725 247 q 728 97 726 118 q 740 65 731 76 q 768 50 749 54 q 821 45 787 45 l 824 15 q 659 -19 729 -19 q 540 55 568 -19 q 343 -19 451 -19 q 131 68 209 -19 q 53 285 53 155 q 154 541 53 451 q 435 631 254 631 q 533 624 480 631 l 533 745 l 290 745 l 290 810 l 532 810 q 530 915 532 863 l 431 942 l 426 970 m 533 550 q 451 562 496 562 q 309 500 358 562 q 260 313 260 438 q 304 138 260 203 q 426 73 347 73 q 533 98 484 73 l 533 550 z "},"è":{"ha":747,"x_min":54,"x_max":696,"o":"m 693 45 q 429 -19 568 -19 q 158 63 263 -19 q 54 304 54 144 q 154 552 54 456 q 411 648 255 648 q 622 574 547 648 q 696 371 696 500 q 694 330 696 351 l 260 330 q 327 134 260 194 q 547 75 394 75 q 688 87 621 75 l 693 45 m 490 396 l 490 412 q 466 545 490 505 q 395 585 443 585 q 303 529 337 585 q 263 396 269 474 l 490 396 m 441 708 l 385 708 l 216 964 l 380 964 l 441 708 m 115 631 z "},"é":{"ha":747,"x_min":54,"x_max":696,"o":"m 693 45 q 429 -19 568 -19 q 158 63 263 -19 q 54 304 54 144 q 154 552 54 456 q 411 648 255 648 q 622 574 547 648 q 696 371 696 500 q 694 330 696 351 l 260 330 q 327 134 260 194 q 547 75 394 75 q 688 87 621 75 l 693 45 m 490 396 l 490 412 q 466 545 490 505 q 395 585 443 585 q 303 529 337 585 q 263 396 269 474 l 490 396 m 417 964 l 581 964 l 413 708 l 356 708 l 417 964 m 115 631 z "},"ê":{"ha":747,"x_min":54,"x_max":696,"o":"m 693 45 q 429 -19 568 -19 q 158 63 263 -19 q 54 304 54 144 q 154 552 54 456 q 411 648 255 648 q 622 574 547 648 q 696 371 696 500 q 694 330 696 351 l 260 330 q 327 134 260 194 q 547 75 394 75 q 688 87 621 75 l 693 45 m 490 396 l 490 412 q 466 545 490 505 q 395 585 443 585 q 303 529 337 585 q 263 396 269 474 l 490 396 m 605 708 l 544 708 l 399 860 l 254 708 l 193 708 l 328 964 l 469 964 l 605 708 m 115 631 z "},"ě":{"ha":747,"x_min":54,"x_max":696,"o":"m 693 45 q 429 -19 568 -19 q 158 63 263 -19 q 54 304 54 144 q 154 552 54 456 q 411 648 255 648 q 622 574 547 648 q 696 371 696 500 q 694 330 696 351 l 260 330 q 327 134 260 194 q 547 75 394 75 q 688 87 621 75 l 693 45 m 490 396 l 490 412 q 466 545 490 505 q 395 585 443 585 q 303 529 337 585 q 263 396 269 474 l 490 396 m 195 964 l 256 964 l 401 812 l 547 964 l 608 964 l 472 708 l 331 708 l 195 964 m 115 631 z "},"ë":{"ha":747,"x_min":54,"x_max":696,"o":"m 693 45 q 429 -19 568 -19 q 158 63 263 -19 q 54 304 54 144 q 154 552 54 456 q 411 648 255 648 q 622 574 547 648 q 696 371 696 500 q 694 330 696 351 l 260 330 q 327 134 260 194 q 547 75 394 75 q 688 87 621 75 l 693 45 m 490 396 l 490 412 q 466 545 490 505 q 395 585 443 585 q 303 529 337 585 q 263 396 269 474 l 490 396 m 351 878 q 324 808 351 834 q 253 782 296 782 q 186 807 212 782 q 160 871 160 831 q 188 940 160 915 q 259 966 215 966 q 326 942 300 966 q 351 878 351 919 m 640 878 q 613 808 640 834 q 542 782 585 782 q 475 807 501 782 q 449 871 449 831 q 476 940 449 915 q 548 966 504 966 q 614 942 589 966 q 640 878 640 919 m 115 631 z "},"ē":{"ha":747,"x_min":54,"x_max":696,"o":"m 693 45 q 429 -19 568 -19 q 158 63 263 -19 q 54 304 54 144 q 154 552 54 456 q 411 648 255 648 q 622 574 547 648 q 696 371 696 500 q 694 330 696 351 l 260 330 q 327 134 260 194 q 547 75 394 75 q 688 87 621 75 l 693 45 m 490 396 l 490 412 q 466 545 490 505 q 395 585 443 585 q 303 529 337 585 q 263 396 269 474 l 490 396 m 205 803 l 205 886 l 594 886 l 594 803 l 205 803 m 115 631 z "},"ĕ":{"ha":747,"x_min":54,"x_max":696,"o":"m 693 45 q 429 -19 568 -19 q 158 63 263 -19 q 54 304 54 144 q 154 552 54 456 q 411 648 255 648 q 622 574 547 648 q 696 371 696 500 q 694 330 696 351 l 260 330 q 327 134 260 194 q 547 75 394 75 q 688 87 621 75 l 693 45 m 490 396 l 490 412 q 466 545 490 505 q 395 585 443 585 q 303 529 337 585 q 263 396 269 474 l 490 396 m 265 949 q 310 852 275 884 q 401 819 345 819 q 493 851 458 819 q 541 944 528 883 l 592 949 q 541 777 592 842 q 397 711 490 711 q 261 769 310 711 q 212 944 212 827 l 265 949 m 115 631 z "},"ė":{"ha":747,"x_min":54,"x_max":696,"o":"m 693 45 q 429 -19 568 -19 q 158 63 263 -19 q 54 304 54 144 q 154 552 54 456 q 411 648 255 648 q 622 574 547 648 q 696 371 696 500 q 694 330 696 351 l 260 330 q 327 134 260 194 q 547 75 394 75 q 688 87 621 75 l 693 45 m 490 396 l 490 412 q 466 545 490 505 q 395 585 443 585 q 303 529 337 585 q 263 396 269 474 l 490 396 m 501 875 q 472 800 501 829 q 397 772 443 772 q 326 799 354 772 q 298 869 298 825 q 328 943 298 916 q 404 970 357 970 q 474 946 446 970 q 501 875 501 921 m 115 631 z "},"ę":{"ha":747,"x_min":54,"x_max":696,"o":"m 693 45 q 634 18 665 30 q 509 -138 509 -34 q 551 -230 509 -199 q 663 -261 593 -261 q 691 -260 673 -261 l 696 -295 q 518 -332 587 -332 q 389 -297 432 -332 q 347 -201 347 -261 q 486 -16 347 -104 q 430 -19 458 -19 q 159 63 264 -19 q 54 304 54 144 q 154 552 54 456 q 411 648 255 648 q 622 574 547 648 q 696 371 696 500 q 694 330 696 351 l 260 330 q 327 134 260 194 q 547 75 394 75 q 688 87 621 75 l 693 45 m 490 396 l 490 412 q 466 545 490 505 q 395 585 443 585 q 303 529 337 585 q 263 396 269 474 l 490 396 z "},"ĝ":{"ha":758,"x_min":33,"x_max":751,"o":"m 751 595 l 593 555 q 644 425 644 497 q 565 251 644 315 q 357 186 486 186 q 216 209 277 186 q 189 129 189 161 q 207 105 189 111 q 281 99 225 99 q 381 100 322 99 q 488 101 440 101 q 665 59 603 101 q 726 -70 726 16 q 601 -273 726 -197 q 316 -349 475 -349 q 109 -310 185 -349 q 33 -210 33 -271 q 138 -44 33 -130 q 68 40 68 -16 q 171 230 68 107 q 68 410 68 290 q 147 580 68 515 q 360 644 226 644 q 456 636 395 644 q 546 627 514 627 q 747 629 657 627 l 751 595 m 197 -53 q 165 -165 165 -113 q 214 -248 165 -218 q 348 -278 263 -278 q 524 -238 450 -278 q 599 -132 599 -199 q 568 -73 599 -95 q 434 -52 538 -52 q 346 -53 393 -51 q 258 -55 298 -55 q 197 -53 229 -55 m 260 421 q 283 285 260 333 q 359 237 305 237 q 433 282 413 237 q 453 414 453 327 q 431 545 453 497 q 354 593 410 593 q 280 549 300 593 q 260 421 260 505 m 571 708 l 510 708 l 365 860 l 220 708 l 159 708 l 294 964 l 435 964 l 571 708 m 81 631 z "},"ğ":{"ha":758,"x_min":33,"x_max":751,"o":"m 751 595 l 593 555 q 644 425 644 497 q 565 251 644 315 q 357 186 486 186 q 216 209 277 186 q 189 129 189 161 q 207 105 189 111 q 281 99 225 99 q 381 100 322 99 q 488 101 440 101 q 665 59 603 101 q 726 -70 726 16 q 601 -273 726 -197 q 316 -349 475 -349 q 109 -310 185 -349 q 33 -210 33 -271 q 138 -44 33 -130 q 68 40 68 -16 q 171 230 68 107 q 68 410 68 290 q 147 580 68 515 q 360 644 226 644 q 456 636 395 644 q 546 627 514 627 q 747 629 657 627 l 751 595 m 197 -53 q 165 -165 165 -113 q 214 -248 165 -218 q 348 -278 263 -278 q 524 -238 450 -278 q 599 -132 599 -199 q 568 -73 599 -95 q 434 -52 538 -52 q 346 -53 393 -51 q 258 -55 298 -55 q 197 -53 229 -55 m 260 421 q 283 285 260 333 q 359 237 305 237 q 433 282 413 237 q 453 414 453 327 q 431 545 453 497 q 354 593 410 593 q 280 549 300 593 q 260 421 260 505 m 231 949 q 276 852 241 884 q 368 819 311 819 q 459 851 425 819 q 507 944 494 883 l 558 949 q 507 777 558 842 q 363 711 456 711 q 227 769 276 711 q 178 944 178 827 l 231 949 m 81 631 z "},"ġ":{"ha":758,"x_min":33,"x_max":751,"o":"m 751 595 l 593 555 q 644 425 644 497 q 565 251 644 315 q 357 186 486 186 q 216 209 277 186 q 189 129 189 161 q 207 105 189 111 q 281 99 225 99 q 381 100 322 99 q 488 101 440 101 q 665 59 603 101 q 726 -70 726 16 q 601 -273 726 -197 q 316 -349 475 -349 q 109 -310 185 -349 q 33 -210 33 -271 q 138 -44 33 -130 q 68 40 68 -16 q 171 230 68 107 q 68 410 68 290 q 147 580 68 515 q 360 644 226 644 q 456 636 395 644 q 546 627 514 627 q 747 629 657 627 l 751 595 m 197 -53 q 165 -165 165 -113 q 214 -248 165 -218 q 348 -278 263 -278 q 524 -238 450 -278 q 599 -132 599 -199 q 568 -73 599 -95 q 434 -52 538 -52 q 346 -53 393 -51 q 258 -55 298 -55 q 197 -53 229 -55 m 260 421 q 283 285 260 333 q 359 237 305 237 q 433 282 413 237 q 453 414 453 327 q 431 545 453 497 q 354 593 410 593 q 280 549 300 593 q 260 421 260 505 m 467 875 q 438 800 467 829 q 363 772 409 772 q 292 799 320 772 q 264 869 264 825 q 294 943 264 916 q 370 970 323 970 q 440 946 412 970 q 467 875 467 921 m 81 631 z "},"ģ":{"ha":758,"x_min":33,"x_max":751,"o":"m 751 595 l 593 555 q 644 425 644 497 q 565 251 644 315 q 357 186 486 186 q 216 209 277 186 q 189 129 189 161 q 207 105 189 111 q 281 99 225 99 q 381 100 322 99 q 488 101 440 101 q 665 59 603 101 q 726 -70 726 16 q 601 -273 726 -197 q 316 -349 475 -349 q 109 -310 185 -349 q 33 -210 33 -271 q 138 -44 33 -130 q 68 40 68 -16 q 171 230 68 107 q 68 410 68 290 q 147 580 68 515 q 360 644 226 644 q 456 636 395 644 q 546 627 514 627 q 747 629 657 627 l 751 595 m 197 -53 q 165 -165 165 -113 q 214 -248 165 -218 q 348 -278 263 -278 q 524 -238 450 -278 q 599 -132 599 -199 q 568 -73 599 -95 q 434 -52 538 -52 q 346 -53 393 -51 q 258 -55 298 -55 q 197 -53 229 -55 m 260 421 q 283 285 260 333 q 359 237 305 237 q 433 282 413 237 q 453 414 453 327 q 431 545 453 497 q 354 593 410 593 q 280 549 300 593 q 260 421 260 505 m 453 966 q 387 852 387 910 q 446 783 387 802 q 422 727 446 748 q 366 705 399 705 q 304 730 328 705 q 281 795 281 755 q 427 990 281 899 l 453 966 m 652 632 z "},"ĥ":{"ha":885,"x_min":-64,"x_max":866,"o":"m 551 648 q 707 594 650 648 q 763 441 763 540 l 763 203 q 764 77 763 118 q 782 54 765 59 l 864 31 l 866 -2 q 671 0 769 0 q 488 -2 569 0 l 485 31 l 553 51 q 570 71 568 56 q 570 114 570 81 l 570 398 q 538 518 570 481 q 441 554 505 554 q 325 528 385 554 l 325 230 q 326 75 325 145 q 342 52 327 56 l 412 31 l 414 -2 q 231 0 330 0 q 32 -2 130 0 l 28 31 l 116 54 q 132 75 131 58 q 132 158 132 118 l 132 751 q 130 915 132 840 l 30 942 l 26 970 q 321 1022 195 995 l 329 1017 q 325 817 325 923 l 325 579 q 551 648 439 648 m 221 1135 l 1 1035 l -20 1070 l 164 1240 l 278 1240 l 463 1070 l 441 1035 l 221 1135 m -64 985 z "},"ħ":{"ha":885,"x_min":16,"x_max":866,"o":"m 551 630 q 707 576 650 630 q 763 423 763 522 l 763 203 q 764 77 763 118 q 782 54 765 59 l 864 31 l 866 -2 q 671 0 769 0 q 488 -2 569 0 l 485 31 l 553 51 q 570 71 568 56 q 570 114 570 81 l 570 380 q 538 500 570 464 q 441 536 505 536 q 325 511 385 536 l 325 230 q 326 75 325 145 q 342 52 327 56 l 412 31 l 414 -2 q 231 0 330 0 q 32 -2 130 0 l 28 31 l 116 54 q 132 75 131 58 q 132 158 132 118 l 132 745 l 16 745 l 16 810 l 132 810 q 130 915 132 854 l 30 942 l 26 970 q 321 1022 195 995 l 329 1017 q 325 810 325 923 l 574 810 l 574 745 l 325 745 l 325 561 q 551 630 439 630 z "},"ì":{"ha":460,"x_min":-60,"x_max":433,"o":"m 32 598 q 325 650 199 623 l 332 645 q 328 446 328 551 l 328 190 q 330 77 328 109 q 347 54 331 59 l 431 31 l 433 -2 q 234 0 333 0 q 35 -2 133 0 l 31 31 l 117 54 q 134 75 133 58 q 136 163 136 101 l 136 382 q 133 545 136 471 l 36 570 l 32 598 m 266 708 l 209 708 l 41 964 l 205 964 l 266 708 m -60 631 z "},"í":{"ha":460,"x_min":-60,"x_max":433,"o":"m 32 598 q 325 650 199 623 l 332 645 q 328 446 328 551 l 328 190 q 330 77 328 109 q 347 54 331 59 l 431 31 l 433 -2 q 234 0 333 0 q 35 -2 133 0 l 31 31 l 117 54 q 134 75 133 58 q 136 163 136 101 l 136 382 q 133 545 136 471 l 36 570 l 32 598 m 241 964 l 406 964 l 237 708 l 180 708 l 241 964 m -60 631 z "},"î":{"ha":460,"x_min":-60,"x_max":433,"o":"m 32 598 q 325 650 199 623 l 332 645 q 328 446 328 551 l 328 190 q 330 77 328 109 q 347 54 331 59 l 431 31 l 433 -2 q 234 0 333 0 q 35 -2 133 0 l 31 31 l 117 54 q 134 75 133 58 q 136 163 136 101 l 136 382 q 133 545 136 471 l 36 570 l 32 598 m 429 708 l 368 708 l 223 860 l 78 708 l 17 708 l 153 964 l 294 964 l 429 708 m -60 631 z "},"ĩ":{"ha":460,"x_min":-60,"x_max":469,"o":"m 32 598 q 325 650 199 623 l 332 645 q 328 446 328 551 l 328 190 q 330 77 328 109 q 347 54 331 59 l 431 31 l 433 -2 q 234 0 333 0 q 35 -2 133 0 l 31 31 l 117 54 q 134 75 133 58 q 136 163 136 101 l 136 382 q 133 545 136 471 l 36 570 l 32 598 m 469 903 q 309 754 387 754 q 260 765 282 754 q 210 791 237 775 q 187 805 197 799 q 168 814 177 810 q 151 821 159 819 q 134 823 142 823 q 96 811 113 823 q 37 755 79 800 l 1 785 q 86 897 51 865 q 159 930 121 930 q 199 923 180 930 q 252 896 218 916 q 279 881 268 887 q 300 870 291 874 q 318 863 310 865 q 336 861 326 861 q 374 872 358 861 q 431 929 389 884 l 469 903 m -60 631 z "},"ï":{"ha":460,"x_min":-60,"x_max":465,"o":"m 32 598 q 325 650 199 623 l 332 645 q 328 446 328 551 l 328 190 q 330 77 328 109 q 347 54 331 59 l 431 31 l 433 -2 q 234 0 333 0 q 35 -2 133 0 l 31 31 l 117 54 q 134 75 133 58 q 136 163 136 101 l 136 382 q 133 545 136 471 l 36 570 l 32 598 m 176 878 q 148 808 176 834 q 77 782 121 782 q 11 807 37 782 q -16 871 -16 831 q 12 940 -16 915 q 83 966 39 966 q 150 942 124 966 q 176 878 176 919 m 465 878 q 437 808 465 834 q 366 782 410 782 q 299 807 326 782 q 273 871 273 831 q 301 940 273 915 q 372 966 328 966 q 439 942 413 966 q 465 878 465 919 m -60 631 z "},"ī":{"ha":460,"x_min":-60,"x_max":433,"o":"m 32 598 q 325 650 199 623 l 332 645 q 328 446 328 551 l 328 190 q 330 77 328 109 q 347 54 331 59 l 431 31 l 433 -2 q 234 0 333 0 q 35 -2 133 0 l 31 31 l 117 54 q 134 75 133 58 q 136 163 136 101 l 136 382 q 133 545 136 471 l 36 570 l 32 598 m 30 803 l 30 886 l 418 886 l 418 803 l 30 803 m -60 631 z "},"ĭ":{"ha":460,"x_min":-60,"x_max":433,"o":"m 32 598 q 325 650 199 623 l 332 645 q 328 446 328 551 l 328 190 q 330 77 328 109 q 347 54 331 59 l 431 31 l 433 -2 q 234 0 333 0 q 35 -2 133 0 l 31 31 l 117 54 q 134 75 133 58 q 136 163 136 101 l 136 382 q 133 545 136 471 l 36 570 l 32 598 m 90 949 q 134 852 99 884 q 226 819 170 819 q 317 851 283 819 q 365 944 352 883 l 416 949 q 365 777 416 842 q 221 711 314 711 q 85 769 134 711 q 37 944 37 827 l 90 949 m -60 631 z "},"į":{"ha":434,"x_min":16,"x_max":422,"o":"m 17 598 q 310 650 184 623 l 317 645 q 313 446 313 551 l 313 190 q 315 77 313 109 q 332 54 316 59 l 416 31 l 418 -2 q 382 -1 399 -1 q 275 -41 316 -1 q 235 -138 235 -81 q 277 -230 235 -199 q 389 -261 319 -261 q 417 -260 399 -261 l 422 -295 q 244 -332 313 -332 q 115 -297 158 -332 q 73 -201 73 -261 q 239 0 73 -95 q 20 -2 115 0 l 16 31 l 102 54 q 119 75 118 58 q 121 163 121 101 l 121 382 q 118 545 121 471 l 21 570 l 17 598 m 315 874 q 285 798 315 827 q 206 769 255 769 q 133 797 161 769 q 104 868 104 824 q 134 944 104 916 q 214 972 165 972 q 287 946 258 972 q 315 874 315 921 z "},"ı":{"ha":460,"x_min":31,"x_max":433,"o":"m 32 598 q 325 650 199 623 l 332 645 q 328 446 328 551 l 328 190 q 330 77 328 109 q 347 54 331 59 l 431 31 l 433 -2 q 234 0 333 0 q 35 -2 133 0 l 31 31 l 117 54 q 134 75 133 58 q 136 163 136 101 l 136 382 q 133 545 136 471 l 36 570 l 32 598 z "},"ĳ":{"ha":871,"x_min":31,"x_max":756,"o":"m 330 875 q 300 799 330 828 q 221 770 270 770 q 148 797 176 770 q 119 869 119 825 q 149 945 119 917 q 229 972 180 972 q 302 947 273 972 q 330 875 330 922 m 32 598 q 325 650 199 623 l 332 645 q 328 446 328 551 l 328 190 q 330 77 328 109 q 347 54 331 59 l 431 31 l 433 -2 q 234 0 333 0 q 35 -2 133 0 l 31 31 l 117 54 q 134 75 133 58 q 136 163 136 101 l 136 382 q 133 545 136 471 l 36 570 l 32 598 m 456 598 q 748 650 623 623 l 756 645 q 752 452 752 557 l 752 89 q 679 -137 752 -47 q 465 -342 606 -227 l 427 -309 q 541 -118 522 -181 q 559 57 559 -55 l 559 385 q 557 545 559 467 l 460 570 l 456 598 m 754 875 q 724 799 754 828 q 645 770 694 770 q 571 797 600 770 q 543 869 543 825 q 573 945 543 917 q 652 972 603 972 q 726 947 697 972 q 754 875 754 922 z "},"ĵ":{"ha":437,"x_min":-7,"x_max":418,"o":"m 22 598 q 314 650 189 623 l 322 645 q 318 452 318 557 l 318 89 q 245 -137 318 -47 q 31 -342 172 -227 l -7 -309 q 106 -118 87 -181 q 125 57 125 -55 l 125 385 q 123 545 125 467 l 26 570 l 22 598 m 418 708 l 357 708 l 212 860 l 67 708 l 6 708 l 142 964 l 283 964 l 418 708 z "},"ķ":{"ha":846,"x_min":26,"x_max":846,"o":"m 26 970 q 321 1022 195 995 l 329 1017 q 325 817 325 923 l 325 189 q 326 76 325 108 q 343 53 328 58 l 416 31 l 419 -2 q 231 0 330 0 q 31 -2 130 0 l 28 31 l 114 54 q 131 75 130 58 q 132 163 132 101 l 132 751 q 130 915 132 840 l 30 942 l 26 970 m 846 -2 q 663 0 723 0 q 562 -1 621 0 q 509 83 539 37 q 337 326 431 203 l 597 581 l 523 600 l 519 632 q 661 630 602 630 q 819 632 709 630 l 822 600 q 706 564 738 581 q 637 513 675 548 l 513 394 l 720 104 q 760 61 741 75 q 844 31 779 47 l 846 -2 m 347 -315 q 412 -201 412 -260 q 354 -132 412 -151 q 360 -100 354 -115 q 377 -76 366 -86 q 402 -60 388 -66 q 433 -54 417 -54 q 495 -79 472 -54 q 519 -144 519 -103 q 373 -339 519 -248 l 347 -315 z "},"ĸ":{"ha":850,"x_min":31,"x_max":850,"o":"m 32 598 q 325 650 199 623 l 332 645 q 328 446 328 551 l 328 189 q 330 76 328 108 q 347 53 331 58 l 420 31 l 422 -2 q 234 0 333 0 q 35 -2 133 0 l 31 31 l 117 54 q 134 75 133 58 q 136 163 136 101 l 136 380 q 133 545 136 469 l 36 570 l 32 598 m 850 -2 q 667 0 726 0 q 565 -1 625 0 q 512 83 543 37 q 340 326 434 203 l 601 581 l 526 600 l 523 632 q 665 630 606 630 q 822 632 713 630 l 825 600 q 710 564 741 581 q 640 513 678 548 l 516 394 l 723 104 q 763 61 745 75 q 847 31 782 47 l 850 -2 z "},"ĺ":{"ha":457,"x_min":-64,"x_max":430,"o":"m 26 970 q 321 1022 195 995 l 329 1017 q 325 817 325 923 l 325 190 q 326 77 325 109 q 343 54 328 59 l 428 31 l 430 -2 q 231 0 330 0 q 31 -2 130 0 l 28 31 l 114 54 q 131 75 130 58 q 132 163 132 101 l 132 751 q 130 915 132 840 l 30 942 l 26 970 m 412 1153 l 90 1035 l 69 1070 l 307 1257 l 412 1163 l 412 1153 m -64 985 z "},"ľ":{"ha":553,"x_min":26,"x_max":574,"o":"m 26 970 q 321 1022 195 995 l 329 1017 q 325 817 325 923 l 325 190 q 326 77 325 109 q 343 54 328 59 l 428 31 l 430 -2 q 231 0 330 0 q 31 -2 130 0 l 28 31 l 114 54 q 131 75 130 58 q 132 163 132 101 l 132 751 q 130 915 132 840 l 30 942 l 26 970 m 393 685 q 467 827 467 758 q 396 926 467 890 q 419 984 396 962 q 481 1006 443 1006 q 548 977 522 1006 q 574 897 574 948 q 421 656 574 768 l 393 685 z "},"ļ":{"ha":457,"x_min":26,"x_max":430,"o":"m 26 970 q 321 1022 195 995 l 329 1017 q 325 817 325 923 l 325 190 q 326 77 325 109 q 343 54 328 59 l 428 31 l 430 -2 q 231 0 330 0 q 31 -2 130 0 l 28 31 l 114 54 q 131 75 130 58 q 132 163 132 101 l 132 751 q 130 915 132 840 l 30 942 l 26 970 m 140 -315 q 206 -201 206 -260 q 148 -132 206 -151 q 154 -100 148 -115 q 171 -76 160 -86 q 196 -60 182 -66 q 227 -54 211 -54 q 289 -79 266 -54 q 313 -144 313 -103 q 167 -339 313 -248 l 140 -315 z "},"ł":{"ha":467,"x_min":9,"x_max":461,"o":"m 9 495 l 139 536 l 139 751 q 136 915 139 840 l 37 942 l 33 970 q 328 1022 202 995 l 336 1017 q 332 817 332 923 l 332 595 l 457 634 l 461 568 l 332 527 l 332 190 q 333 77 332 109 q 350 54 334 59 l 435 31 l 437 -2 q 237 0 336 0 q 38 -2 136 0 l 35 31 l 121 54 q 138 75 136 58 q 139 163 139 101 l 139 467 l 12 427 l 9 495 z "},"ŀ":{"ha":592,"x_min":26,"x_max":626,"o":"m 26 970 q 321 1022 195 995 l 329 1017 q 325 817 325 923 l 325 190 q 326 77 325 109 q 343 54 328 59 l 428 31 l 430 -2 q 231 0 330 0 q 31 -2 130 0 l 28 31 l 114 54 q 131 75 130 58 q 132 163 132 101 l 132 751 q 130 915 132 840 l 30 942 l 26 970 m 626 494 q 597 419 626 448 q 522 391 568 391 q 451 417 479 391 q 423 488 423 444 q 452 562 423 535 q 528 589 481 589 q 598 565 571 589 q 626 494 626 540 z "},"ń":{"ha":888,"x_min":32,"x_max":869,"o":"m 32 598 q 318 650 189 621 l 328 644 l 328 572 q 555 648 443 648 q 710 594 654 648 q 766 441 766 540 l 766 203 q 768 77 766 118 q 785 54 768 59 l 867 31 l 869 -2 q 674 0 772 0 q 491 -2 572 0 l 488 31 l 556 51 q 573 71 572 56 q 574 114 574 81 l 574 398 q 541 518 574 481 q 444 554 509 554 q 328 522 388 554 l 328 230 q 330 75 328 145 q 345 52 330 56 l 416 31 l 417 -2 q 234 0 333 0 q 35 -2 133 0 l 32 31 l 119 54 q 135 75 134 58 q 136 158 136 118 l 136 381 q 133 545 136 470 l 36 570 l 32 598 m 458 964 l 622 964 l 454 708 l 397 708 l 458 964 m 156 631 z "},"ň":{"ha":888,"x_min":32,"x_max":869,"o":"m 32 598 q 318 650 189 621 l 328 644 l 328 572 q 555 648 443 648 q 710 594 654 648 q 766 441 766 540 l 766 203 q 768 77 766 118 q 785 54 768 59 l 867 31 l 869 -2 q 674 0 772 0 q 491 -2 572 0 l 488 31 l 556 51 q 573 71 572 56 q 574 114 574 81 l 574 398 q 541 518 574 481 q 444 554 509 554 q 328 522 388 554 l 328 230 q 330 75 328 145 q 345 52 330 56 l 416 31 l 417 -2 q 234 0 333 0 q 35 -2 133 0 l 32 31 l 119 54 q 135 75 134 58 q 136 158 136 118 l 136 381 q 133 545 136 470 l 36 570 l 32 598 m 236 964 l 297 964 l 442 812 l 587 964 l 648 964 l 513 708 l 372 708 l 236 964 m 156 631 z "},"ñ":{"ha":888,"x_min":32,"x_max":869,"o":"m 32 598 q 318 650 189 621 l 328 644 l 328 572 q 555 648 443 648 q 710 594 654 648 q 766 441 766 540 l 766 203 q 768 77 766 118 q 785 54 768 59 l 867 31 l 869 -2 q 674 0 772 0 q 491 -2 572 0 l 488 31 l 556 51 q 573 71 572 56 q 574 114 574 81 l 574 398 q 541 518 574 481 q 444 554 509 554 q 328 522 388 554 l 328 230 q 330 75 328 145 q 345 52 330 56 l 416 31 l 417 -2 q 234 0 333 0 q 35 -2 133 0 l 32 31 l 119 54 q 135 75 134 58 q 136 158 136 118 l 136 381 q 133 545 136 470 l 36 570 l 32 598 m 685 903 q 525 754 604 754 q 476 765 498 754 q 426 791 454 775 q 403 805 413 799 q 384 814 393 810 q 367 821 375 819 q 350 823 359 823 q 312 811 329 823 q 254 755 295 800 l 218 785 q 302 897 267 865 q 375 930 337 930 q 415 923 396 930 q 469 896 434 916 q 496 881 484 887 q 517 870 507 874 q 534 863 526 865 q 552 861 543 861 q 590 872 574 861 q 647 929 606 884 l 685 903 m 156 631 z "},"ņ":{"ha":888,"x_min":32,"x_max":869,"o":"m 32 598 q 318 650 189 621 l 328 644 l 328 572 q 555 648 443 648 q 710 594 654 648 q 766 441 766 540 l 766 203 q 768 77 766 118 q 785 54 768 59 l 867 31 l 869 -2 q 674 0 772 0 q 491 -2 572 0 l 488 31 l 556 51 q 573 71 572 56 q 574 114 574 81 l 574 398 q 541 518 574 481 q 444 554 509 554 q 328 522 388 554 l 328 230 q 330 75 328 145 q 345 52 330 56 l 416 31 l 417 -2 q 234 0 333 0 q 35 -2 133 0 l 32 31 l 119 54 q 135 75 134 58 q 136 158 136 118 l 136 381 q 133 545 136 470 l 36 570 l 32 598 m 363 -315 q 429 -201 429 -260 q 371 -132 429 -151 q 377 -100 371 -115 q 394 -76 383 -86 q 419 -60 405 -66 q 450 -54 434 -54 q 512 -79 489 -54 q 536 -144 536 -103 q 390 -339 536 -248 l 363 -315 z "},"ŉ":{"ha":1072,"x_min":47,"x_max":1053,"o":"m 215 598 q 501 650 372 621 l 511 644 l 511 572 q 738 648 626 648 q 893 594 837 648 q 949 441 949 540 l 949 203 q 951 77 949 118 q 968 54 951 59 l 1050 31 l 1053 -2 q 857 0 956 0 q 674 -2 755 0 l 671 31 l 739 51 q 756 71 755 56 q 757 114 757 81 l 757 398 q 724 518 757 481 q 627 554 692 554 q 511 522 571 554 l 511 230 q 513 75 511 145 q 528 52 513 56 l 599 31 l 600 -2 q 417 0 516 0 q 218 -2 316 0 l 215 31 l 302 54 q 318 75 317 58 q 319 158 319 118 l 319 381 q 316 545 319 470 l 219 570 l 215 598 m 47 658 q 145 819 145 740 q 69 928 145 891 q 95 997 69 972 q 161 1022 121 1022 q 233 988 205 1022 q 262 904 262 954 q 214 756 262 826 q 78 621 165 687 l 47 658 z "},"ò":{"ha":831,"x_min":54,"x_max":777,"o":"m 264 322 q 301 122 264 199 q 420 45 338 45 q 531 113 496 45 q 567 314 567 180 q 529 512 567 439 q 412 584 492 584 q 301 519 337 584 q 264 322 264 454 m 777 328 q 674 77 777 173 q 406 -19 571 -19 q 149 72 245 -19 q 54 309 54 162 q 154 552 54 457 q 425 648 254 648 q 682 560 587 648 q 777 328 777 472 m 458 708 l 401 708 l 233 964 l 397 964 l 458 708 m 132 631 z "},"ó":{"ha":831,"x_min":54,"x_max":777,"o":"m 264 322 q 301 122 264 199 q 420 45 338 45 q 531 113 496 45 q 567 314 567 180 q 529 512 567 439 q 412 584 492 584 q 301 519 337 584 q 264 322 264 454 m 777 328 q 674 77 777 173 q 406 -19 571 -19 q 149 72 245 -19 q 54 309 54 162 q 154 552 54 457 q 425 648 254 648 q 682 560 587 648 q 777 328 777 472 m 433 964 l 597 964 l 429 708 l 372 708 l 433 964 m 132 631 z "},"ô":{"ha":831,"x_min":54,"x_max":777,"o":"m 264 322 q 301 122 264 199 q 420 45 338 45 q 531 113 496 45 q 567 314 567 180 q 529 512 567 439 q 412 584 492 584 q 301 519 337 584 q 264 322 264 454 m 777 328 q 674 77 777 173 q 406 -19 571 -19 q 149 72 245 -19 q 54 309 54 162 q 154 552 54 457 q 425 648 254 648 q 682 560 587 648 q 777 328 777 472 m 621 708 l 560 708 l 415 860 l 270 708 l 209 708 l 345 964 l 486 964 l 621 708 m 132 631 z "},"õ":{"ha":831,"x_min":54,"x_max":777,"o":"m 264 322 q 301 122 264 199 q 420 45 338 45 q 531 113 496 45 q 567 314 567 180 q 529 512 567 439 q 412 584 492 584 q 301 519 337 584 q 264 322 264 454 m 777 328 q 674 77 777 173 q 406 -19 571 -19 q 149 72 245 -19 q 54 309 54 162 q 154 552 54 457 q 425 648 254 648 q 682 560 587 648 q 777 328 777 472 m 661 903 q 500 754 579 754 q 452 765 474 754 q 401 791 429 775 q 379 805 389 799 q 360 814 369 810 q 342 821 351 819 q 326 823 334 823 q 288 811 304 823 q 229 755 271 800 l 193 785 q 278 897 243 865 q 351 930 313 930 q 391 923 372 930 q 444 896 410 916 q 471 881 460 887 q 492 870 483 874 q 510 863 502 865 q 528 861 518 861 q 566 872 550 861 q 623 929 581 884 l 661 903 m 132 631 z "},"ö":{"ha":831,"x_min":54,"x_max":777,"o":"m 264 322 q 301 122 264 199 q 420 45 338 45 q 531 113 496 45 q 567 314 567 180 q 529 512 567 439 q 412 584 492 584 q 301 519 337 584 q 264 322 264 454 m 777 328 q 674 77 777 173 q 406 -19 571 -19 q 149 72 245 -19 q 54 309 54 162 q 154 552 54 457 q 425 648 254 648 q 682 560 587 648 q 777 328 777 472 m 368 878 q 340 808 368 834 q 269 782 313 782 q 202 807 229 782 q 176 871 176 831 q 204 940 176 915 q 275 966 231 966 q 342 942 316 966 q 368 878 368 919 m 656 878 q 629 808 656 834 q 558 782 602 782 q 491 807 517 782 q 465 871 465 831 q 493 940 465 915 q 564 966 520 966 q 631 942 605 966 q 656 878 656 919 m 132 631 z "},"ō":{"ha":831,"x_min":54,"x_max":777,"o":"m 264 322 q 301 122 264 199 q 420 45 338 45 q 531 113 496 45 q 567 314 567 180 q 529 512 567 439 q 412 584 492 584 q 301 519 337 584 q 264 322 264 454 m 777 328 q 674 77 777 173 q 406 -19 571 -19 q 149 72 245 -19 q 54 309 54 162 q 154 552 54 457 q 425 648 254 648 q 682 560 587 648 q 777 328 777 472 m 222 803 l 222 886 l 610 886 l 610 803 l 222 803 m 132 631 z "},"ŏ":{"ha":831,"x_min":54,"x_max":777,"o":"m 264 322 q 301 122 264 199 q 420 45 338 45 q 531 113 496 45 q 567 314 567 180 q 529 512 567 439 q 412 584 492 584 q 301 519 337 584 q 264 322 264 454 m 777 328 q 674 77 777 173 q 406 -19 571 -19 q 149 72 245 -19 q 54 309 54 162 q 154 552 54 457 q 425 648 254 648 q 682 560 587 648 q 777 328 777 472 m 281 949 q 326 852 291 884 q 418 819 361 819 q 509 851 475 819 q 557 944 544 883 l 608 949 q 557 777 608 842 q 413 711 506 711 q 277 769 326 711 q 229 944 229 827 l 281 949 m 132 631 z "},"ő":{"ha":831,"x_min":54,"x_max":777,"o":"m 264 322 q 301 122 264 199 q 420 45 338 45 q 531 113 496 45 q 567 314 567 180 q 529 512 567 439 q 412 584 492 584 q 301 519 337 584 q 264 322 264 454 m 777 328 q 674 77 777 173 q 406 -19 571 -19 q 149 72 245 -19 q 54 309 54 162 q 154 552 54 457 q 425 648 254 648 q 682 560 587 648 q 777 328 777 472 m 339 964 l 490 964 l 334 708 l 284 708 l 339 964 m 545 964 l 695 964 l 536 708 l 486 708 l 545 964 m 132 631 z "},"ø":{"ha":831,"x_min":54,"x_max":777,"o":"m 777 328 q 674 77 777 173 q 406 -19 571 -19 q 226 18 302 -19 l 175 -48 l 123 -12 l 172 52 q 54 309 54 146 q 154 552 54 457 q 425 648 254 648 q 607 610 530 648 l 657 674 l 708 639 l 661 578 q 777 328 777 488 m 261 322 q 275 185 261 244 l 532 513 q 412 586 493 586 q 298 520 335 586 q 261 322 261 455 m 420 43 q 534 111 498 43 q 571 314 571 180 q 557 444 571 388 l 302 115 q 420 43 339 43 z "},"ǿ":{"ha":831,"x_min":54,"x_max":777,"o":"m 777 328 q 674 77 777 173 q 406 -19 571 -19 q 226 18 302 -19 l 175 -48 l 123 -12 l 172 52 q 54 309 54 146 q 154 552 54 457 q 425 648 254 648 q 607 610 530 648 l 657 674 l 708 639 l 661 578 q 777 328 777 488 m 261 322 q 275 185 261 244 l 532 513 q 412 586 493 586 q 298 520 335 586 q 261 322 261 455 m 420 43 q 534 111 498 43 q 571 314 571 180 q 557 444 571 388 l 302 115 q 420 43 339 43 m 433 964 l 597 964 l 429 708 l 372 708 l 433 964 m 132 631 z "},"œ":{"ha":1230,"x_min":54,"x_max":1179,"o":"m 398 -19 q 147 72 240 -19 q 54 309 54 162 q 152 552 54 457 q 417 648 250 648 q 659 560 568 648 q 897 648 755 648 q 1105 574 1031 648 q 1179 371 1179 500 q 1177 330 1179 351 l 748 330 q 814 134 748 194 q 1031 75 880 75 q 1171 87 1105 75 l 1177 45 q 913 -19 1052 -19 q 645 70 749 -19 l 644 70 q 398 -19 547 -19 m 264 322 q 300 122 264 199 q 412 45 335 45 q 518 113 485 45 q 552 314 552 180 q 516 512 552 439 q 405 584 480 584 q 299 519 334 584 q 264 322 264 454 m 973 396 l 973 412 q 950 545 973 505 q 880 585 927 585 q 790 529 823 585 q 751 396 757 474 l 973 396 z "},"ŕ":{"ha":603,"x_min":32,"x_max":583,"o":"m 32 598 q 318 650 189 621 l 328 644 l 328 571 q 579 648 448 648 l 583 643 q 541 412 561 535 l 502 406 q 467 509 484 473 q 414 545 450 545 q 328 522 380 545 l 328 231 q 330 80 328 125 q 347 56 330 61 l 444 31 l 446 -2 q 231 0 333 0 q 35 -2 133 0 l 32 31 l 118 54 q 135 75 134 59 q 136 158 136 104 l 136 385 q 133 545 136 495 l 36 570 l 32 598 m 342 964 l 507 964 l 338 708 l 281 708 l 342 964 m 41 631 z "},"ř":{"ha":603,"x_min":32,"x_max":583,"o":"m 32 598 q 318 650 189 621 l 328 644 l 328 571 q 579 648 448 648 l 583 643 q 541 412 561 535 l 502 406 q 467 509 484 473 q 414 545 450 545 q 328 522 380 545 l 328 231 q 330 80 328 125 q 347 56 330 61 l 444 31 l 446 -2 q 231 0 333 0 q 35 -2 133 0 l 32 31 l 118 54 q 135 75 134 59 q 136 158 136 104 l 136 385 q 133 545 136 495 l 36 570 l 32 598 m 121 964 l 182 964 l 327 812 l 472 964 l 533 964 l 397 708 l 256 708 l 121 964 m 41 631 z "},"ŗ":{"ha":603,"x_min":32,"x_max":583,"o":"m 32 598 q 318 650 189 621 l 328 644 l 328 571 q 579 648 448 648 l 583 643 q 541 412 561 535 l 502 406 q 467 509 484 473 q 414 545 450 545 q 328 522 380 545 l 328 231 q 330 80 328 125 q 347 56 330 61 l 444 31 l 446 -2 q 231 0 333 0 q 35 -2 133 0 l 32 31 l 118 54 q 135 75 134 59 q 136 158 136 104 l 136 385 q 133 545 136 495 l 36 570 l 32 598 m 143 -315 q 209 -201 209 -260 q 151 -132 209 -151 q 157 -100 151 -115 q 174 -76 163 -86 q 199 -60 184 -66 q 230 -54 214 -54 q 292 -79 269 -54 q 315 -144 315 -103 q 170 -339 315 -248 l 143 -315 z "},"ś":{"ha":634,"x_min":41,"x_max":582,"o":"m 444 571 q 351 581 401 581 q 251 559 290 581 q 212 498 212 538 q 229 451 212 467 q 287 420 245 434 l 395 382 q 537 301 492 349 q 582 191 582 254 q 498 36 582 92 q 278 -19 414 -19 q 54 28 164 -19 q 92 204 77 119 l 127 210 l 176 62 q 279 47 217 47 q 375 70 338 47 q 412 132 412 92 q 390 188 412 165 q 302 233 368 211 l 219 262 q 100 334 140 290 q 60 443 60 378 q 138 595 60 542 q 353 648 216 648 q 556 614 465 648 q 522 446 536 526 l 484 441 l 444 571 m 342 964 l 507 964 l 338 708 l 281 708 l 342 964 m 41 631 z "},"ŝ":{"ha":634,"x_min":41,"x_max":582,"o":"m 444 571 q 351 581 401 581 q 251 559 290 581 q 212 498 212 538 q 229 451 212 467 q 287 420 245 434 l 395 382 q 537 301 492 349 q 582 191 582 254 q 498 36 582 92 q 278 -19 414 -19 q 54 28 164 -19 q 92 204 77 119 l 127 210 l 176 62 q 279 47 217 47 q 375 70 338 47 q 412 132 412 92 q 390 188 412 165 q 302 233 368 211 l 219 262 q 100 334 140 290 q 60 443 60 378 q 138 595 60 542 q 353 648 216 648 q 556 614 465 648 q 522 446 536 526 l 484 441 l 444 571 m 530 708 l 469 708 l 324 860 l 179 708 l 118 708 l 254 964 l 395 964 l 530 708 m 41 631 z "},"š":{"ha":634,"x_min":41,"x_max":582,"o":"m 444 571 q 351 581 401 581 q 251 559 290 581 q 212 498 212 538 q 229 451 212 467 q 287 420 245 434 l 395 382 q 537 301 492 349 q 582 191 582 254 q 498 36 582 92 q 278 -19 414 -19 q 54 28 164 -19 q 92 204 77 119 l 127 210 l 176 62 q 279 47 217 47 q 375 70 338 47 q 412 132 412 92 q 390 188 412 165 q 302 233 368 211 l 219 262 q 100 334 140 290 q 60 443 60 378 q 138 595 60 542 q 353 648 216 648 q 556 614 465 648 q 522 446 536 526 l 484 441 l 444 571 m 121 964 l 182 964 l 327 812 l 472 964 l 533 964 l 397 708 l 256 708 l 121 964 m 41 631 z "},"ş":{"ha":634,"x_min":54,"x_max":582,"o":"m 444 571 q 351 581 401 581 q 251 559 290 581 q 212 498 212 538 q 229 451 212 467 q 287 420 245 434 l 395 382 q 537 301 492 349 q 582 191 582 254 q 516 50 582 102 q 346 -15 450 -3 l 305 -71 q 385 -162 385 -105 q 240 -335 385 -238 l 214 -307 q 281 -207 281 -253 q 199 -136 281 -157 l 196 -130 l 281 -19 l 278 -19 q 54 28 164 -19 q 92 204 77 119 l 127 210 l 176 62 q 279 47 217 47 q 375 70 338 47 q 412 132 412 92 q 390 188 412 165 q 302 233 368 211 l 219 262 q 100 334 140 290 q 60 443 60 378 q 138 595 60 542 q 353 648 216 648 q 556 614 465 648 q 522 446 536 526 l 484 441 l 444 571 z "},"ș":{"ha":634,"x_min":54,"x_max":582,"o":"m 444 571 q 351 581 401 581 q 251 559 290 581 q 212 498 212 538 q 229 451 212 467 q 287 420 245 434 l 395 382 q 537 301 492 349 q 582 191 582 254 q 498 36 582 92 q 278 -19 414 -19 q 54 28 164 -19 q 92 204 77 119 l 127 210 l 176 62 q 279 47 217 47 q 375 70 338 47 q 412 132 412 92 q 390 188 412 165 q 302 233 368 211 l 219 262 q 100 334 140 290 q 60 443 60 378 q 138 595 60 542 q 353 648 216 648 q 556 614 465 648 q 522 446 536 526 l 484 441 l 444 571 m 211 -315 q 277 -201 277 -260 q 218 -132 277 -151 q 224 -100 218 -115 q 241 -76 231 -86 q 267 -60 252 -66 q 298 -54 281 -54 q 360 -79 336 -54 q 383 -144 383 -103 q 237 -339 383 -248 l 211 -315 z "},"ß":{"ha":940,"x_min":31,"x_max":905,"o":"m 428 197 l 459 202 l 508 62 q 606 47 547 47 q 696 70 662 47 q 730 137 730 92 q 720 180 730 161 q 691 215 709 199 q 650 246 673 231 q 602 275 627 260 q 541 312 572 292 q 485 355 510 331 q 445 411 460 380 q 429 483 429 442 q 597 678 429 608 q 602 743 602 720 q 569 899 602 840 q 476 958 536 958 q 364 896 400 958 q 328 638 328 833 l 328 214 q 328 106 328 159 q 330 -1 329 52 q 233 0 286 0 q 34 -2 132 0 l 31 31 l 114 53 q 134 75 132 58 q 136 163 136 116 l 136 553 l 37 576 l 31 613 l 136 622 q 224 916 134 810 q 479 1022 313 1022 q 705 953 628 1022 q 782 749 782 884 q 777 684 782 717 q 607 539 607 640 q 620 491 607 512 q 652 453 632 470 q 696 421 671 435 q 745 392 720 406 q 803 355 774 374 q 855 312 832 336 q 891 257 878 288 q 905 188 905 227 q 824 37 905 93 q 606 -19 742 -19 q 390 28 494 -19 q 411 115 401 73 q 428 197 420 157 z "},"ſ":{"ha":460,"x_min":31,"x_max":608,"o":"m 328 191 q 329 80 328 127 q 347 56 330 61 l 439 31 l 441 -2 q 233 0 332 0 q 34 -2 132 0 l 31 31 l 114 53 q 134 75 133 58 q 136 163 136 117 l 136 553 l 37 576 l 31 613 l 136 622 q 222 917 136 812 q 460 1022 308 1022 q 608 1003 541 1022 q 572 811 586 907 l 534 804 l 493 956 q 469 958 482 958 q 362 890 397 958 q 328 642 328 823 l 328 191 z "},"ť":{"ha":541,"x_min":17,"x_max":575,"o":"m 307 549 q 303 191 303 338 q 324 96 303 122 q 405 70 345 70 q 505 75 451 70 l 511 35 q 309 -18 403 -18 q 162 21 214 -18 q 111 141 111 61 q 115 553 111 282 l 23 576 l 17 613 l 130 623 l 195 783 q 300 802 252 793 l 309 798 q 307 623 307 715 l 497 623 l 497 549 l 307 549 m 395 685 q 468 827 468 758 q 397 926 468 890 q 421 984 397 962 q 482 1006 444 1006 q 549 977 524 1006 q 575 897 575 948 q 422 656 575 768 l 395 685 m 458 631 z "},"ț":{"ha":541,"x_min":17,"x_max":511,"o":"m 307 549 q 303 191 303 338 q 324 96 303 122 q 405 70 345 70 q 505 75 451 70 l 511 35 q 309 -18 403 -18 q 162 21 214 -18 q 111 141 111 61 q 115 553 111 282 l 23 576 l 17 613 l 130 623 l 195 783 q 300 802 252 793 l 309 798 q 307 623 307 715 l 497 623 l 497 549 l 307 549 m 201 -315 q 267 -201 267 -260 q 208 -132 267 -151 q 214 -100 208 -115 q 231 -76 220 -86 q 257 -60 242 -66 q 288 -54 271 -54 q 350 -79 326 -54 q 373 -144 373 -103 q 227 -339 373 -248 l 201 -315 z "},"ŧ":{"ha":541,"x_min":18,"x_max":512,"o":"m 24 423 l 113 423 q 115 553 114 484 l 24 576 l 18 613 l 131 623 l 195 783 q 300 802 253 793 l 310 798 q 308 623 308 715 l 498 623 l 498 549 l 307 549 q 306 423 306 482 l 498 423 l 498 357 l 304 357 q 304 191 304 266 q 325 96 304 122 q 406 70 346 70 q 507 75 452 70 l 512 35 q 310 -18 404 -18 q 163 21 215 -18 q 111 141 111 61 q 113 357 111 226 l 24 357 l 24 423 z "},"ù":{"ha":871,"x_min":12,"x_max":841,"o":"m 553 54 q 336 -19 454 -19 q 171 35 227 -19 q 115 188 115 90 l 115 332 q 113 545 115 477 l 16 570 l 12 598 q 304 650 178 623 l 312 645 q 308 435 308 560 l 308 227 q 339 110 308 146 q 429 73 371 73 q 547 101 493 73 l 547 390 q 544 547 547 485 l 452 570 l 448 598 q 735 650 609 623 l 743 645 q 739 431 739 558 q 739 131 739 185 q 743 87 740 104 q 756 62 747 71 q 784 49 766 53 q 838 45 803 45 l 841 15 q 673 -19 743 -19 q 553 54 582 -19 m 462 708 l 405 708 l 237 964 l 401 964 l 462 708 m 136 631 z "},"ú":{"ha":871,"x_min":12,"x_max":841,"o":"m 553 54 q 336 -19 454 -19 q 171 35 227 -19 q 115 188 115 90 l 115 332 q 113 545 115 477 l 16 570 l 12 598 q 304 650 178 623 l 312 645 q 308 435 308 560 l 308 227 q 339 110 308 146 q 429 73 371 73 q 547 101 493 73 l 547 390 q 544 547 547 485 l 452 570 l 448 598 q 735 650 609 623 l 743 645 q 739 431 739 558 q 739 131 739 185 q 743 87 740 104 q 756 62 747 71 q 784 49 766 53 q 838 45 803 45 l 841 15 q 673 -19 743 -19 q 553 54 582 -19 m 437 964 l 602 964 l 433 708 l 376 708 l 437 964 m 136 631 z "},"û":{"ha":871,"x_min":12,"x_max":841,"o":"m 553 54 q 336 -19 454 -19 q 171 35 227 -19 q 115 188 115 90 l 115 332 q 113 545 115 477 l 16 570 l 12 598 q 304 650 178 623 l 312 645 q 308 435 308 560 l 308 227 q 339 110 308 146 q 429 73 371 73 q 547 101 493 73 l 547 390 q 544 547 547 485 l 452 570 l 448 598 q 735 650 609 623 l 743 645 q 739 431 739 558 q 739 131 739 185 q 743 87 740 104 q 756 62 747 71 q 784 49 766 53 q 838 45 803 45 l 841 15 q 673 -19 743 -19 q 553 54 582 -19 m 625 708 l 564 708 l 419 860 l 274 708 l 213 708 l 349 964 l 490 964 l 625 708 m 136 631 z "},"ũ":{"ha":871,"x_min":12,"x_max":841,"o":"m 553 54 q 336 -19 454 -19 q 171 35 227 -19 q 115 188 115 90 l 115 332 q 113 545 115 477 l 16 570 l 12 598 q 304 650 178 623 l 312 645 q 308 435 308 560 l 308 227 q 339 110 308 146 q 429 73 371 73 q 547 101 493 73 l 547 390 q 544 547 547 485 l 452 570 l 448 598 q 735 650 609 623 l 743 645 q 739 431 739 558 q 739 131 739 185 q 743 87 740 104 q 756 62 747 71 q 784 49 766 53 q 838 45 803 45 l 841 15 q 673 -19 743 -19 q 553 54 582 -19 m 665 903 q 505 754 583 754 q 456 765 478 754 q 406 791 433 775 q 383 805 393 799 q 364 814 373 810 q 347 821 355 819 q 330 823 338 823 q 292 811 309 823 q 233 755 275 800 l 197 785 q 282 897 247 865 q 355 930 317 930 q 395 923 376 930 q 448 896 414 916 q 475 881 464 887 q 496 870 487 874 q 514 863 506 865 q 532 861 522 861 q 570 872 554 861 q 627 929 585 884 l 665 903 m 136 631 z "},"ü":{"ha":871,"x_min":12,"x_max":841,"o":"m 553 54 q 336 -19 454 -19 q 171 35 227 -19 q 115 188 115 90 l 115 332 q 113 545 115 477 l 16 570 l 12 598 q 304 650 178 623 l 312 645 q 308 435 308 560 l 308 227 q 339 110 308 146 q 429 73 371 73 q 547 101 493 73 l 547 390 q 544 547 547 485 l 452 570 l 448 598 q 735 650 609 623 l 743 645 q 739 431 739 558 q 739 131 739 185 q 743 87 740 104 q 756 62 747 71 q 784 49 766 53 q 838 45 803 45 l 841 15 q 673 -19 743 -19 q 553 54 582 -19 m 372 878 q 344 808 372 834 q 273 782 317 782 q 207 807 233 782 q 180 871 180 831 q 208 940 180 915 q 279 966 235 966 q 346 942 320 966 q 372 878 372 919 m 661 878 q 633 808 661 834 q 562 782 606 782 q 495 807 522 782 q 469 871 469 831 q 497 940 469 915 q 568 966 524 966 q 635 942 609 966 q 661 878 661 919 m 136 631 z "},"ū":{"ha":871,"x_min":12,"x_max":841,"o":"m 553 54 q 336 -19 454 -19 q 171 35 227 -19 q 115 188 115 90 l 115 332 q 113 545 115 477 l 16 570 l 12 598 q 304 650 178 623 l 312 645 q 308 435 308 560 l 308 227 q 339 110 308 146 q 429 73 371 73 q 547 101 493 73 l 547 390 q 544 547 547 485 l 452 570 l 448 598 q 735 650 609 623 l 743 645 q 739 431 739 558 q 739 131 739 185 q 743 87 740 104 q 756 62 747 71 q 784 49 766 53 q 838 45 803 45 l 841 15 q 673 -19 743 -19 q 553 54 582 -19 m 226 803 l 226 886 l 614 886 l 614 803 l 226 803 m 136 631 z "},"ŭ":{"ha":871,"x_min":12,"x_max":841,"o":"m 553 54 q 336 -19 454 -19 q 171 35 227 -19 q 115 188 115 90 l 115 332 q 113 545 115 477 l 16 570 l 12 598 q 304 650 178 623 l 312 645 q 308 435 308 560 l 308 227 q 339 110 308 146 q 429 73 371 73 q 547 101 493 73 l 547 390 q 544 547 547 485 l 452 570 l 448 598 q 735 650 609 623 l 743 645 q 739 431 739 558 q 739 131 739 185 q 743 87 740 104 q 756 62 747 71 q 784 49 766 53 q 838 45 803 45 l 841 15 q 673 -19 743 -19 q 553 54 582 -19 m 286 949 q 330 852 295 884 q 422 819 366 819 q 513 851 479 819 q 561 944 548 883 l 612 949 q 561 777 612 842 q 417 711 510 711 q 281 769 330 711 q 233 944 233 827 l 286 949 m 136 631 z "},"ů":{"ha":871,"x_min":12,"x_max":841,"o":"m 553 54 q 336 -19 454 -19 q 171 35 227 -19 q 115 188 115 90 l 115 332 q 113 545 115 477 l 16 570 l 12 598 q 304 650 178 623 l 312 645 q 308 435 308 560 l 308 227 q 339 110 308 146 q 429 73 371 73 q 547 101 493 73 l 547 390 q 544 547 547 485 l 452 570 l 448 598 q 735 650 609 623 l 743 645 q 739 431 739 558 q 739 131 739 185 q 743 87 740 104 q 756 62 747 71 q 784 49 766 53 q 838 45 803 45 l 841 15 q 673 -19 743 -19 q 553 54 582 -19 m 417 708 q 303 741 346 708 q 260 834 260 774 q 309 936 260 897 q 424 974 357 974 q 536 938 491 974 q 581 842 581 902 q 534 744 581 781 q 417 708 488 708 m 420 755 q 471 775 451 755 q 490 837 490 794 q 471 902 490 878 q 420 926 452 926 q 370 906 389 926 q 351 844 351 886 q 370 779 351 802 q 420 755 389 755 m 136 631 z "},"ű":{"ha":871,"x_min":12,"x_max":841,"o":"m 553 54 q 336 -19 454 -19 q 171 35 227 -19 q 115 188 115 90 l 115 332 q 113 545 115 477 l 16 570 l 12 598 q 304 650 178 623 l 312 645 q 308 435 308 560 l 308 227 q 339 110 308 146 q 429 73 371 73 q 547 101 493 73 l 547 390 q 544 547 547 485 l 452 570 l 448 598 q 735 650 609 623 l 743 645 q 739 431 739 558 q 739 131 739 185 q 743 87 740 104 q 756 62 747 71 q 784 49 766 53 q 838 45 803 45 l 841 15 q 673 -19 743 -19 q 553 54 582 -19 m 343 964 l 494 964 l 338 708 l 288 708 l 343 964 m 549 964 l 699 964 l 540 708 l 490 708 l 549 964 m 136 631 z "},"ų":{"ha":874,"x_min":12,"x_max":844,"o":"m 553 54 q 336 -19 454 -19 q 171 35 227 -19 q 115 188 115 90 l 115 332 q 113 545 115 477 l 16 570 l 12 598 q 304 650 178 623 l 312 645 q 308 435 308 560 l 308 227 q 339 110 308 146 q 429 73 371 73 q 547 101 493 73 l 547 390 q 544 547 547 485 l 452 570 l 448 598 q 735 650 609 623 l 743 645 q 739 431 739 558 q 739 131 739 185 q 743 87 740 104 q 756 62 747 71 q 784 49 766 53 q 838 45 803 45 l 841 15 q 738 -13 785 -4 q 656 -138 656 -52 q 699 -230 656 -199 q 810 -261 741 -261 q 839 -260 821 -261 l 844 -295 q 666 -332 735 -332 q 537 -297 580 -332 q 494 -201 494 -261 q 635 -16 494 -103 q 553 54 576 -3 z "},"ẁ":{"ha":1060,"x_min":-12,"x_max":1067,"o":"m 623 633 q 734 304 663 513 q 763 214 748 262 q 795 304 779 261 q 892 579 845 439 l 822 600 l 819 632 q 943 630 868 630 q 1063 632 1003 630 l 1067 600 l 994 580 q 967 553 977 574 q 849 259 917 431 q 746 -3 781 87 l 659 -12 q 562 260 623 87 q 530 359 545 314 q 494 260 512 313 q 393 -3 428 87 l 306 -12 q 203 258 270 87 q 88 550 136 429 q 58 581 77 574 l -9 600 l -12 632 q 176 630 77 630 q 355 632 269 630 l 359 600 l 286 579 q 380 304 326 454 q 410 214 395 262 q 442 304 425 261 q 555 627 509 491 l 623 633 m 594 708 l 537 708 l 369 964 l 533 964 l 594 708 m 268 631 z "},"ẃ":{"ha":1060,"x_min":-12,"x_max":1067,"o":"m 623 633 q 734 304 663 513 q 763 214 748 262 q 795 304 779 261 q 892 579 845 439 l 822 600 l 819 632 q 943 630 868 630 q 1063 632 1003 630 l 1067 600 l 994 580 q 967 553 977 574 q 849 259 917 431 q 746 -3 781 87 l 659 -12 q 562 260 623 87 q 530 359 545 314 q 494 260 512 313 q 393 -3 428 87 l 306 -12 q 203 258 270 87 q 88 550 136 429 q 58 581 77 574 l -9 600 l -12 632 q 176 630 77 630 q 355 632 269 630 l 359 600 l 286 579 q 380 304 326 454 q 410 214 395 262 q 442 304 425 261 q 555 627 509 491 l 623 633 m 570 964 l 734 964 l 566 708 l 509 708 l 570 964 m 268 631 z "},"ŵ":{"ha":1060,"x_min":-12,"x_max":1067,"o":"m 623 633 q 734 304 663 513 q 763 214 748 262 q 795 304 779 261 q 892 579 845 439 l 822 600 l 819 632 q 943 630 868 630 q 1063 632 1003 630 l 1067 600 l 994 580 q 967 553 977 574 q 849 259 917 431 q 746 -3 781 87 l 659 -12 q 562 260 623 87 q 530 359 545 314 q 494 260 512 313 q 393 -3 428 87 l 306 -12 q 203 258 270 87 q 88 550 136 429 q 58 581 77 574 l -9 600 l -12 632 q 176 630 77 630 q 355 632 269 630 l 359 600 l 286 579 q 380 304 326 454 q 410 214 395 262 q 442 304 425 261 q 555 627 509 491 l 623 633 m 757 708 l 696 708 l 551 860 l 406 708 l 345 708 l 480 964 l 621 964 l 757 708 m 267 631 z "},"ẅ":{"ha":1060,"x_min":-12,"x_max":1067,"o":"m 623 633 q 734 304 663 513 q 763 214 748 262 q 795 304 779 261 q 892 579 845 439 l 822 600 l 819 632 q 943 630 868 630 q 1063 632 1003 630 l 1067 600 l 994 580 q 967 553 977 574 q 849 259 917 431 q 746 -3 781 87 l 659 -12 q 562 260 623 87 q 530 359 545 314 q 494 260 512 313 q 393 -3 428 87 l 306 -12 q 203 258 270 87 q 88 550 136 429 q 58 581 77 574 l -9 600 l -12 632 q 176 630 77 630 q 355 632 269 630 l 359 600 l 286 579 q 380 304 326 454 q 410 214 395 262 q 442 304 425 261 q 555 627 509 491 l 623 633 m 504 878 q 476 808 504 834 q 406 782 449 782 q 339 807 365 782 q 313 871 313 831 q 340 940 313 915 q 412 966 368 966 q 478 942 452 966 q 504 878 504 919 m 793 878 q 765 808 793 834 q 694 782 738 782 q 628 807 654 782 q 602 871 602 831 q 629 940 602 915 q 701 966 656 966 q 767 942 741 966 q 793 878 793 919 m 268 631 z "},"ỳ":{"ha":711,"x_min":-24,"x_max":727,"o":"m -24 632 q 139 630 66 630 q 341 632 234 630 l 345 600 l 260 578 q 310 451 286 511 q 373 298 334 391 q 411 208 391 260 q 452 313 431 261 q 553 579 507 458 l 483 600 l 479 632 q 604 630 532 630 q 724 632 667 630 l 727 600 l 662 582 q 631 554 640 575 q 578 429 607 498 q 441 79 490 218 q 385 -105 410 -11 q 345 -270 359 -199 q 317 -323 337 -309 q 225 -337 296 -337 q 83 -332 151 -337 l 79 -300 q 189 -257 158 -290 q 327 -5 234 -210 l 332 8 l 296 18 q 74 553 174 320 q 43 581 66 574 l -22 600 l -24 632 m 418 708 l 361 708 l 193 964 l 357 964 l 418 708 m 92 631 z "},"ý":{"ha":711,"x_min":-24,"x_max":727,"o":"m -24 632 q 139 630 66 630 q 341 632 234 630 l 345 600 l 260 578 q 310 451 286 511 q 373 298 334 391 q 411 208 391 260 q 452 313 431 261 q 553 579 507 458 l 483 600 l 479 632 q 604 630 532 630 q 724 632 667 630 l 727 600 l 662 582 q 631 554 640 575 q 578 429 607 498 q 441 79 490 218 q 385 -105 410 -11 q 345 -270 359 -199 q 317 -323 337 -309 q 225 -337 296 -337 q 83 -332 151 -337 l 79 -300 q 189 -257 158 -290 q 327 -5 234 -210 l 332 8 l 296 18 q 74 553 174 320 q 43 581 66 574 l -22 600 l -24 632 m 393 964 l 557 964 l 389 708 l 332 708 l 393 964 m 92 631 z "},"ŷ":{"ha":711,"x_min":-24,"x_max":727,"o":"m -24 632 q 139 630 66 630 q 341 632 234 630 l 345 600 l 260 578 q 310 451 286 511 q 373 298 334 391 q 411 208 391 260 q 452 313 431 261 q 553 579 507 458 l 483 600 l 479 632 q 604 630 532 630 q 724 632 667 630 l 727 600 l 662 582 q 631 554 640 575 q 578 429 607 498 q 441 79 490 218 q 385 -105 410 -11 q 345 -270 359 -199 q 317 -323 337 -309 q 225 -337 296 -337 q 83 -332 151 -337 l 79 -300 q 189 -257 158 -290 q 327 -5 234 -210 l 332 8 l 296 18 q 74 553 174 320 q 43 581 66 574 l -22 600 l -24 632 m 581 708 l 520 708 l 375 860 l 230 708 l 169 708 l 304 964 l 446 964 l 581 708 m 92 631 z "},"ÿ":{"ha":711,"x_min":-24,"x_max":727,"o":"m -24 632 q 139 630 66 630 q 341 632 234 630 l 345 600 l 260 578 q 310 451 286 511 q 373 298 334 391 q 411 208 391 260 q 452 313 431 261 q 553 579 507 458 l 483 600 l 479 632 q 604 630 532 630 q 724 632 667 630 l 727 600 l 662 582 q 631 554 640 575 q 578 429 607 498 q 441 79 490 218 q 385 -105 410 -11 q 345 -270 359 -199 q 317 -323 337 -309 q 225 -337 296 -337 q 83 -332 151 -337 l 79 -300 q 189 -257 158 -290 q 327 -5 234 -210 l 332 8 l 296 18 q 74 553 174 320 q 43 581 66 574 l -22 600 l -24 632 m 328 878 q 300 808 328 834 q 229 782 273 782 q 162 807 189 782 q 136 871 136 831 q 164 940 136 915 q 235 966 191 966 q 302 942 276 966 q 328 878 328 919 m 616 878 q 589 808 616 834 q 518 782 562 782 q 451 807 477 782 q 425 871 425 831 q 453 940 425 915 q 524 966 480 966 q 591 942 565 966 q 616 878 616 919 m 92 631 z "},"ź":{"ha":706,"x_min":51,"x_max":648,"o":"m 51 6 q 219 280 155 172 q 390 565 283 388 l 176 565 l 132 427 l 99 422 q 66 626 84 528 l 68 632 q 323 630 203 630 q 640 632 509 630 l 646 625 q 479 351 556 480 q 312 67 403 222 l 528 67 l 612 210 l 648 214 q 631 3 636 108 l 627 -2 q 367 0 510 0 q 56 -2 167 0 l 51 6 m 380 964 l 544 964 l 376 708 l 319 708 l 380 964 m 78 631 z "},"ž":{"ha":706,"x_min":51,"x_max":648,"o":"m 51 6 q 219 280 155 172 q 390 565 283 388 l 176 565 l 132 427 l 99 422 q 66 626 84 528 l 68 632 q 323 630 203 630 q 640 632 509 630 l 646 625 q 479 351 556 480 q 312 67 403 222 l 528 67 l 612 210 l 648 214 q 631 3 636 108 l 627 -2 q 367 0 510 0 q 56 -2 167 0 l 51 6 m 158 964 l 219 964 l 364 812 l 509 964 l 570 964 l 435 708 l 294 708 l 158 964 m 78 631 z "},"ż":{"ha":706,"x_min":51,"x_max":648,"o":"m 51 6 q 219 280 155 172 q 390 565 283 388 l 176 565 l 132 427 l 99 422 q 66 626 84 528 l 68 632 q 323 630 203 630 q 640 632 509 630 l 646 625 q 479 351 556 480 q 312 67 403 222 l 528 67 l 612 210 l 648 214 q 631 3 636 108 l 627 -2 q 367 0 510 0 q 56 -2 167 0 l 51 6 m 464 875 q 435 800 464 829 q 359 772 406 772 q 289 799 317 772 q 261 869 261 825 q 290 943 261 916 q 366 970 319 970 q 436 946 409 970 q 464 875 464 921 m 78 631 z "},"ŋ":{"ha":865,"x_min":32,"x_max":760,"o":"m 328 522 l 328 230 q 330 75 328 145 q 345 52 330 56 l 416 31 l 417 -2 q 234 0 333 0 q 35 -2 133 0 l 32 31 l 119 54 q 135 75 134 58 q 136 158 136 118 l 136 381 q 133 545 136 470 l 36 570 l 32 598 q 318 650 189 621 l 328 644 l 328 572 q 551 648 441 648 q 704 594 649 648 q 760 441 760 540 l 760 34 q 683 -240 760 -149 q 478 -331 606 -331 q 336 -305 404 -331 q 376 -168 351 -238 l 385 -167 q 435 -239 414 -213 q 476 -266 456 -266 q 544 -211 522 -266 q 567 1 567 -156 l 567 398 q 535 518 567 481 q 441 554 504 554 q 328 522 387 554 z "},"ð":{"ha":837,"x_min":54,"x_max":772,"o":"m 237 696 l 205 752 l 378 838 q 155 988 290 921 l 156 1001 l 395 1001 q 526 911 466 962 l 690 994 l 723 939 l 576 865 q 772 378 772 655 q 673 87 772 193 q 401 -19 574 -19 q 151 70 248 -19 q 54 304 54 159 q 145 548 54 454 q 378 642 237 642 q 543 580 478 642 l 549 582 q 425 789 507 700 l 237 696 m 565 340 q 527 515 565 456 q 421 575 488 575 q 306 510 347 575 q 264 323 264 444 q 303 121 264 197 q 415 45 342 45 q 528 124 491 45 q 565 340 565 203 z "},"þ":{"ha":846,"x_min":12,"x_max":792,"o":"m 315 1017 q 311 713 311 916 l 311 584 q 513 648 415 648 q 717 562 642 648 q 792 338 792 476 q 687 77 792 174 q 408 -19 581 -19 q 311 -9 364 -19 l 311 -153 q 313 -247 311 -220 q 331 -272 314 -268 l 427 -297 l 429 -330 q 217 -328 316 -328 q 18 -330 116 -328 l 15 -297 l 100 -273 q 117 -253 117 -269 q 119 -102 119 -203 l 119 242 l 119 644 q 116 915 119 794 l 16 942 l 12 970 q 308 1022 181 995 l 315 1017 m 311 58 q 401 48 356 48 q 539 117 493 48 q 585 311 585 185 q 542 491 585 427 q 416 555 499 555 q 311 533 363 555 l 311 58 z "},"ⁿ":{"ha":597,"x_min":13,"x_max":593,"o":"m 13 783 q 222 822 124 800 l 230 818 l 230 770 q 387 821 310 821 q 486 783 450 821 q 522 661 522 746 l 522 597 q 524 503 522 533 q 537 485 524 489 l 592 469 l 593 445 q 453 446 527 446 q 329 445 376 446 l 327 469 l 364 481 q 377 496 376 485 q 377 529 377 504 l 377 632 q 359 726 377 702 q 307 750 341 750 q 230 732 269 750 l 230 616 q 231 499 230 552 q 243 482 231 486 l 282 469 l 283 445 q 159 446 233 446 q 16 445 83 446 l 13 469 l 73 485 q 84 500 83 488 q 85 564 85 533 l 85 621 q 83 745 85 688 l 16 762 l 13 783 z "},"ﬀ":{"ha":970,"x_min":31,"x_max":1086,"o":"m 806 551 l 806 191 q 807 80 806 127 q 825 56 808 61 l 918 31 l 920 -2 q 711 0 810 0 q 512 -2 610 0 l 509 31 l 592 53 q 612 75 611 58 q 614 163 614 117 l 614 551 l 328 551 l 328 191 q 329 80 328 127 q 347 56 330 61 l 439 31 l 441 -2 q 233 0 332 0 q 34 -2 132 0 l 31 31 l 114 53 q 134 75 133 58 q 136 163 136 117 l 136 555 l 37 576 l 31 613 l 136 622 q 222 907 136 802 q 460 1012 308 1012 q 608 993 541 1012 q 572 801 586 897 l 534 793 l 492 945 q 469 947 482 947 q 362 880 397 947 q 328 631 328 812 l 328 623 l 614 623 q 700 917 614 812 q 939 1022 786 1022 q 1086 1003 1019 1022 q 1050 811 1064 907 l 1013 804 l 970 956 q 947 958 960 958 q 841 890 876 958 q 806 642 806 823 l 806 623 l 970 623 l 970 551 l 806 551 z "},"ﬁ":{"ha":939,"x_min":31,"x_max":911,"o":"m 328 551 l 328 189 q 329 78 328 125 q 347 54 330 59 l 429 31 l 431 -2 q 233 0 332 0 q 34 -2 132 0 l 31 31 l 114 53 q 134 75 133 58 q 136 163 136 117 l 136 555 l 37 576 l 31 613 l 136 622 q 239 917 136 812 q 543 1022 341 1022 q 745 1001 660 1022 q 701 811 718 907 l 660 804 l 614 951 q 566 956 597 956 q 381 890 435 956 q 328 642 328 825 l 328 623 l 665 623 q 803 650 739 637 l 810 645 q 806 446 806 551 l 806 190 q 808 77 806 109 q 825 54 809 59 l 909 31 l 911 -2 q 712 0 811 0 q 517 -2 611 0 l 513 31 l 595 53 q 612 73 611 57 q 614 162 614 100 l 614 551 l 328 551 z "},"ﬃ":{"ha":1417,"x_min":31,"x_max":1390,"o":"m 806 551 l 806 189 q 807 78 806 125 q 825 54 808 59 l 907 31 l 909 -2 q 711 0 810 0 q 512 -2 610 0 l 509 31 l 592 53 q 612 75 611 58 q 614 163 614 117 l 614 551 l 328 551 l 328 191 q 329 80 328 127 q 347 56 330 61 l 439 31 l 441 -2 q 233 0 332 0 q 34 -2 132 0 l 31 31 l 114 53 q 134 75 133 58 q 136 163 136 117 l 136 555 l 37 576 l 31 613 l 136 622 q 222 907 136 802 q 460 1012 308 1012 q 608 993 541 1012 q 572 801 586 897 l 534 793 l 492 945 q 469 947 482 947 q 362 880 397 947 q 328 631 328 812 l 328 623 l 614 623 q 717 917 614 812 q 1021 1022 819 1022 q 1223 1001 1138 1022 q 1179 811 1196 907 l 1138 804 l 1093 951 q 1044 956 1075 956 q 860 890 913 956 q 806 642 806 825 l 806 623 l 1143 623 q 1281 650 1217 637 l 1289 645 q 1284 446 1284 551 l 1284 190 q 1286 77 1284 109 q 1303 54 1287 59 l 1388 31 l 1390 -2 q 1190 0 1289 0 q 995 -2 1089 0 l 991 31 l 1074 53 q 1090 73 1089 57 q 1092 162 1092 100 l 1092 551 l 806 551 z "},"ﬂ":{"ha":942,"x_min":31,"x_max":915,"o":"m 814 1017 q 810 713 810 916 l 810 190 q 811 77 810 109 q 828 54 812 59 l 913 31 l 915 -2 q 715 0 814 0 q 516 -2 614 0 l 513 31 l 599 54 q 616 75 614 58 q 617 163 617 101 l 617 644 q 614 947 617 793 q 538 956 578 956 q 380 889 433 956 q 328 642 328 823 l 328 623 l 498 623 l 498 549 l 328 549 l 328 191 q 329 80 328 127 q 347 56 330 61 l 439 31 l 441 -2 q 233 0 332 0 q 34 -2 132 0 l 31 31 l 114 53 q 134 75 133 58 q 136 163 136 117 l 136 553 l 37 576 l 31 613 l 136 622 q 233 917 136 812 q 526 1022 330 1022 q 702 1001 629 1022 q 806 1022 757 1011 l 814 1017 z "},"ﬄ":{"ha":1420,"x_min":31,"x_max":1393,"o":"m 1292 1017 q 1288 713 1288 916 l 1288 190 q 1289 77 1288 109 q 1306 54 1291 59 l 1391 31 l 1393 -2 q 1194 0 1293 0 q 994 -2 1093 0 l 991 31 l 1077 54 q 1094 75 1093 58 q 1095 163 1095 101 l 1095 644 q 1093 947 1095 793 q 1017 956 1057 956 q 858 889 911 956 q 806 642 806 823 l 806 623 l 977 623 l 977 549 l 806 549 l 806 191 q 807 80 806 127 q 825 56 808 61 l 918 31 l 920 -2 q 711 0 810 0 q 512 -2 610 0 l 509 31 l 592 53 q 612 75 611 58 q 614 163 614 117 l 614 551 l 328 551 l 328 191 q 329 80 328 127 q 347 56 330 61 l 439 31 l 441 -2 q 233 0 332 0 q 34 -2 132 0 l 31 31 l 114 53 q 134 75 133 58 q 136 163 136 117 l 136 555 l 37 576 l 31 613 l 136 622 q 222 907 136 802 q 460 1012 308 1012 q 608 993 541 1012 q 572 801 586 897 l 534 793 l 492 945 q 469 947 482 947 q 362 880 397 947 q 328 631 328 812 l 328 623 l 614 623 q 711 917 614 812 q 1004 1022 808 1022 q 1180 1001 1107 1022 q 1284 1022 1235 1011 l 1292 1017 z "},"&":{"ha":1008,"x_min":60,"x_max":1001,"o":"m 649 528 q 727 526 688 527 q 812 526 766 526 q 882 526 851 526 q 940 528 913 527 l 943 493 l 855 472 q 843 456 841 469 q 847 398 847 433 q 774 168 847 273 q 865 69 827 101 q 906 48 884 54 q 954 42 929 42 q 995 46 972 42 l 1001 9 q 850 -22 928 -22 q 648 50 729 -22 q 401 -19 534 -19 q 159 50 258 -19 q 60 237 60 119 q 255 496 60 400 q 169 617 195 564 q 142 733 142 671 q 223 889 142 831 q 418 947 304 947 q 595 896 523 947 q 667 758 667 845 q 465 524 667 623 l 722 229 q 766 387 766 306 q 763 449 766 429 q 754 467 761 462 q 735 475 748 473 l 651 492 l 649 528 m 299 445 q 253 290 253 385 q 306 132 253 194 q 451 71 359 71 q 595 106 525 71 l 299 445 m 425 570 q 494 749 494 636 q 471 846 494 810 q 406 882 447 882 q 340 851 364 882 q 315 774 315 821 q 389 612 315 696 l 425 570 z "},"`":{"ha":570,"x_min":0,"x_max":326,"o":"m 326 708 l 269 708 l 101 964 l 265 964 l 326 708 m 0 631 z "},"̀":{"ha":0,"x_min":-569,"x_max":-243,"o":"m -243 708 l -300 708 l -468 964 l -304 964 l -243 708 m -569 631 z "},"´":{"ha":570,"x_min":0,"x_max":466,"o":"m 302 964 l 466 964 l 298 708 l 241 708 l 302 964 m 0 631 z "},"́":{"ha":0,"x_min":-569,"x_max":-103,"o":"m -267 964 l -103 964 l -271 708 l -328 708 l -267 964 m -569 631 z "},"ˆ":{"ha":570,"x_min":0,"x_max":490,"o":"m 490 708 l 429 708 l 283 860 l 138 708 l 77 708 l 213 964 l 354 964 l 490 708 m 0 631 z "},"̂":{"ha":0,"x_min":-569,"x_max":-79,"o":"m -79 708 l -140 708 l -286 860 l -431 708 l -492 708 l -356 964 l -215 964 l -79 708 m -569 631 z "},"ˇ":{"ha":570,"x_min":0,"x_max":492,"o":"m 80 964 l 141 964 l 286 812 l 431 964 l 492 964 l 357 708 l 216 708 l 80 964 m 0 631 z "},"̌":{"ha":0,"x_min":-569,"x_max":-77,"o":"m -489 964 l -428 964 l -283 812 l -138 964 l -77 964 l -212 708 l -353 708 l -489 964 m -569 631 z "},"̕":{"ha":96,"x_min":-64,"x_max":117,"o":"m -64 685 q 9 827 9 758 q -61 926 9 890 q -38 984 -61 962 q 24 1006 -14 1006 q 91 977 65 1006 q 117 897 117 948 q -36 656 117 768 l -64 685 m 0 631 z "},"˜":{"ha":570,"x_min":0,"x_max":529,"o":"m 529 903 q 369 754 448 754 q 320 765 342 754 q 270 791 298 775 q 247 805 257 799 q 228 814 237 810 q 211 821 219 819 q 194 823 203 823 q 156 811 173 823 q 98 755 139 800 l 62 785 q 146 897 111 865 q 219 930 181 930 q 259 923 240 930 q 313 896 278 916 q 340 881 328 887 q 361 870 351 874 q 378 863 370 865 q 396 861 387 861 q 434 872 418 861 q 491 929 450 884 l 529 903 m 0 631 z "},"̃":{"ha":0,"x_min":-569,"x_max":-40,"o":"m -40 903 q -200 754 -121 754 q -249 765 -227 754 q -299 791 -271 775 q -322 805 -312 799 q -341 814 -332 810 q -358 821 -350 819 q -375 823 -366 823 q -413 811 -396 823 q -471 755 -430 800 l -507 785 q -423 897 -458 865 q -350 930 -388 930 q -310 923 -329 930 q -256 896 -291 916 q -229 881 -241 887 q -208 870 -218 874 q -191 863 -199 865 q -173 861 -182 861 q -135 872 -151 861 q -78 929 -119 884 l -40 903 m -569 631 z "},"¨":{"ha":570,"x_min":0,"x_max":525,"o":"m 236 878 q 209 808 236 834 q 138 782 181 782 q 71 807 97 782 q 45 871 45 831 q 72 940 45 915 q 144 966 100 966 q 210 942 184 966 q 236 878 236 919 m 525 878 q 497 808 525 834 q 427 782 470 782 q 360 807 386 782 q 334 871 334 831 q 361 940 334 915 q 433 966 389 966 q 499 942 473 966 q 525 878 525 919 m 0 631 z "},"̈":{"ha":0,"x_min":-569,"x_max":-44,"o":"m -333 878 q -360 808 -333 834 q -431 782 -388 782 q -498 807 -472 782 q -524 871 -524 831 q -497 940 -524 915 q -425 966 -469 966 q -359 942 -385 966 q -333 878 -333 919 m -44 878 q -72 808 -44 834 q -142 782 -99 782 q -209 807 -183 782 q -235 871 -235 831 q -208 940 -235 915 q -136 966 -180 966 q -70 942 -96 966 q -44 878 -44 919 m -569 631 z "},"¯":{"ha":570,"x_min":0,"x_max":479,"o":"m 90 803 l 90 886 l 479 886 l 479 803 l 90 803 m 0 631 z "},"̄":{"ha":0,"x_min":-569,"x_max":-90,"o":"m -479 803 l -479 886 l -90 886 l -90 803 l -479 803 m -569 631 z "},"˘":{"ha":570,"x_min":0,"x_max":477,"o":"m 150 949 q 195 852 159 884 q 286 819 230 819 q 378 851 343 819 q 425 944 412 883 l 477 949 q 426 777 477 842 q 281 711 374 711 q 146 769 195 711 q 97 944 97 827 l 150 949 m 0 631 z "},"̆":{"ha":0,"x_min":-569,"x_max":-92,"o":"m -419 949 q -374 852 -410 884 q -283 819 -339 819 q -191 851 -226 819 q -144 944 -157 883 l -92 949 q -143 777 -92 842 q -288 711 -195 711 q -423 769 -374 711 q -472 944 -472 827 l -419 949 m -569 631 z "},"˚":{"ha":570,"x_min":0,"x_max":445,"o":"m 281 708 q 168 741 210 708 q 125 834 125 774 q 173 936 125 897 q 288 974 221 974 q 400 938 355 974 q 445 842 445 902 q 399 744 445 781 q 281 708 353 708 m 285 755 q 335 775 315 755 q 355 837 355 794 q 335 902 355 878 q 285 926 316 926 q 234 906 254 926 q 215 844 215 886 q 234 779 215 802 q 285 755 254 755 m 0 631 z "},"̊":{"ha":0,"x_min":-569,"x_max":-124,"o":"m -288 708 q -401 741 -359 708 q -444 834 -444 774 q -396 936 -444 897 q -281 974 -348 974 q -169 938 -214 974 q -124 842 -124 902 q -170 744 -124 781 q -288 708 -216 708 m -284 755 q -234 775 -254 755 q -214 837 -214 794 q -234 902 -214 878 q -284 926 -253 926 q -335 906 -315 926 q -354 844 -354 886 q -335 779 -354 802 q -284 755 -315 755 m -569 631 z "},"˝":{"ha":570,"x_min":0,"x_max":564,"o":"m 208 964 l 358 964 l 203 708 l 153 708 l 208 964 m 413 964 l 564 964 l 404 708 l 354 708 l 413 964 m 0 631 z "},"̋":{"ha":0,"x_min":-569,"x_max":-5,"o":"m -361 964 l -211 964 l -366 708 l -416 708 l -361 964 m -156 964 l -5 964 l -165 708 l -215 708 l -156 964 m -569 631 z "},"˙":{"ha":570,"x_min":0,"x_max":386,"o":"m 386 875 q 357 800 386 829 q 281 772 328 772 q 211 799 239 772 q 183 869 183 825 q 212 943 183 916 q 288 970 241 970 q 358 946 331 970 q 386 875 386 921 m 0 631 z "},"̇":{"ha":0,"x_min":-569,"x_max":-183,"o":"m -183 875 q -212 800 -183 829 q -288 772 -241 772 q -358 799 -330 772 q -386 869 -386 825 q -357 943 -386 916 q -281 970 -328 970 q -211 946 -238 970 q -183 875 -183 921 m -569 631 z "},"¸":{"ha":570,"x_min":162,"x_max":351,"o":"m 162 -130 l 262 0 l 324 0 l 271 -71 q 351 -162 351 -105 q 206 -335 351 -238 l 180 -307 q 247 -207 247 -253 q 165 -136 247 -157 l 162 -130 z "},"̧":{"ha":0,"x_min":-407,"x_max":-218,"o":"m -407 -130 l -307 0 l -245 0 l -298 -71 q -218 -162 -218 -105 q -363 -335 -218 -238 l -389 -307 q -322 -207 -322 -253 q -404 -136 -322 -157 l -407 -130 z "},"˛":{"ha":570,"x_min":123,"x_max":472,"o":"m 327 7 l 380 0 q 285 -138 285 -47 q 327 -230 285 -199 q 439 -261 370 -261 q 467 -260 449 -261 l 472 -295 q 294 -332 363 -332 q 165 -297 208 -332 q 123 -201 123 -261 q 273 -1 123 -102 l 273 1 l 327 7 z "},"̨":{"ha":0,"x_min":-446,"x_max":-97,"o":"m -242 7 l -189 0 q -284 -138 -284 -47 q -242 -230 -284 -199 q -130 -261 -199 -261 q -102 -260 -120 -261 l -97 -295 q -275 -332 -205 -332 q -404 -297 -361 -332 q -446 -201 -446 -261 q -296 -1 -446 -102 l -296 1 l -242 7 z "},"̦":{"ha":0,"x_min":-372,"x_max":-200,"o":"m -372 -315 q -307 -201 -307 -260 q -365 -132 -307 -151 q -359 -100 -365 -115 q -342 -76 -353 -86 q -316 -60 -331 -66 q -286 -54 -302 -54 q -223 -79 -247 -54 q -200 -144 -200 -103 q -346 -339 -200 -248 l -372 -315 z "},"̒":{"ha":0,"x_min":-370,"x_max":1,"o":"m -198 966 q -264 852 -264 910 q -205 783 -264 802 q -229 727 -205 748 q -285 705 -252 705 q -347 730 -323 705 q -370 795 -370 755 q -224 990 -370 899 l -198 966 m 1 632 z "},",":{"ha":397,"x_min":68,"x_max":317,"o":"m 68 -182 q 190 -2 190 -92 q 101 123 190 78 q 130 201 101 173 q 205 229 159 229 q 286 191 254 229 q 317 95 317 153 q 263 -72 317 7 q 102 -224 210 -150 l 68 -182 z "},";":{"ha":397,"x_min":90,"x_max":340,"o":"m 90 -182 q 212 -2 212 -92 q 123 123 212 78 q 153 201 123 173 q 227 229 182 229 q 308 191 276 229 q 340 95 340 153 q 286 -72 340 7 q 125 -224 232 -150 l 90 -182 m 233 630 q 310 601 279 630 q 340 525 340 572 q 310 448 340 478 q 233 418 279 418 q 155 448 185 418 q 125 525 125 478 q 155 601 125 572 q 233 630 185 630 z "},":":{"ha":397,"x_min":125,"x_max":340,"o":"m 233 193 q 310 164 279 193 q 340 88 340 136 q 310 12 340 41 q 233 -18 279 -18 q 155 12 185 -18 q 125 88 125 41 q 155 164 125 136 q 233 193 185 193 m 233 630 q 310 601 279 630 q 340 525 340 572 q 310 448 340 478 q 233 418 279 418 q 155 448 185 418 q 125 525 125 478 q 155 601 125 572 q 233 630 185 630 z "},".":{"ha":397,"x_min":95,"x_max":309,"o":"m 203 193 q 279 164 249 193 q 309 88 309 136 q 279 12 309 41 q 203 -18 249 -18 q 125 12 155 -18 q 95 88 95 41 q 125 164 95 136 q 203 193 155 193 z "},"…":{"ha":1044,"x_min":95,"x_max":1004,"o":"m 203 193 q 279 164 249 193 q 309 88 309 136 q 279 12 309 41 q 203 -18 249 -18 q 125 12 155 -18 q 95 88 95 41 q 125 164 95 136 q 203 193 155 193 m 550 193 q 626 164 596 193 q 656 88 656 136 q 626 12 656 41 q 550 -18 596 -18 q 472 12 502 -18 q 442 88 442 41 q 472 164 442 136 q 550 193 502 193 m 897 193 q 974 164 943 193 q 1004 88 1004 136 q 974 12 1004 41 q 897 -18 943 -18 q 819 12 849 -18 q 789 88 789 41 q 819 164 789 136 q 897 193 849 193 z "},"-":{"ha":486,"x_min":54,"x_max":431,"o":"m 54 387 l 431 387 l 431 288 l 54 288 l 54 387 z "},"!":{"ha":423,"x_min":139,"x_max":358,"o":"m 218 282 l 140 920 l 352 928 l 358 922 l 271 285 l 218 282 m 243 186 q 318 159 289 186 q 347 85 347 131 q 318 10 347 39 q 243 -19 289 -19 q 168 10 197 -19 q 139 85 139 39 q 168 159 139 131 q 243 186 197 186 z "},"¡":{"ha":382,"x_min":54,"x_max":273,"o":"m 194 347 l 271 -298 l 60 -306 l 54 -300 l 141 344 l 194 347 m 168 442 q 94 470 123 442 q 64 544 64 498 q 94 619 64 590 q 168 648 123 648 q 244 619 215 648 q 273 544 273 590 q 244 470 273 498 q 168 442 215 442 z "},"?":{"ha":631,"x_min":88,"x_max":590,"o":"m 171 694 l 134 688 l 88 896 l 92 902 q 334 941 230 941 q 521 888 452 941 q 590 738 590 836 q 578 663 590 696 q 547 603 567 630 q 502 552 528 576 q 446 507 475 529 q 395 467 417 484 q 359 435 374 450 q 338 405 345 420 q 331 370 331 390 q 361 299 331 341 l 320 273 q 189 461 189 391 q 197 505 189 485 q 220 543 205 524 q 258 581 236 562 q 311 625 281 601 q 366 672 343 652 q 402 708 388 691 q 422 742 416 725 q 429 781 429 759 q 394 851 429 825 q 307 878 360 878 q 214 860 261 878 l 171 694 m 316 186 q 391 159 361 186 q 420 85 420 131 q 391 10 420 39 q 316 -19 361 -19 q 240 10 269 -19 q 212 85 212 39 q 240 159 212 131 q 316 186 269 186 z "},"¿":{"ha":621,"x_min":41,"x_max":543,"o":"m 460 -66 l 497 -60 l 543 -267 l 538 -273 q 296 -313 401 -313 q 110 -260 179 -313 q 41 -109 41 -207 q 52 -34 41 -67 q 83 26 64 -1 q 129 76 103 53 q 184 122 155 100 q 235 161 214 144 q 271 193 257 178 q 293 223 286 208 q 300 258 300 239 q 270 330 300 288 l 311 355 q 441 168 441 237 q 434 124 441 144 q 410 86 426 104 q 372 47 395 67 q 320 3 350 28 q 265 -43 288 -24 q 229 -79 243 -62 q 208 -113 214 -96 q 202 -153 202 -130 q 236 -222 202 -196 q 323 -249 271 -249 q 417 -231 370 -249 l 460 -66 m 315 442 q 240 470 269 442 q 211 544 211 498 q 240 619 211 590 q 315 648 269 648 q 390 619 361 648 q 419 544 419 590 q 390 470 419 498 q 315 442 361 442 z "},"‘":{"ha":313,"x_min":51,"x_max":265,"o":"m 265 998 q 168 837 168 916 q 243 728 168 765 q 217 659 243 684 q 151 634 191 634 q 79 668 108 634 q 51 752 51 702 q 99 900 51 830 q 235 1035 147 969 l 265 998 z "},"’":{"ha":313,"x_min":47,"x_max":262,"o":"m 47 658 q 145 819 145 740 q 69 928 145 891 q 95 997 69 972 q 161 1022 121 1022 q 233 988 205 1022 q 262 904 262 954 q 214 756 262 826 q 78 621 165 687 l 47 658 z "},"“":{"ha":550,"x_min":45,"x_max":509,"o":"m 259 998 q 161 837 161 916 q 237 728 161 765 q 211 659 237 684 q 145 634 185 634 q 73 668 102 634 q 45 752 45 702 q 93 900 45 830 q 229 1035 141 969 l 259 998 m 509 998 q 412 837 412 916 q 488 728 412 765 q 461 659 488 684 q 395 634 435 634 q 323 668 352 634 q 295 752 295 702 q 343 900 295 830 q 479 1035 391 969 l 509 998 z "},"”":{"ha":550,"x_min":41,"x_max":506,"o":"m 41 658 q 139 819 139 740 q 63 928 139 891 q 89 997 63 972 q 155 1022 115 1022 q 227 988 199 1022 q 256 904 256 954 q 208 756 256 826 q 72 621 159 687 l 41 658 m 292 658 q 389 819 389 740 q 313 928 389 891 q 339 997 313 972 q 406 1022 366 1022 q 477 988 449 1022 q 506 904 506 954 q 458 756 506 826 q 322 621 410 687 l 292 658 z "},"‚":{"ha":333,"x_min":41,"x_max":256,"o":"m 41 -196 q 139 -35 139 -114 q 63 75 139 37 q 89 143 63 119 q 155 168 115 168 q 227 134 199 168 q 256 50 256 100 q 208 -97 256 -28 q 72 -233 159 -167 l 41 -196 z "},"„":{"ha":577,"x_min":35,"x_max":499,"o":"m 35 -203 q 132 -41 132 -121 q 56 68 132 31 q 82 137 56 112 q 149 161 109 161 q 220 127 192 161 q 249 43 249 94 q 201 -104 249 -35 q 65 -239 153 -174 l 35 -203 m 285 -203 q 382 -41 382 -121 q 307 68 382 31 q 333 137 307 112 q 399 161 359 161 q 471 127 442 161 q 499 43 499 94 q 451 -104 499 -35 q 315 -239 403 -174 l 285 -203 z "},"‹":{"ha":433,"x_min":58,"x_max":355,"o":"m 316 41 q 60 306 186 199 l 58 331 q 316 596 186 439 l 354 576 q 215 322 296 450 q 355 60 296 189 l 316 41 z "},"›":{"ha":433,"x_min":78,"x_max":375,"o":"m 117 596 q 372 332 247 439 l 375 307 q 117 41 246 199 l 79 61 q 218 315 136 187 q 78 577 136 448 l 117 596 z "},"«":{"ha":718,"x_min":58,"x_max":640,"o":"m 316 41 q 60 306 186 199 l 58 331 q 316 596 186 439 l 354 576 q 215 322 296 450 q 355 60 296 189 l 316 41 m 601 41 q 345 306 471 199 l 342 331 q 601 596 471 439 l 639 576 q 500 322 581 450 q 640 60 581 189 l 601 41 z "},"»":{"ha":718,"x_min":78,"x_max":660,"o":"m 117 596 q 372 332 247 439 l 375 307 q 117 41 246 199 l 79 61 q 218 315 136 187 q 78 577 136 448 l 117 596 m 401 596 q 657 332 532 439 l 660 307 q 401 41 531 199 l 363 61 q 503 315 421 187 q 363 577 421 448 l 401 596 z "},"/":{"ha":559,"x_min":68,"x_max":505,"o":"m 68 -153 l 410 967 l 505 967 l 163 -153 l 68 -153 z "},"|":{"ha":490,"x_min":197,"x_max":293,"o":"m 293 1034 l 293 -345 l 197 -345 l 197 1034 l 293 1034 z "},"–":{"ha":694,"x_min":47,"x_max":647,"o":"m 47 380 l 647 380 l 647 294 l 47 294 l 47 380 z "},"—":{"ha":1389,"x_min":47,"x_max":1341,"o":"m 47 380 l 1341 380 l 1341 294 l 47 294 l 47 380 z "},"―":{"ha":1426,"x_min":0,"x_max":1379,"o":"m 0 380 l 1379 380 l 1379 294 l 0 294 l 0 380 z "},"•":{"ha":435,"x_min":34,"x_max":334,"o":"m 185 644 q 292 603 250 644 q 334 496 334 562 q 292 389 334 431 q 185 347 250 347 q 75 389 117 347 q 34 496 34 431 q 75 603 34 562 q 185 644 117 644 z "},"·":{"ha":397,"x_min":88,"x_max":309,"o":"m 199 451 q 277 421 246 451 q 309 342 309 391 q 277 264 309 295 q 199 233 246 233 q 119 264 150 233 q 88 342 88 295 q 119 421 88 391 q 199 451 150 451 z "},"(":{"ha":536,"x_min":102,"x_max":468,"o":"m 437 -257 q 102 404 102 4 q 437 1067 102 806 l 468 1040 q 252 406 252 799 q 468 -230 252 11 l 437 -257 z "},")":{"ha":536,"x_min":68,"x_max":434,"o":"m 99 1067 q 434 406 434 806 q 99 -257 434 4 l 68 -230 q 284 404 284 11 q 68 1040 284 799 l 99 1067 z "},"[":{"ha":493,"x_min":142,"x_max":432,"o":"m 263 -168 l 431 -207 l 432 -241 l 142 -241 l 142 1050 l 431 1050 l 432 1016 l 263 977 l 263 -168 z "},"]":{"ha":493,"x_min":61,"x_max":351,"o":"m 230 977 l 62 1016 l 61 1050 l 351 1050 l 351 -241 l 62 -241 l 61 -207 l 230 -168 l 230 977 z "},"{":{"ha":502,"x_min":47,"x_max":424,"o":"m 47 419 q 136 457 108 430 q 165 564 165 485 l 165 863 q 219 1012 165 966 q 422 1057 274 1058 l 424 1021 q 351 997 376 1010 q 313 963 325 983 q 299 915 301 943 q 297 848 297 887 l 297 629 q 267 477 297 526 q 159 407 237 429 l 159 403 q 267 332 237 381 q 297 181 297 283 l 297 -39 q 299 -105 297 -77 q 313 -153 301 -133 q 351 -187 325 -173 q 422 -211 376 -201 l 424 -248 q 219 -202 274 -248 q 165 -54 165 -156 l 165 246 q 136 352 165 325 q 49 391 108 380 l 47 419 z "},"}":{"ha":502,"x_min":78,"x_max":454,"o":"m 454 391 q 366 352 394 380 q 337 246 337 325 l 337 -54 q 282 -202 337 -156 q 79 -248 228 -248 l 78 -211 q 151 -187 125 -201 q 189 -153 177 -173 q 203 -105 201 -133 q 205 -39 205 -77 l 205 181 q 235 332 205 283 q 343 403 265 381 l 343 407 q 235 477 265 429 q 205 629 205 526 l 205 848 q 203 915 205 887 q 189 963 201 943 q 151 997 177 983 q 79 1021 125 1010 l 78 1057 q 282 1012 228 1058 q 337 863 337 966 l 337 564 q 366 457 337 485 q 453 419 394 430 l 454 391 z "},"*":{"ha":612,"x_min":75,"x_max":561,"o":"m 561 748 l 344 730 l 488 575 l 395 510 l 311 708 l 209 524 l 117 591 l 281 733 l 75 774 l 109 882 l 295 770 l 270 979 l 384 979 l 334 767 l 526 856 l 561 748 z "},"†":{"ha":768,"x_min":47,"x_max":720,"o":"m 468 955 l 422 583 l 720 583 l 720 505 l 422 505 l 458 353 l 415 -321 l 353 -323 l 309 353 l 346 505 l 47 505 l 47 583 l 346 583 l 299 952 l 464 960 l 468 955 z "},"‡":{"ha":836,"x_min":81,"x_max":754,"o":"m 334 -276 l 380 35 l 81 35 l 81 113 l 380 113 l 343 339 l 380 566 l 81 566 l 81 644 l 380 644 l 333 952 l 498 960 l 502 955 l 456 644 l 754 644 l 754 566 l 456 566 l 492 340 l 456 113 l 754 113 l 754 35 l 456 35 l 503 -273 l 338 -281 l 334 -276 z "},"§":{"ha":783,"x_min":27,"x_max":688,"o":"m 527 885 q 425 902 481 902 q 295 868 349 902 q 241 781 241 835 q 258 728 241 751 q 302 688 275 705 q 367 656 330 671 q 442 627 404 642 q 531 592 487 611 q 609 545 574 572 q 666 480 644 518 q 688 390 688 443 q 553 186 688 261 q 659 14 659 122 q 559 -178 659 -109 q 291 -246 459 -246 q 49 -208 168 -246 l 45 -201 l 81 43 l 123 50 l 174 -158 q 282 -180 222 -180 q 420 -146 366 -180 q 473 -50 473 -111 q 456 4 473 -19 q 412 45 439 27 q 347 77 384 62 q 272 106 311 92 q 184 141 228 122 q 105 188 140 161 q 49 251 71 214 q 27 341 27 288 q 174 538 27 468 q 56 716 56 603 q 155 898 56 831 q 414 965 254 965 q 651 934 520 965 l 655 928 l 614 709 l 576 703 l 527 885 m 520 309 q 510 355 520 334 q 484 391 500 375 q 444 421 467 408 q 393 446 420 435 q 319 476 358 462 q 242 505 281 490 q 194 422 194 471 q 204 376 194 396 q 232 340 214 356 q 273 310 250 323 q 325 285 297 296 q 401 255 361 269 q 480 224 441 241 q 520 309 520 259 z "},"¶":{"ha":833,"x_min":14,"x_max":764,"o":"m 644 -209 l 515 -216 l 509 -210 l 550 884 l 489 886 l 465 337 q 410 334 439 334 q 118 419 222 334 q 14 659 14 504 q 105 876 14 800 q 372 952 197 952 q 475 949 420 952 q 589 947 531 947 q 674 947 630 947 q 760 949 719 948 l 764 915 l 648 886 q 631 865 632 883 q 630 819 630 844 q 630 759 630 794 l 644 -209 z "},"Α":{"ha":930,"x_min":-39,"x_max":941,"o":"m 258 301 l 210 174 q 188 114 195 137 q 180 79 180 92 q 186 62 180 68 q 205 52 192 56 l 270 33 l 272 -2 q 112 0 174 0 q -35 -2 47 0 l -39 32 l 34 54 q 72 78 60 61 q 99 131 84 96 l 437 954 l 510 964 l 802 140 q 833 76 819 92 q 873 52 847 59 l 939 32 l 941 -2 q 757 0 850 0 q 517 -2 634 0 l 514 32 l 581 52 q 601 62 595 56 q 607 80 607 68 q 600 116 607 94 q 581 174 593 138 l 536 301 l 258 301 m 404 690 q 378 617 392 655 l 285 372 l 511 372 l 428 616 q 404 690 415 655 z "},"Β":{"ha":918,"x_min":59,"x_max":863,"o":"m 59 949 q 254 947 154 947 q 369 951 291 948 q 476 954 447 954 q 735 898 648 954 q 822 739 822 843 q 629 514 822 576 q 802 436 741 498 q 863 280 863 374 q 753 70 863 144 q 444 -4 644 -4 q 362 -2 405 -4 q 254 0 319 0 q 62 -2 155 0 l 59 32 l 150 57 q 168 78 167 62 q 169 139 169 105 q 170 213 170 172 l 170 753 q 169 815 170 787 q 168 866 169 843 q 152 888 168 884 l 61 915 l 59 949 m 372 469 l 372 64 q 452 58 410 58 q 593 112 545 58 q 641 268 641 165 q 592 420 641 370 q 434 470 543 470 q 372 469 402 470 m 372 530 q 437 530 406 530 q 566 571 524 530 q 608 713 608 613 q 565 847 608 806 q 440 888 522 888 q 410 887 427 888 q 372 883 393 886 l 372 530 z "},"Γ":{"ha":785,"x_min":59,"x_max":747,"o":"m 373 213 q 374 82 373 133 q 392 60 375 66 l 492 32 l 494 -2 q 274 0 389 0 q 62 -2 157 0 l 59 32 l 150 57 q 168 78 168 62 q 170 213 170 133 l 170 753 q 169 815 170 787 q 168 866 169 843 q 152 888 168 884 l 61 915 l 59 949 q 239 947 154 947 l 401 947 q 743 949 566 947 l 747 944 l 700 683 l 665 677 l 611 878 l 373 878 l 373 213 z "},"Δ":{"ha":909,"x_min":42,"x_max":838,"o":"m 838 -2 q 642 0 728 0 l 224 0 q 45 -2 146 0 l 42 32 l 427 954 l 499 970 l 834 32 l 838 -2 m 184 142 l 584 142 l 418 621 q 395 696 411 643 q 369 621 377 643 l 184 142 z "},"Ε":{"ha":836,"x_min":59,"x_max":772,"o":"m 239 947 l 411 947 q 753 949 576 947 l 758 944 l 715 718 l 679 713 l 635 878 l 373 878 l 373 517 l 410 517 q 536 519 469 517 q 559 537 554 519 l 584 630 l 629 632 q 627 485 627 534 q 629 340 627 437 l 584 336 l 559 432 q 538 451 553 450 q 409 452 469 452 l 373 452 l 373 220 q 374 72 373 145 l 646 72 l 731 250 l 772 256 l 756 3 l 751 -2 q 422 0 583 0 l 243 0 q 62 -2 155 0 l 59 32 l 150 57 q 168 78 167 62 q 169 139 169 105 q 170 213 170 172 l 170 753 q 169 815 170 787 q 168 866 169 843 q 152 888 168 884 l 61 915 l 59 949 q 239 947 154 947 z "},"Ζ":{"ha":819,"x_min":44,"x_max":771,"o":"m 47 -2 l 44 32 l 514 878 l 182 878 l 132 713 l 94 708 l 58 944 l 62 949 q 388 947 235 947 l 566 947 q 760 949 663 947 l 764 915 l 295 70 l 636 70 l 732 268 l 771 274 l 753 3 l 749 -2 q 407 0 556 0 l 225 0 q 47 -2 130 0 z "},"Η":{"ha":1149,"x_min":59,"x_max":1090,"o":"m 373 465 l 373 213 q 374 79 373 133 q 392 56 375 60 l 471 32 l 473 -2 q 274 0 389 0 q 62 -2 157 0 l 59 32 l 150 57 q 168 78 168 62 q 170 213 170 133 l 170 753 q 168 866 170 821 q 152 888 168 884 l 61 915 l 59 949 q 268 947 153 947 q 469 949 386 947 l 473 915 l 392 892 q 374 871 375 887 q 373 756 373 822 l 373 536 l 777 536 l 777 756 q 776 871 777 822 q 758 892 775 887 l 679 915 l 677 949 q 880 947 763 947 q 1087 949 995 947 l 1090 915 l 998 888 q 981 866 983 884 q 980 753 980 821 l 980 213 q 981 78 980 133 q 1000 57 983 62 l 1088 32 l 1090 -2 q 876 0 994 0 q 680 -2 762 0 l 677 32 l 758 56 q 776 79 775 60 q 777 213 777 133 l 777 465 l 373 465 z "},"Θ":{"ha":1158,"x_min":67,"x_max":1091,"o":"m 576 412 q 456 410 525 412 q 433 393 438 410 l 419 334 l 378 333 q 380 486 380 418 q 378 633 380 553 l 419 636 l 433 581 q 454 562 438 564 q 576 561 524 561 q 696 562 627 561 q 719 581 714 564 l 733 633 l 774 635 q 772 486 772 555 q 774 336 772 420 l 733 332 l 718 391 q 697 410 713 410 q 576 412 627 412 m 292 486 q 367 153 292 269 q 587 37 442 37 q 799 142 731 37 q 867 472 867 247 q 794 797 867 683 q 572 910 722 910 q 358 805 424 910 q 292 486 292 700 m 1091 495 q 952 118 1091 260 q 564 -25 812 -25 q 197 107 327 -25 q 67 464 67 239 q 207 835 67 699 q 594 972 347 972 q 962 844 832 972 q 1091 495 1091 716 z "},"Ι":{"ha":543,"x_min":59,"x_max":483,"o":"m 373 213 q 373 139 373 172 q 374 79 374 106 q 397 56 375 62 l 481 32 l 483 -2 q 274 0 389 0 q 62 -2 155 0 l 59 32 l 150 57 q 168 78 167 62 q 169 139 169 105 q 170 213 170 172 l 170 753 q 169 815 170 787 q 168 866 169 843 q 152 888 168 884 l 61 915 l 59 949 q 268 947 153 947 q 479 949 386 947 l 483 915 l 392 890 q 374 869 376 886 q 373 817 374 845 q 373 756 373 789 l 373 213 z "},"Κ":{"ha":1015,"x_min":59,"x_max":1008,"o":"m 373 756 l 373 213 q 373 139 373 172 q 374 79 374 106 q 392 56 375 61 l 471 32 l 473 -2 q 274 0 389 0 q 62 -2 155 0 l 59 32 l 150 57 q 168 78 168 62 q 169 139 169 105 q 170 213 170 172 l 170 753 q 169 815 170 787 q 168 866 169 843 q 152 888 168 884 l 61 915 l 59 949 q 268 947 153 947 q 469 949 385 947 l 473 915 l 392 892 q 374 871 376 887 q 373 817 374 846 q 373 756 373 789 m 389 474 l 667 780 q 719 841 700 816 q 738 880 738 865 q 720 899 738 893 l 661 913 l 659 949 q 816 947 730 947 q 976 949 900 947 l 979 915 l 903 894 q 846 863 869 884 q 795 813 822 842 l 563 553 l 861 115 q 900 72 883 84 q 941 52 917 59 l 1006 32 l 1008 -2 q 853 0 933 0 q 692 -1 779 0 q 582 180 672 43 l 389 474 z "},"Λ":{"ha":922,"x_min":-37,"x_max":936,"o":"m 425 616 q 402 690 412 655 q 376 617 390 655 l 210 174 q 189 114 197 137 q 181 79 181 92 q 187 62 181 68 q 206 52 193 56 l 271 33 l 273 -2 q 113 0 175 0 q -34 -2 49 0 l -37 32 l 35 54 q 73 78 61 61 q 100 131 85 96 l 434 954 l 507 964 l 797 140 q 828 76 814 92 q 867 52 842 59 l 933 32 l 936 -2 q 751 0 844 0 q 512 -2 629 0 l 509 32 l 575 52 q 595 62 589 56 q 601 80 601 68 q 594 116 601 94 q 575 174 587 138 l 425 616 z "},"Μ":{"ha":1299,"x_min":45,"x_max":1240,"o":"m 909 949 q 1078 947 1002 947 q 1236 949 1145 947 l 1240 915 l 1147 888 q 1131 866 1131 884 q 1129 753 1129 821 l 1129 213 q 1131 78 1129 133 q 1149 57 1131 62 l 1237 32 l 1240 -2 q 1025 0 1143 0 q 833 -2 910 0 l 829 32 l 907 56 q 924 80 924 60 q 926 213 926 133 l 926 647 q 928 782 926 682 q 880 661 905 724 l 610 0 l 549 -5 l 291 637 q 243 760 268 692 q 245 633 245 663 l 245 213 q 246 80 245 133 q 264 56 247 60 l 338 32 l 340 -2 q 201 0 260 0 q 49 -2 143 0 l 45 32 l 136 57 q 155 78 154 62 q 156 213 156 133 l 156 753 q 155 866 156 821 q 138 888 154 884 l 47 915 l 45 949 q 214 947 158 947 q 372 949 292 947 l 609 352 q 637 279 625 313 q 665 352 650 313 l 909 949 z "},"Ν":{"ha":1050,"x_min":42,"x_max":1018,"o":"m 243 81 q 260 57 243 61 l 347 33 l 349 -2 q 198 0 257 0 q 45 -2 140 0 l 42 32 l 133 57 q 151 78 151 62 q 153 213 153 133 l 153 753 q 151 866 153 821 q 135 888 151 884 l 44 915 l 42 949 q 188 947 137 947 q 314 949 254 947 l 765 385 q 821 313 792 351 q 819 403 819 359 l 819 756 q 818 869 819 822 q 800 890 817 885 l 713 913 l 711 949 q 863 947 805 947 q 1015 949 923 947 l 1018 915 l 926 888 q 909 866 910 884 q 907 753 907 821 l 907 0 l 829 -7 l 295 662 q 240 734 271 692 q 241 642 241 684 l 241 213 q 243 81 241 133 z "},"Ξ":{"ha":907,"x_min":54,"x_max":853,"o":"m 454 412 q 323 410 392 412 q 300 393 305 410 l 286 334 l 245 333 q 247 486 247 418 q 245 633 247 553 l 286 636 l 300 581 q 321 562 305 564 q 454 561 391 561 q 585 562 516 561 q 608 581 603 564 l 622 633 l 663 635 q 661 486 661 555 q 663 336 661 420 l 622 332 l 607 391 q 587 410 602 410 q 454 412 516 412 m 97 670 l 83 944 l 88 949 q 416 947 264 947 l 490 947 q 821 949 643 947 l 825 944 l 783 676 l 745 671 l 718 799 l 174 799 l 136 675 l 97 670 m 838 283 l 853 3 l 848 -2 q 520 0 659 0 l 389 0 q 59 -2 237 0 l 54 3 l 98 276 l 136 281 l 161 159 l 764 159 l 800 277 l 838 283 z "},"Ο":{"ha":1151,"x_min":67,"x_max":1084,"o":"m 295 486 q 368 154 295 269 q 583 39 441 39 q 790 144 723 39 q 857 472 857 248 q 786 795 857 682 q 568 908 715 908 q 360 803 425 908 q 295 486 295 699 m 1084 495 q 946 118 1084 260 q 561 -25 808 -25 q 196 107 325 -25 q 67 464 67 239 q 206 835 67 699 q 591 972 345 972 q 956 844 827 972 q 1084 495 1084 716 z "},"Π":{"ha":1127,"x_min":59,"x_max":1068,"o":"m 374 79 q 392 56 375 60 l 471 32 l 473 -2 q 274 0 389 0 q 62 -2 157 0 l 59 32 l 150 57 q 168 78 168 62 q 170 213 170 133 l 170 753 q 168 866 170 821 q 152 888 168 884 l 61 915 l 59 949 q 240 947 153 947 l 886 947 q 1064 949 972 947 l 1068 915 l 975 888 q 959 866 960 884 q 958 753 958 821 l 958 213 q 959 78 958 133 q 977 57 960 62 l 1065 32 l 1068 -2 q 853 0 971 0 q 658 -2 739 0 l 654 32 l 735 56 q 753 79 752 60 q 755 213 755 133 l 755 873 l 373 873 l 373 213 q 374 79 373 133 z "},"Ρ":{"ha":891,"x_min":59,"x_max":852,"o":"m 373 463 q 450 455 412 455 q 585 510 538 455 q 631 675 631 564 q 587 834 631 782 q 448 887 543 887 q 373 882 411 887 l 373 463 m 373 213 q 373 140 373 172 q 374 82 374 108 q 392 60 375 66 l 492 32 l 494 -2 q 274 0 389 0 q 62 -2 155 0 l 59 32 l 150 57 q 168 78 168 62 q 169 139 169 105 q 170 213 170 172 l 170 753 q 169 815 170 787 q 168 866 169 843 q 152 888 168 884 l 61 915 l 59 949 q 247 947 154 947 q 371 949 311 947 q 480 952 431 952 q 758 889 663 952 q 852 701 852 825 q 754 472 852 553 q 477 390 656 390 q 373 397 429 390 l 373 213 z "},"Σ":{"ha":878,"x_min":37,"x_max":814,"o":"m 37 28 l 394 452 l 47 916 l 43 949 q 251 947 154 947 l 457 947 q 786 950 610 947 l 791 945 l 746 704 l 710 699 l 663 878 l 317 878 l 570 541 l 244 151 l 692 151 l 772 319 l 814 326 l 792 3 l 787 -2 q 435 0 583 0 l 229 0 q 40 -2 126 0 l 37 28 z "},"Τ":{"ha":861,"x_min":-68,"x_max":771,"o":"m 349 0 q 121 -2 230 0 l 118 32 l 227 62 q 244 83 243 67 q 245 214 245 134 l 245 877 l 50 877 l -12 696 l -50 690 l -68 944 l -63 949 q 256 947 104 947 l 446 947 q 767 949 598 947 l 771 944 l 726 696 l 688 690 l 644 877 l 448 877 l 448 214 q 450 83 448 134 q 468 62 450 67 l 574 32 l 576 -2 q 349 0 464 0 z "},"Υ":{"ha":857,"x_min":-34,"x_max":891,"o":"m 505 513 l 635 772 q 664 830 653 806 q 675 869 675 854 q 644 897 675 889 l 583 913 l 581 949 q 739 947 656 947 q 888 949 814 947 l 891 915 l 819 894 q 782 870 795 886 q 755 829 768 854 l 541 433 l 541 213 q 541 139 541 172 q 542 79 541 106 q 566 56 543 62 l 642 32 l 644 -2 q 441 0 556 0 q 237 -2 323 0 l 233 32 l 317 57 q 336 78 334 62 q 337 139 336 105 q 338 213 338 172 l 338 416 l 117 811 q 76 870 92 852 q 34 897 60 888 l -31 915 l -34 949 q 157 947 33 947 q 414 949 292 947 l 417 915 l 348 898 q 325 888 332 895 q 317 871 317 882 q 327 837 317 857 q 353 789 336 817 l 505 513 z "},"Φ":{"ha":1100,"x_min":27,"x_max":1073,"o":"m 1073 495 q 954 253 1073 346 q 647 148 836 161 l 647 77 q 671 54 647 60 l 755 30 l 757 -2 q 553 0 663 0 q 346 -2 439 0 l 342 30 l 433 55 q 453 76 453 60 l 453 146 q 142 242 256 157 q 27 473 27 328 q 141 709 27 618 q 453 814 256 800 l 453 871 q 435 895 453 888 l 344 921 l 342 953 q 548 951 437 951 q 753 953 660 951 l 757 921 l 666 896 q 647 875 647 891 l 647 815 q 960 722 846 807 q 1073 495 1073 636 m 647 757 l 647 204 q 806 279 750 213 q 861 480 861 345 q 807 672 861 600 q 647 757 753 743 m 239 488 q 297 289 239 359 q 453 205 356 218 l 453 758 q 291 682 344 749 q 239 488 239 614 z "},"Χ":{"ha":952,"x_min":-7,"x_max":974,"o":"m 974 -2 q 764 0 880 0 q 526 -2 656 0 l 522 32 l 582 48 q 602 59 596 52 q 608 75 608 65 q 596 113 608 91 q 570 158 584 135 l 422 391 l 289 182 q 252 123 268 151 q 235 76 235 95 q 240 60 235 66 q 259 50 245 54 l 317 33 l 319 -2 q 156 0 243 0 q -3 -2 77 0 l -7 32 l 71 54 q 115 78 96 62 q 154 126 133 94 l 378 460 l 146 828 q 108 877 124 863 q 71 897 92 891 l 0 915 l -3 949 q 218 947 93 947 q 446 949 326 947 l 450 915 l 390 899 q 370 889 376 895 q 363 872 363 882 q 376 834 363 856 q 403 789 389 812 l 519 604 l 623 765 q 661 825 645 796 q 677 871 677 854 q 650 897 677 889 l 591 913 l 589 949 q 751 947 664 947 q 909 949 835 947 l 913 915 l 838 894 q 795 869 811 886 q 752 813 779 853 l 562 535 l 820 127 q 862 70 848 83 q 902 51 877 57 l 972 32 l 974 -2 z "},"Ψ":{"ha":1274,"x_min":14,"x_max":1260,"o":"m 538 338 q 393 351 456 341 q 284 380 330 360 q 208 430 239 400 q 159 506 177 460 q 133 611 140 551 q 125 750 125 671 q 124 809 125 776 q 123 866 124 842 q 107 888 123 884 l 16 915 l 14 949 q 216 947 108 947 q 323 948 272 947 q 322 849 323 902 q 321 749 321 796 q 324 625 321 677 q 336 534 327 572 q 360 471 345 496 q 399 431 376 446 q 458 410 423 416 q 538 401 492 404 l 538 753 q 537 815 538 787 q 536 869 537 843 q 520 892 536 886 l 443 915 l 441 949 q 635 947 521 947 q 830 949 749 947 l 833 915 l 756 893 q 739 872 740 888 q 738 817 738 845 q 737 756 737 789 l 737 401 q 849 418 806 404 q 914 471 891 433 q 945 575 937 509 q 954 749 954 642 q 952 849 954 796 q 949 948 951 902 q 1056 947 1001 947 q 1256 949 1164 947 l 1260 915 l 1167 888 q 1151 866 1152 884 q 1150 809 1150 842 q 1149 750 1149 776 q 1130 555 1149 631 q 1063 431 1110 478 q 937 363 1016 384 q 737 339 857 343 l 737 213 q 738 141 737 172 q 739 82 738 109 q 762 58 739 65 l 852 32 l 854 -2 q 640 0 752 0 q 425 -2 524 0 l 421 32 l 518 60 q 536 81 535 65 q 537 140 537 109 q 538 213 538 172 l 538 338 z "},"Ω":{"ha":1141,"x_min":44,"x_max":1097,"o":"m 486 0 q 73 -2 277 0 l 68 4 l 44 291 l 83 298 l 161 140 l 385 140 l 385 144 q 108 591 108 382 q 241 866 108 760 q 578 972 374 972 q 905 869 776 972 q 1034 601 1034 767 q 751 144 1034 395 l 751 140 l 977 140 l 1056 290 l 1097 296 l 1073 4 l 1069 -2 q 654 0 866 0 l 644 126 q 795 564 795 345 q 735 815 795 720 q 566 909 675 909 q 403 818 460 909 q 346 571 346 726 q 496 126 346 344 l 486 0 z "},"Ά":{"ha":930,"x_min":-150,"x_max":941,"o":"m 258 301 l 210 174 q 188 114 195 137 q 180 79 180 92 q 186 62 180 68 q 205 52 192 56 l 270 33 l 272 -2 q 112 0 174 0 q -35 -2 47 0 l -39 32 l 34 54 q 72 78 60 61 q 99 131 84 96 l 437 954 l 510 964 l 802 140 q 833 76 819 92 q 873 52 847 59 l 939 32 l 941 -2 q 757 0 850 0 q 517 -2 634 0 l 514 32 l 581 52 q 601 62 595 56 q 607 80 607 68 q 600 116 607 94 q 581 174 593 138 l 536 301 l 258 301 m 404 690 q 378 617 392 655 l 285 372 l 511 372 l 428 616 q 404 690 415 655 m 135 983 l 317 983 l 150 697 l 92 697 l 135 983 m -150 631 z "},"Έ":{"ha":956,"x_min":-302,"x_max":892,"o":"m 359 947 l 530 947 q 872 949 695 947 l 877 944 l 835 718 l 798 713 l 755 878 l 492 878 l 492 517 l 529 517 q 656 519 588 517 q 679 537 673 519 l 703 630 l 748 632 q 746 485 746 534 q 748 340 746 437 l 703 336 l 678 432 q 657 451 673 450 q 528 452 588 452 l 492 452 l 492 220 q 494 72 492 145 l 765 72 l 850 250 l 892 256 l 876 3 l 871 -2 q 542 0 702 0 l 362 0 q 182 -2 275 0 l 178 32 l 269 57 q 288 78 286 62 q 289 139 288 105 q 289 213 289 172 l 289 753 q 289 815 289 787 q 288 866 288 843 q 271 888 287 884 l 180 915 l 178 949 q 359 947 273 947 m -18 983 l 165 983 l -3 697 l -60 697 l -18 983 m -302 631 z "},"Ή":{"ha":1269,"x_min":-302,"x_max":1210,"o":"m 492 465 l 492 213 q 494 79 492 133 q 511 56 494 60 l 590 32 l 592 -2 q 393 0 508 0 q 182 -2 276 0 l 178 32 l 269 57 q 288 78 287 62 q 289 213 289 133 l 289 753 q 288 866 289 821 q 271 888 287 884 l 180 915 l 178 949 q 387 947 273 947 q 588 949 505 947 l 592 915 l 511 892 q 494 871 494 887 q 492 756 492 822 l 492 536 l 897 536 l 897 756 q 895 871 897 822 q 878 892 895 887 l 798 915 l 796 949 q 1000 947 882 947 q 1206 949 1114 947 l 1210 915 l 1118 888 q 1101 866 1102 884 q 1099 753 1099 821 l 1099 213 q 1101 78 1099 133 q 1120 57 1102 62 l 1208 32 l 1210 -2 q 996 0 1113 0 q 800 -2 881 0 l 796 32 l 878 56 q 895 79 895 60 q 897 213 897 133 l 897 465 l 492 465 m -18 983 l 165 983 l -3 697 l -60 697 l -18 983 m -302 631 z "}}}
